<?xml version="1.0" encoding="UTF-8"?>
<!DOCTYPE svg PUBLIC "-//W3C//DTD SVG 1.1//EN" "http://www.w3.org/Graphics/SVG/1.1/DTD/svg11.dtd">
<!-- Creator: CorelDRAW -->
<svg xmlns="http://www.w3.org/2000/svg" xml:space="preserve" width="250px" height="70px" version="1.1" style="shape-rendering:geometricPrecision; text-rendering:geometricPrecision; image-rendering:optimizeQuality; fill-rule:evenodd; clip-rule:evenodd"
viewBox="0 0 250 70"
 xmlns:xlink="http://www.w3.org/1999/xlink"
 xmlns:xodm="http://www.corel.com/coreldraw/odm/2003">
 <defs>
  <style type="text/css">
   <![CDATA[
    .fil2 {fill:#4B4B4D;fill-rule:nonzero}
    .fil0 {fill:#ED3237;fill-rule:nonzero}
    .fil1 {fill:#B5B5B5;fill-rule:nonzero}
   ]]>
  </style>
 </defs>
 <g id="Livello_x0020_1">
  <metadata id="CorelCorpID_0Corel-Layer"/>
  <g id="_2331931136592">
   <path class="fil0" d="M-760.34 -641.84c-38.75,0 -72.08,13.75 -99.58,41.25 -27.5,27.5 -41.67,60.42 -41.67,99.17 0,39.17 14.17,72.09 41.67,99.59 2.92,2.5 5.83,5.41 8.75,8.33 4.17,2.92 7.92,6.25 11.67,9.58 13.75,12.09 21.25,21.67 22.08,29.17l0 18.33c-6.67,-11.66 -15,-22.91 -25,-32.91 -5.42,-5.42 -11.25,-10.42 -17.08,-14.59 -22.09,-16.25 -47.5,-25.41 -75.42,-26.25 -2.5,-0.41 -5.42,-0.41 -7.5,0 -39.17,0 -72.5,13.33 -99.58,40.84 -27.92,27.08 -41.67,60.41 -41.67,99.16 0,39.17 13.75,72.5 41.67,99.59 27.08,27.5 60.41,40.83 99.58,41.25 38.75,-0.42 72.08,-13.75 100,-41.25 10,-10.42 18.33,-22.09 25,-35.42l0 246.25 -477.08 0.42 0 15.41 1064.58 0.42 0 -16.25 -478.75 0 0 -245.83c6.67,12.5 15.42,24.16 26.25,35 27.5,27.5 60.83,40.83 100,41.25 38.75,-0.42 72.08,-13.75 100,-41.25 27.08,-27.09 40.83,-60.42 40.83,-99.59 0,-38.75 -13.75,-72.08 -40.83,-99.16 -27.92,-27.51 -61.25,-40.84 -100,-40.84 -8.75,0 -17.08,0.42 -25,2.08 -21.25,2.92 -40.83,11.25 -57.92,24.17 -6.25,4.17 -11.66,9.17 -17.08,14.59 -10.83,10.83 -19.58,22.5 -26.25,35l0 -20.42c3.33,-8.33 12.08,-17.92 26.25,-29.17 3.75,-3.33 7.92,-6.25 12.92,-9.58 2.91,-2.92 6.25,-5.83 9.16,-8.33 27.5,-27.5 41.25,-60.42 41.25,-99.59 0,-38.75 -13.75,-71.67 -41.25,-99.17 -27.5,-27.5 -60.83,-41.25 -100,-41.25zm-89.16 52.09l0 0c24.58,-24.59 54.58,-37.09 89.16,-37.09 35,0 64.59,12.5 89.17,37.09 24.58,24.16 36.67,53.75 37.08,88.33 -0.41,35 -12.5,64.59 -37.08,89.17 -7.5,7.08 -15.42,13.33 -23.75,18.75 -5,2.92 -9.17,6.25 -12.92,9.58 -9.58,8.75 -15,18.34 -15.83,29.17l0 44.58c0,2.5 1.25,4.59 3.33,6.25 0,0.42 0.42,0.42 0.84,0.84 1.67,1.25 3.75,2.08 6.66,2.08 1.67,0 3.34,0 4.59,-0.83 0,0 0.41,0 0.83,-0.42 0.83,-0.42 1.25,-0.83 1.67,-1.67 0.83,-0.41 1.66,-1.66 2.08,-2.08 0.42,-1.67 0.83,-2.5 0.83,-3.75 6.25,-18.33 16.67,-34.17 31.25,-49.17 10.84,-10.83 22.5,-19.17 35.42,-25 9.17,-4.58 18.33,-7.5 28.75,-9.17 7.92,-1.66 16.25,-2.49 25,-2.49 34.58,0 64.58,12.5 88.75,36.66 24.58,24.59 36.67,54.17 37.08,88.75 -0.41,35 -12.5,64.59 -37.08,88.75 -24.17,24.59 -54.17,36.67 -88.75,36.67 -35,0 -64.58,-12.08 -89.17,-36.67 -15.41,-15 -25.83,-32.5 -31.66,-51.66 -0.42,-0.84 -0.84,-2.09 -1.25,-2.92 -0.42,-1.25 -0.84,-2.08 -1.67,-2.5 -0.83,-0.83 -1.25,-1.67 -2.08,-1.67 -1.67,-1.25 -3.34,-1.25 -5.42,-1.25 -2.5,0 -5,0.84 -6.67,2.5l-0.41 0.42c-1.67,1.67 -2.92,3.75 -2.92,6.67l0 272.08 -78.75 0 0 -275c-0.83,-1.25 -1.25,-2.5 -2.5,-3.75 0,0 0,0 0,0 -2.08,-2.08 -4.17,-2.92 -7.08,-2.92 -2.09,0 -4.17,0.42 -5.42,2.09 -0.83,0 -1.25,0 -1.25,0.83 -1.25,0.42 -2.08,1.67 -2.5,2.92 -0.42,0.83 -0.42,1.25 -0.42,2.08 -5.83,19.17 -16.66,36.67 -31.66,52.08 -24.59,24.59 -54.59,36.67 -89.17,36.67 -35,0 -64.58,-12.08 -89.17,-36.67 -24.58,-24.16 -37.08,-53.75 -37.08,-88.75 0,-34.58 12.5,-64.16 37.08,-88.75 24.59,-24.16 54.17,-36.66 89.17,-36.66 2.08,0 5,0 7.5,0.41 16.25,0.84 31.67,4.59 45.83,11.25 12.92,5.83 25,14.17 35.84,25 14.16,14.59 24.58,30.84 30.41,49.17 0.42,1.25 0.84,2.5 1.25,3.75 0.42,0.83 1.25,1.67 2.09,2.08 0,0.42 0.83,0.84 1.25,1.25 1.66,1.25 3.75,1.67 5.83,1.67 2.92,0 5,-0.83 7.08,-2.5l0 -0.42c1.67,-1.25 2.09,-2.08 2.92,-3.75l0 -47.08c0,-8.75 -4.58,-17.92 -14.17,-29.17 -2.91,-3.33 -5.83,-6.66 -9.16,-9.58 -8.34,-5.42 -16.25,-11.67 -23.75,-18.75 -24.17,-24.58 -36.67,-54.17 -36.67,-89.17 0,-34.58 12.5,-64.17 36.67,-88.33z"/>
   <path class="fil0" d="M-794.5 -555.59c-4.59,-4.58 -9.59,-8.33 -15.84,-10.41 0.84,-6.25 -0.41,-12.5 -2.91,-18.34 -11.25,8.76 -13.75,20.84 -7.92,36.67l-5 6.25 -18.33 0 -31.67 19.17 0 17.5 11.25 10.42 33.75 0 25.42 -10.42c4.16,6.66 5.83,13.75 6.25,22.08 0.83,5.84 2.91,11.25 6.25,16.25 1.25,3.34 0,6.67 -3.34,10.84l0 33.33 23.75 10 27.92 0 9.17 -5.83c8.33,-1.67 12.08,-5.84 11.66,-12.92l7.5 -20.42 -2.91 -12.08c2.91,-7.92 8.33,-12.92 16.66,-15l0 -12.92 38.34 0c10.83,0 17.5,-3.75 20.41,-11.25 -8.33,-16.66 -19.16,-28.33 -33.33,-35.41 -2.5,3.33 -5,5.83 -7.92,7.08 -1.25,-4.17 -4.16,-8.75 -8.33,-13.34 2.92,-2.08 6.25,-2.91 10,-2.5 -0.42,-17.08 -6.67,-29.16 -18.33,-35.41 0.83,8.75 -0.84,17.92 -3.34,26.66 -11.66,-4.58 -24.58,-6.25 -38.75,-5.41l-18.33 0c-12.92,-3.33 -23.33,-1.25 -32.08,5.41zm-14.17 0.42l0 0 5.42 0 6.66 5.42 0 3.33 -5.41 0 -6.67 -8.75zm36.25 -3.75l0 0 0 3.75 -8.33 7.5 -8.75 0 0 -6.25 10.41 -5 6.67 0zm65.42 19.17l0 0 0 -9.17 10.41 -12.5 1.25 14.17 -5.41 7.5 -6.25 0zm-0.84 27.5l0 0 7.09 0 9.58 3.33 4.17 5 2.08 -5.42 14.17 1.67 2.08 11.25 -29.58 0 -13.34 -7.5 0 -4.16 3.75 -4.17zm5.84 -12.5l0 0 12.5 -2.5 -9.58 7.92 -2.92 -5.42zm-28.34 -18.34l0 0 0 4.59 -7.08 5.83 0 2.5 10.83 0 -3.75 6.25 -12.91 24.58 -1.67 6.26 6.25 2.49 10.83 -10.41 6.67 0 -6.67 16.25 0 15.42 5 8.33 1.25 11.66 -9.16 19.17 -16.67 0 0 -4.58 18.33 -11.25c0,-3.34 -2.91,-5.83 -8.33,-7.09 -5.42,5.01 -12.92,7.92 -22.92,8.76 -5.41,-0.84 -10.83,-3.34 -15.83,-7.5 -4.58,0.83 -7.08,3.75 -7.08,7.5l13.33 9.16 0 5 -13.33 0c-5,-0.83 -7.92,-2.5 -9.59,-5l0 -19.58 15 -21.25 2.5 -17.5 -7.91 -10.42 -1.67 -6.67 -7.5 0 0 -5.83 11.67 -7.92 15.41 0 0 -10.41 -5.83 -5.42 -14.17 1.25 20.42 -10.83 4.58 0 6.67 2.08 6.67 -2.5 6.25 0 10.41 7.08zm-56.66 15l0 0 -3.34 5.42 -22.91 -9.58 21.66 0 4.59 4.16zm-32.5 7.5l0 0 10.83 0 2.92 2.92 0 6.25 -25.42 12.5 -25.83 0 -7.92 -10.83 9.58 -2.92 29.17 0 6.67 -7.92z"/>
   <path class="fil0" d="M-985.34 -319.75l-38.33 -22.92 5.42 55.42 5 9.17 11.66 12.5 1.67 22.08 14.58 11.67 8.75 5.41 13.34 16.67 12.5 5 17.91 0 2.92 -1.67 8.75 0 3.33 1.25 22.92 0 41.25 -31.66 -1.25 -20 -12.92 -19.59 -11.66 0 -7.09 -4.58 -8.33 -12.08 0 -11.67 8.75 -21.67 -8.33 -18.33 -22.5 14.58 -8.75 -1.66 -37.5 0 -14.17 9.58 -7.92 2.5zm-12.08 -2.92l0 0 11.25 12.09 7.08 13.33 4.59 -2.5 0 -17.5 14.58 0 7.5 -10.83 11.67 0 2.91 2.08 4.17 -2.5 8.75 1.67 13.33 12.91 9.59 12.92 2.91 12.5 15 18.33 -2.5 6.67 -11.25 5.83 -10 0 -4.58 2.5 0 11.67 -12.5 9.58 5 5.42 14.17 10 0 3.75 -14.59 -1.25 -7.5 -5.83 -7.08 0 -9.17 -15 2.5 14.16 -6.25 0 -6.25 -5.83 -3.33 3.75 -5.83 0 -8.75 -11.67 0 -6.25 -11.67 -9.58 0 -8.75 3.75 -2.92 -3.33 -2.5 0 -19.16 -12.09 -13.34 -5.83 -18.33 -2.92 -5.42 6.67 0zm-17.08 15l0 0 5.41 2.5 0 12.09 4.17 6.66 8.33 0 1.25 13.75 -5.83 0 -13.33 -17.5 0 -17.5zm35.41 66.25l0 0 0 5 -5.83 0 -8.33 -7.91 0 -7.09 4.16 0.84 10 9.16zm67.09 -83.33l0 0 0 -5 7.5 -5 6.25 -1.25 -1.25 10 -7.92 6.25 -4.58 -5zm40 57.08l0 0 2.91 0 5 5.42 0 5.42 -4.58 5.41 0 9.17 10 2.92 0 2.91 -9.17 8.34 -16.66 0 -5.42 -6.67 0 -15 2.08 -5.42 15.84 -12.5z"/>
   <polygon class="fil0" points="-957.84,-281 -940.34,-278.92 -934.09,-283.92 -940.34,-290.17 -951.17,-291.42 -957.84,-286.42 "/>
   <polygon class="fil0" points="-884.92,-247.25 -884.92,-239.33 -879.92,-237.25 -874.92,-240.58 -874.92,-247.25 -881.59,-252.25 "/>
   <path class="fil0" d="M-644.92 -317.67l0 6.67 11.67 9.58 2.5 31.25 -7.5 10.84 -10 9.58 -2.09 8.33 0 15 2.5 6.67 20.42 15 6.67 2.92 3.75 -1.67 6.25 0 7.5 5 12.08 -4.58 12.92 0 4.16 2.08 15.42 0 12.08 7.5 8.34 2.92 6.66 6.25 9.59 -2.09 8.75 -7.5 0 -5.83 -4.59 -1.67 -9.58 2.92 1.67 -9.17 -8.75 -1.25 -5 2.92 -8.34 0 -3.75 -2.08 -13.75 -2.09 2.09 -5.83 14.58 -10.83 11.25 -4.17 12.08 -10 2.09 -17.08 -5.42 5.41 -7.92 12.09 -10.41 1.66 -22.5 17.09 -4.17 6.66 -6.25 0 -4.58 -7.5 0 -9.58 6.66 -9.58 -4.58 0 -4.58 5.83 -8.34 -6.67 -8.74 6.25 -10.42 0 -8.75 6.67 -7.5 -1.25 -7.92 -7.92 -4.16 -7.91 8.74 -7.92 6.67 5.42 14.58 0 19.59 -15.42 2.91 -24.17 25 -28.33 1.25 -6.67 -5.41 -6.25 7.91 -8.33 16.67 0 6.67 4.58 0 7.09 -6.67 5.41 3.33 5 6.67 -5 7.08 0 -2.5 6.25 -10.83 7.5 3.75 6.25 18.75 -3.75 22.08 0 5 7.5 -6.25 6.67 -23.75 2.5 -8.75 -4.58 -3.33 0 11.25 9.16 28.33 -3.33 9.17 -10 6.25 2.08 -7.08 -15.83 -10.84 -8.75 -32.5 -12.92 -11.66 -12.08 -21.25 -0.83 -40 2.08 -5.42 5.42 -10.42 0 -7.5 8.33 -7.91 0 -5.42 -2.08 -12.08 3.33 5.83 10.83zm5.83 -2.91l0 0 0.42 -5.42 8.75 0 3.75 5.42 -3.75 3.33 -9.17 -3.33zm47.09 -16.25l0 0 -8.33 5.41 0 -6.25 8.33 0.84zm-12.92 15.41l0 0 11.67 2.92 15 -7.5 7.5 2.08 0 7.09 -18.75 17.91 -5.84 9.59 -2.08 21.25 -17.5 15 -7.92 0 -6.66 -3.75 -1.25 -5.84 6.25 -10 5 -17.08 1.25 -27.5 13.33 -4.17z"/>
   <polygon class="fil0" points="-574.09,-297.67 -580.34,-292.25 -578.25,-276 -565.34,-283.08 -556.59,-291.83 -564.5,-296.83 "/>
   <polygon class="fil1" points="-89.08,273.17 -87.42,267.33 -92.83,267.33 -94.92,273.17 "/>
   <polygon class="fil1" points="-94.08,227.33 -97.83,227.33 -113.67,273.17 -109.92,273.17 "/>
   <path class="fil1" d="M-132.83 239.42l-0.84 0c-2.08,-0.42 -4.17,0 -6.25,1.66 -2.08,0.84 -3.75,2.5 -5.42,4.59l2.09 -5.84 -3.75 0 -11.67 33.34 3.75 0 6.25 -18.34c1.67,-3.75 3.33,-6.66 5.84,-8.75 2.08,-1.66 4.58,-2.91 7.91,-2.91l0.83 0 1.26 -3.75z"/>
   <polygon class="fil1" points="-132,267.33 -134.09,273.17 -128.25,273.17 -126.17,267.33 "/>
   <path class="fil1" d="M-185.33 241.92c-1.67,-1.67 -4.59,-2.92 -8.34,-2.5 -3.33,-0.42 -6.25,0.83 -9.16,2.5 -2.92,1.66 -4.59,4.16 -5.42,7.08 -1.25,2.5 -0.84,4.58 0.83,5.83 1.25,1.25 3.75,2.09 7.92,3.75 3.33,0.42 5,1.25 5.83,1.67 1.25,0.83 1.67,2.5 1.25,4.17 -0.83,2.08 -2.08,3.33 -4.16,4.58 -2.09,1.25 -4.17,1.67 -7.09,2.08 -2.5,-0.41 -4.58,-1.25 -5.42,-2.5 -1.24,-1.25 -1.66,-3.33 -0.83,-5.41l-3.75 0c-1.25,3.33 -1.25,5.83 0.83,7.91 1.26,2.09 4.17,3.34 7.92,3.34 4.17,0 7.5,-1.25 10.42,-2.92 2.92,-1.67 5,-3.75 5.83,-6.67 0.84,-2.91 0.84,-5 -0.41,-6.25 -1.26,-1.25 -3.34,-2.5 -6.67,-3.33l-1.25 -0.42c-3.33,-0.83 -5.42,-1.66 -6.25,-2.08 -1.25,-1.25 -1.67,-2.5 -0.83,-4.58 0.41,-1.67 1.66,-2.92 3.33,-3.75 1.67,-1.67 3.33,-2.09 5.83,-2.09 2.5,0 4.17,0.42 5.84,2.09 0.83,1.25 1.25,3.33 0.41,5.41l4.17 0c0.83,-3.33 0.42,-6.25 -0.83,-7.91z"/>
   <polygon class="fil1" points="-170.75,267.33 -177,267.33 -179.09,273.17 -172.83,273.17 "/>
   <g>
    <polygon class="fil0" points="-527,92.33 -534.5,92.33 -534.5,140.67 -577.42,92.33 -585.75,92.33 -585.75,149.83 -578.25,149.83 -578.25,101.08 -535.34,149.83 -527,149.83 "/>
    <polygon class="fil0" points="-513.25,96.92 -487.84,96.92 -487.84,149.83 -480.34,149.83 -480.34,96.92 -454.5,96.92 -454.5,92.33 -513.25,92.33 "/>
    <polygon class="fil0" points="-679.09,92.33 -689.92,92.33 -714.92,141.5 -739.92,92.33 -750.75,92.33 -750.75,149.83 -743.25,149.83 -743.25,100.25 -718.25,149.83 -712,149.83 -686.59,100.25 -686.59,149.83 -679.09,149.83 "/>
    <polygon class="fil0" points="-650.34,96.92 -603.67,96.92 -603.67,92.33 -658.25,92.33 -658.25,149.83 -602.42,149.83 -602.42,144.83 -650.34,144.83 -650.34,122.33 -607.83,122.33 -607.83,117.75 -650.34,117.75 "/>
    <polygon class="fil0" points="-771.59,92.33 -779.5,92.33 -779.5,149.83 -771.59,149.83 "/>
    <path class="fil0" d="M-888.25 92.33l-9.17 0 -31.67 57.5 7.92 0 9.58 -17.5 37.5 0 9.17 17.5 7.92 0 -31.25 -57.5zm-5 5.84l0 0 16.25 29.16 -31.67 0 15.42 -29.16z"/>
    <polygon class="fil0" points="-834.92,92.33 -842.42,92.33 -842.42,149.83 -792.42,149.83 -792.42,144.83 -834.92,144.83 "/>
    <path class="fil0" d="M-1061.17 107.75c0,-2.92 -0.83,-5.42 -2.92,-7.92 -1.66,-2.08 -4.16,-3.75 -7.5,-5 -2.91,-1.25 -5.41,-2.08 -9.58,-2.08 -2.5,-0.42 -6.25,-0.42 -11.67,-0.42l-27.5 0 0 57.5 7.5 0 0 -25.83 24.17 0c6.67,0 11.25,0.83 13.33,2.5 1.67,1.25 2.92,4.58 3.75,9.58l0.84 7.92c0.41,1.25 0.41,2.5 0.41,3.33 0.42,0.84 0.84,1.67 1.25,2.5l8.75 0 0 -0.83c-0.83,-0.42 -1.66,-1.25 -2.08,-2.08 -0.42,-0.84 -0.42,-1.67 -0.83,-2.92l-0.84 -8.75c-0.83,-4.58 -1.66,-7.5 -2.5,-8.75 -1.66,-2.5 -4.16,-4.17 -7.91,-4.58 4.16,-1.25 7.5,-2.92 9.58,-5.42 2.5,-2.08 3.75,-5.42 3.75,-8.75zm-14.17 -8.75l0 0c2.09,0.83 3.75,2.08 4.59,3.75 0.83,1.67 1.66,3.33 1.66,5 0,4.17 -2.08,7.5 -5.41,9.17 -3.34,1.66 -8.75,2.5 -16.67,2.5l-21.67 0 0 -22.5 21.67 0c3.75,0 7.08,0 8.75,0.41 2.92,0.42 5.42,0.84 7.08,1.67z"/>
    <path class="fil0" d="M-1012 91.08c-10.42,-0.41 -19.17,2.5 -25.42,7.92 -6.67,5.42 -10,12.92 -10,22.08 0,9.17 3.33,16.67 10,22.09 6.25,5.41 15,8.33 25.42,8.33 11.25,0 20,-2.92 26.66,-8.33 6.67,-5.42 10,-12.5 10,-22.09 0,-9.16 -3.33,-16.66 -10,-22.08 -6.66,-5.42 -15.41,-8.33 -26.66,-7.92zm-20 11.25l0 0c5,-4.58 11.66,-6.66 20,-6.66 8.75,0 15.83,2.08 20.83,6.66 5.83,4.59 8.33,10.84 8.33,18.75 0,7.92 -2.5,14.17 -8.33,18.75 -5,4.17 -12.08,6.67 -20.83,6.67 -8.34,0 -15,-2.5 -20,-6.67 -5.42,-4.58 -7.92,-10.83 -7.92,-18.75 0,-7.91 2.5,-14.16 7.92,-18.75z"/>
    <path class="fil0" d="M-1174.5 95.67c6.25,0 11.66,1.25 15.83,3.33 4.58,2.5 7.08,5.83 8.75,10l7.5 0c-1.25,-5.83 -4.58,-10 -10.42,-13.33 -5.83,-3.34 -13.33,-4.59 -21.66,-4.59 -10.84,-0.41 -19.17,2.09 -25.84,7.5 -6.66,5.42 -10,12.92 -10,22.5 0,9.17 3.34,16.67 10,22.09 6.67,5.41 15,8.33 25,8.33 5.84,0 11.25,-1.25 15.84,-3.33 5,-2.09 8.75,-4.59 11.66,-7.92l0.42 9.58 6.25 0 0 -29.58 -32.92 0 0 5 25.42 0c0,6.67 -2.5,12.08 -7.5,15.83 -4.58,3.75 -11.25,5.42 -19.58,5.42 -7.92,0 -14.17,-2.08 -19.59,-6.67 -4.58,-5 -6.66,-11.25 -6.66,-18.75 0,-8.33 2.08,-14.58 6.66,-19.16 5.42,-4.17 12.09,-6.25 20.84,-6.25z"/>
    <path class="fil0" d="M-1252.42 92.33l-8.75 0 -31.25 57.5 7.5 0 9.58 -17.5 37.09 0 9.16 17.5 8.34 0 -31.67 -57.5zm11.67 35l0 0 -32.09 0 15.84 -29.16 16.25 29.16z"/>
    <polygon class="fil0" points="-230.75,96.92 -230.75,92.33 -284.92,92.33 -284.92,149.83 -229.5,149.83 -229.5,144.83 -277.42,144.83 -277.42,122.33 -234.92,122.33 -234.92,117.75 -277.42,117.75 -277.42,96.92 "/>
    <path class="fil0" d="M-334.09 92.33l-27.91 0 0 57.5 7.5 0 0 -25.83 24.16 0c6.67,0 10.84,0.83 13.34,2.5 1.66,1.25 3.33,4.58 3.75,9.58l0.83 7.92c0.42,1.25 0.42,2.5 0.42,3.33 0.41,0.84 0.83,1.67 1.66,2.5l7.92 0 0 -0.83c-0.42,-0.42 -1.25,-1.25 -1.67,-2.08 -0.41,-0.84 -0.41,-1.67 -0.83,-2.92l-0.83 -8.75c-0.84,-4.58 -1.25,-7.5 -2.5,-8.75 -1.67,-2.5 -4.17,-4.17 -7.92,-4.58 4.17,-1.25 7.5,-2.92 9.58,-5.42 2.5,-2.08 3.75,-5.42 3.75,-8.75 0,-2.92 -0.83,-5.42 -2.91,-7.92 -1.67,-2.08 -4.17,-3.75 -7.5,-5 -2.5,-1.25 -5.42,-2.08 -9.59,-2.08 -2.5,-0.42 -6.25,-0.42 -11.25,-0.42zm-20.41 4.59l0 0 21.66 0c4.17,0 7.09,0 8.76,0.41 2.91,0.42 5.41,0.84 7.08,1.67 2.08,0.83 3.75,2.08 4.58,3.75 1.25,1.67 1.67,3.33 1.67,5 0,4.17 -1.67,7.5 -5,9.17 -3.75,1.66 -9.17,2.5 -16.67,2.5l-22.08 0 0 -22.5z"/>
    <path class="fil0" d="M-407.42 92.33l-9.17 0 -31.66 57.5 7.91 0 9.59 -17.5 37.5 0 9.16 17.5 7.92 0 -31.25 -57.5zm11.25 35l0 0 -31.67 0 15.42 -29.16 16.25 29.16z"/>
   </g>
   <g>
    <polygon class="fil0" points="-944.5,183.58 -977.42,183.58 -977.42,234 -1019.5,183.58 -1051.59,183.58 -1051.59,274 -1019.5,274 -1019.5,224.42 -977.42,274 -944.5,274 "/>
    <path class="fil0" d="M-1099.5 274l36.25 0 -41.67 -90.42 -38.33 0 -41.67 90.42 35 0 5.83 -14.58 39.17 0 5.42 14.58zm-25 -66.67l0 0 12.08 32.09 -24.17 0 12.09 -32.09z"/>
    <path class="fil0" d="M-1268.67 185.67c-7.08,2.08 -12.08,5.41 -15,10 -3.33,4.16 -5.42,8.33 -5,12.91 -0.42,7.09 2.92,12.92 9.58,17.5 6.25,4.59 17.09,8.34 32.92,11.25 9.17,1.25 15.42,3.34 17.5,5 2.5,1.67 3.75,3.75 4.17,6.25 -0.42,2.5 -2.09,4.59 -4.59,6.67 -2.5,1.67 -6.66,2.92 -11.25,2.92 -7.08,0 -12.08,-2.09 -15.41,-5.84 -2.09,-2.5 -3.75,-5 -4.17,-9.58l-32.92 1.67c0.84,8.75 5.42,16.66 12.09,22.5 7.5,5.83 20.83,8.75 39.58,9.16 11.25,0 20.42,-1.25 27.08,-3.75 7.5,-2.91 12.5,-6.66 16.67,-11.25 4.17,-5.41 6.25,-10.41 6.25,-16.25 0,-5.41 -1.67,-9.58 -4.58,-13.33 -3.34,-4.17 -7.92,-7.5 -14.17,-10 -6.67,-2.92 -17.5,-5.83 -32.92,-7.92 -6.25,-1.66 -10,-2.5 -11.25,-3.75 -1.66,-1.66 -2.5,-2.5 -2.5,-3.75 0,-2.08 0.84,-3.33 2.92,-5 2.08,-1.25 4.58,-2.5 9.17,-2.5 4.58,0 8.33,1.25 11.66,2.92 2.09,2.08 4.17,5 5.42,9.17l32.08 -1.25c-1.25,-9.59 -5.41,-16.25 -12.91,-20.42 -7.92,-4.58 -18.75,-6.67 -32.92,-6.67 -12.08,0 -21.25,0.84 -27.5,3.34z"/>
    <path class="fil0" d="M-577 183.58l-57.5 0 0 90.42 35 0 0 -36.25 2.5 0c3.33,0 6.25,0.42 8.75,1.67 1.25,1.66 3.75,3.75 6.25,7.08l18.33 27.5 39.17 0 -16.67 -25.83c-0.83,-1.67 -2.5,-3.34 -4.58,-5.84 -2.5,-2.08 -4.59,-4.16 -5.84,-4.58 -2.08,-1.67 -4.58,-2.5 -9.16,-3.33 5.41,-0.84 9.16,-2.5 12.5,-3.75 4.16,-2.5 7.91,-5.42 10.83,-8.75 2.5,-3.75 3.75,-7.92 3.75,-13.34 0,-5.41 -1.67,-10.41 -5,-14.58 -3.33,-4.17 -8.33,-6.67 -13.75,-7.92 -5.83,-1.66 -13.75,-2.5 -24.58,-2.5zm-7.5 18.34l0 0c6.25,-0.42 10.41,0.83 12.91,2.08 2.5,1.25 3.34,3.75 3.34,7.08 0,2.09 -0.84,3.75 -2.5,5.42 -1.25,1.25 -2.92,2.08 -5,2.5 -5,1.25 -8.34,1.67 -9.58,1.67l-14.17 0 0 -18.75 15 0z"/>
    <path class="fil0" d="M-740.34 259.42l5.84 14.58 36.25 0 -42.09 -90.42 -37.5 0 -42.5 90.42 35.42 0 5.83 -14.58 38.75 0zm-7.08 -20l0 0 -24.58 0 12.08 -32.09 12.5 32.09z"/>
    <polygon class="fil0" points="-824.5,206.08 -824.5,183.58 -929.92,183.58 -929.92,206.08 -894.5,206.08 -894.5,274 -859.92,274 -859.92,206.08 "/>
    <path class="fil0" d="M-271.17 183.58l-37.5 0 -42.08 90.42 35.41 0 5.42 -14.58 38.75 0 5.83 14.58 36.26 0 -42.09 -90.42zm-6.67 55.84l0 0 -24.58 0 12.5 -32.09 12.08 32.09z"/>
    <polygon class="fil0" points="-355.34,206.08 -355.34,183.58 -459.92,183.58 -459.92,206.08 -424.92,206.08 -424.92,274 -390.75,274 -390.75,206.08 "/>
    <polygon class="fil0" points="-477.42,183.58 -512,183.58 -512,274 -477.42,274 "/>
   </g>
  </g>
  <path class="fil0" d="M29.35 -157.13c-4.67,0 -8.68,1.66 -12,4.97 -3.31,3.31 -5.02,7.28 -5.02,11.95 0,4.71 1.71,8.68 5.02,11.99 0.35,0.31 0.71,0.66 1.06,1.01 0.5,0.35 0.95,0.75 1.4,1.15 1.66,1.46 2.56,2.61 2.66,3.52l0 2.2c-0.8,-1.4 -1.8,-2.76 -3.01,-3.96 -0.65,-0.65 -1.35,-1.26 -2.06,-1.76 -2.66,-1.96 -5.72,-3.06 -9.08,-3.16 -0.3,-0.05 -0.65,-0.05 -0.91,0 -4.71,0 -8.73,1.61 -11.99,4.92 -3.37,3.26 -5.02,7.28 -5.02,11.94 0,4.72 1.65,8.74 5.02,12 3.26,3.32 7.28,4.92 11.99,4.97 4.67,-0.05 8.69,-1.65 12.05,-4.97 1.21,-1.25 2.21,-2.66 3.01,-4.26l0 29.66 -57.47 0.05 0 1.86 128.25 0.05 0 -1.96 -57.68 0 0 -29.61c0.81,1.5 1.86,2.91 3.17,4.21 3.31,3.32 7.33,4.92 12.04,4.97 4.67,-0.05 8.69,-1.65 12.05,-4.97 3.26,-3.26 4.92,-7.28 4.92,-12 0,-4.66 -1.66,-8.68 -4.92,-11.94 -3.36,-3.31 -7.38,-4.92 -12.05,-4.92 -1.05,0 -2.05,0.05 -3.01,0.25 -2.56,0.35 -4.92,1.36 -6.97,2.91 -0.76,0.5 -1.41,1.11 -2.06,1.76 -1.31,1.3 -2.36,2.71 -3.17,4.22l0 -2.46c0.41,-1.01 1.46,-2.16 3.17,-3.52 0.45,-0.4 0.95,-0.75 1.55,-1.15 0.35,-0.35 0.76,-0.7 1.11,-1.01 3.31,-3.31 4.97,-7.28 4.97,-11.99 0,-4.67 -1.66,-8.64 -4.97,-11.95 -3.32,-3.31 -7.33,-4.97 -12.05,-4.97zm-10.74 6.27l0 0c2.96,-2.96 6.57,-4.46 10.74,-4.46 4.22,0 7.78,1.5 10.74,4.46 2.96,2.92 4.42,6.48 4.47,10.65 -0.05,4.21 -1.51,7.78 -4.47,10.74 -0.9,0.85 -1.86,1.6 -2.86,2.26 -0.6,0.35 -1.1,0.75 -1.55,1.15 -1.16,1.06 -1.81,2.21 -1.91,3.52l0 5.37c0,0.3 0.15,0.55 0.4,0.75 0,0.05 0.05,0.05 0.1,0.1 0.2,0.15 0.45,0.25 0.8,0.25 0.2,0 0.4,0 0.55,-0.1 0,0 0.06,0 0.1,-0.05 0.11,-0.05 0.16,-0.1 0.21,-0.2 0.1,-0.05 0.2,-0.2 0.25,-0.25 0.05,-0.2 0.1,-0.3 0.1,-0.45 0.75,-2.21 2.01,-4.12 3.76,-5.93 1.31,-1.3 2.71,-2.31 4.27,-3.01 1.1,-0.55 2.21,-0.9 3.46,-1.1 0.96,-0.2 1.96,-0.3 3.01,-0.3 4.17,0 7.78,1.5 10.7,4.41 2.96,2.97 4.41,6.53 4.46,10.69 -0.05,4.22 -1.5,7.79 -4.46,10.7 -2.92,2.96 -6.53,4.41 -10.7,4.41 -4.21,0 -7.78,-1.45 -10.74,-4.41 -1.85,-1.81 -3.11,-3.92 -3.81,-6.23 -0.05,-0.1 -0.1,-0.25 -0.15,-0.35 -0.05,-0.15 -0.1,-0.25 -0.2,-0.3 -0.1,-0.1 -0.16,-0.2 -0.26,-0.2 -0.2,-0.15 -0.4,-0.15 -0.65,-0.15 -0.3,0 -0.6,0.1 -0.8,0.3l-0.05 0.05c-0.2,0.2 -0.35,0.45 -0.35,0.8l0 32.78 -9.49 0 0 -33.13c-0.1,-0.15 -0.15,-0.3 -0.3,-0.45 0,0 0,0 0,0 -0.25,-0.25 -0.5,-0.35 -0.85,-0.35 -0.25,0 -0.51,0.05 -0.66,0.25 -0.1,0 -0.15,0 -0.15,0.1 -0.15,0.05 -0.25,0.2 -0.3,0.35 -0.05,0.1 -0.05,0.15 -0.05,0.25 -0.7,2.31 -2.01,4.42 -3.81,6.28 -2.97,2.96 -6.58,4.41 -10.75,4.41 -4.21,0 -7.78,-1.45 -10.74,-4.41 -2.96,-2.91 -4.46,-6.48 -4.46,-10.7 0,-4.16 1.5,-7.72 4.46,-10.69 2.96,-2.91 6.53,-4.41 10.74,-4.41 0.26,0 0.61,0 0.91,0.05 1.96,0.1 3.81,0.55 5.52,1.35 1.56,0.7 3.01,1.71 4.32,3.01 1.7,1.76 2.96,3.72 3.66,5.93 0.05,0.15 0.1,0.3 0.15,0.45 0.05,0.1 0.15,0.2 0.25,0.25 0,0.05 0.1,0.1 0.15,0.15 0.2,0.15 0.45,0.2 0.71,0.2 0.35,0 0.6,-0.1 0.85,-0.3l0 -0.05c0.2,-0.15 0.25,-0.25 0.35,-0.45l0 -5.67c0,-1.06 -0.55,-2.16 -1.71,-3.52 -0.35,-0.4 -0.7,-0.8 -1.1,-1.15 -1,-0.66 -1.96,-1.41 -2.86,-2.26 -2.91,-2.96 -4.42,-6.53 -4.42,-10.74 0,-4.17 1.51,-7.73 4.42,-10.65z"/>
  <path class="fil0" d="M443.09 84.57c-4.67,0 -8.68,1.66 -12,4.97 -3.31,3.32 -5.02,7.28 -5.02,11.95 0,4.72 1.71,8.68 5.02,12 0.36,0.3 0.71,0.65 1.06,1 0.5,0.35 0.95,0.75 1.4,1.16 1.66,1.45 2.56,2.61 2.66,3.51l0 2.21c-0.8,-1.41 -1.8,-2.76 -3.01,-3.97 -0.65,-0.65 -1.35,-1.25 -2.06,-1.75 -2.66,-1.96 -5.72,-3.07 -9.08,-3.17 -0.3,-0.05 -0.65,-0.05 -0.9,0 -4.72,0 -8.74,1.61 -12,4.92 -3.37,3.27 -5.02,7.28 -5.02,11.95 0,4.72 1.65,8.73 5.02,12 3.26,3.31 7.28,4.92 12,4.97 4.66,-0.05 8.68,-1.66 12.04,-4.97 1.21,-1.26 2.21,-2.66 3.01,-4.27l0 29.67 -57.47 0.05 0 1.85 128.25 0.05 0 -1.95 -57.67 0 0 -29.62c0.8,1.51 1.85,2.91 3.16,4.22 3.31,3.31 7.33,4.92 12.04,4.97 4.67,-0.05 8.69,-1.66 12.05,-4.97 3.26,-3.27 4.92,-7.28 4.92,-12 0,-4.67 -1.66,-8.68 -4.92,-11.95 -3.36,-3.31 -7.38,-4.92 -12.05,-4.92 -1.05,0 -2.05,0.05 -3.01,0.25 -2.56,0.36 -4.92,1.36 -6.97,2.92 -0.76,0.5 -1.41,1.1 -2.06,1.75 -1.31,1.31 -2.36,2.71 -3.16,4.22l0 -2.46c0.4,-1 1.45,-2.16 3.16,-3.51 0.45,-0.41 0.95,-0.76 1.55,-1.16 0.35,-0.35 0.76,-0.7 1.11,-1 3.31,-3.32 4.97,-7.28 4.97,-12 0,-4.67 -1.66,-8.63 -4.97,-11.95 -3.31,-3.31 -7.33,-4.97 -12.05,-4.97zm-10.74 6.28l0 0c2.96,-2.96 6.58,-4.47 10.74,-4.47 4.22,0 7.78,1.51 10.74,4.47 2.96,2.91 4.42,6.47 4.47,10.64 -0.05,4.22 -1.51,7.78 -4.47,10.74 -0.9,0.86 -1.85,1.61 -2.86,2.26 -0.6,0.35 -1.1,0.75 -1.55,1.16 -1.16,1.05 -1.81,2.2 -1.91,3.51l0 5.37c0,0.3 0.15,0.55 0.4,0.75 0,0.05 0.05,0.05 0.1,0.1 0.2,0.15 0.45,0.25 0.8,0.25 0.2,0 0.4,0 0.55,-0.1 0,0 0.06,0 0.11,-0.05 0.1,-0.05 0.15,-0.1 0.2,-0.2 0.1,-0.05 0.2,-0.2 0.25,-0.25 0.05,-0.2 0.1,-0.3 0.1,-0.45 0.75,-2.21 2.01,-4.12 3.76,-5.92 1.31,-1.31 2.71,-2.31 4.27,-3.01 1.1,-0.56 2.21,-0.91 3.46,-1.11 0.96,-0.2 1.96,-0.3 3.01,-0.3 4.17,0 7.78,1.51 10.7,4.42 2.96,2.96 4.41,6.52 4.46,10.69 -0.05,4.22 -1.5,7.78 -4.46,10.69 -2.92,2.96 -6.53,4.42 -10.7,4.42 -4.21,0 -7.78,-1.46 -10.74,-4.42 -1.85,-1.81 -3.11,-3.91 -3.81,-6.22 -0.05,-0.1 -0.1,-0.25 -0.15,-0.36 -0.05,-0.15 -0.1,-0.25 -0.2,-0.3 -0.1,-0.1 -0.15,-0.2 -0.26,-0.2 -0.2,-0.15 -0.4,-0.15 -0.65,-0.15 -0.3,0 -0.6,0.1 -0.8,0.3l-0.05 0.05c-0.2,0.2 -0.35,0.46 -0.35,0.81l0 32.78 -9.49 0 0 -33.13c-0.1,-0.16 -0.15,-0.31 -0.3,-0.46 0,0 0,0 0,0 -0.25,-0.25 -0.5,-0.35 -0.85,-0.35 -0.25,0 -0.51,0.05 -0.66,0.25 -0.1,0 -0.15,0 -0.15,0.1 -0.15,0.05 -0.25,0.2 -0.3,0.36 -0.05,0.1 -0.05,0.15 -0.05,0.25 -0.7,2.31 -2.01,4.41 -3.81,6.27 -2.96,2.96 -6.58,4.42 -10.74,4.42 -4.22,0 -7.79,-1.46 -10.75,-4.42 -2.96,-2.91 -4.46,-6.47 -4.46,-10.69 0,-4.17 1.5,-7.73 4.46,-10.69 2.96,-2.91 6.53,-4.42 10.75,-4.42 0.25,0 0.6,0 0.9,0.05 1.96,0.1 3.81,0.55 5.52,1.36 1.56,0.7 3.01,1.7 4.32,3.01 1.7,1.75 2.96,3.71 3.66,5.92 0.05,0.15 0.1,0.3 0.15,0.45 0.05,0.1 0.15,0.2 0.25,0.25 0,0.05 0.1,0.1 0.15,0.15 0.2,0.15 0.46,0.2 0.71,0.2 0.35,0 0.6,-0.1 0.85,-0.3l0 -0.05c0.2,-0.15 0.25,-0.25 0.35,-0.45l0 -5.67c0,-1.05 -0.55,-2.16 -1.71,-3.51 -0.35,-0.41 -0.7,-0.81 -1.1,-1.16 -1,-0.65 -1.96,-1.4 -2.86,-2.26 -2.91,-2.96 -4.42,-6.52 -4.42,-10.74 0,-4.17 1.51,-7.73 4.42,-10.64z"/>
  <path class="fil0" d="M25.23 -146.74c-0.55,-0.55 -1.15,-1 -1.9,-1.25 0.1,-0.76 -0.05,-1.51 -0.35,-2.21 -1.36,1.05 -1.66,2.51 -0.96,4.41l-0.6 0.76 -2.21 0 -3.81 2.31 0 2.1 1.35 1.26 4.07 0 3.06 -1.26c0.5,0.81 0.7,1.66 0.75,2.67 0.1,0.7 0.35,1.35 0.76,1.95 0.15,0.4 0,0.81 -0.41,1.31l0 4.01 2.86 1.21 3.37 0 1.1 -0.7c1.01,-0.21 1.46,-0.71 1.41,-1.56l0.9 -2.46 -0.35 -1.46c0.35,-0.95 1,-1.55 2.01,-1.8l0 -1.56 4.62 0c1.3,0 2.1,-0.45 2.45,-1.35 -1,-2.01 -2.3,-3.42 -4.01,-4.27 -0.3,0.4 -0.6,0.7 -0.95,0.85 -0.16,-0.5 -0.51,-1.05 -1.01,-1.6 0.35,-0.26 0.75,-0.36 1.21,-0.3 -0.05,-2.06 -0.81,-3.52 -2.21,-4.27 0.1,1.05 -0.1,2.16 -0.4,3.21 -1.41,-0.55 -2.97,-0.75 -4.67,-0.65l-2.21 0c-1.56,-0.4 -2.81,-0.15 -3.87,0.65zm-1.7 0.05l0 0 0.65 0 0.8 0.65 0 0.4 -0.65 0 -0.8 -1.05zm4.37 -0.45l0 0 0 0.45 -1.01 0.9 -1.05 0 0 -0.75 1.25 -0.6 0.81 0zm7.88 2.31l0 0 0 -1.11 1.25 -1.5 0.15 1.7 -0.65 0.91 -0.75 0zm-0.1 3.31l0 0 0.85 0 1.15 0.4 0.51 0.6 0.25 -0.65 1.7 0.2 0.25 1.36 -3.56 0 -1.61 -0.91 0 -0.5 0.46 -0.5zm0.7 -1.5l0 0 1.5 -0.31 -1.15 0.96 -0.35 -0.65zm-3.42 -2.21l0 0 0 0.55 -0.85 0.7 0 0.3 1.31 0 -0.46 0.76 -1.55 2.96 -0.2 0.75 0.75 0.3 1.31 -1.25 0.8 0 -0.8 1.95 0 1.86 0.6 1.01 0.15 1.4 -1.11 2.31 -2 0 0 -0.55 2.2 -1.36c0,-0.4 -0.35,-0.7 -1,-0.85 -0.65,0.6 -1.55,0.95 -2.76,1.05 -0.65,-0.1 -1.3,-0.4 -1.91,-0.9 -0.55,0.1 -0.85,0.45 -0.85,0.9l1.61 1.11 0 0.6 -1.61 0c-0.6,-0.1 -0.95,-0.3 -1.15,-0.6l0 -2.36 1.8 -2.56 0.3 -2.11 -0.95 -1.26 -0.2 -0.8 -0.91 0 0 -0.7 1.41 -0.95 1.86 0 0 -1.26 -0.7 -0.65 -1.71 0.15 2.46 -1.31 0.55 0 0.8 0.25 0.81 -0.3 0.75 0 1.25 0.86zm-6.82 1.8l0 0 -0.4 0.66 -2.76 -1.16 2.61 0 0.55 0.5zm-3.92 0.91l0 0 1.31 0 0.35 0.35 0 0.75 -3.06 1.51 -3.12 0 -0.95 -1.31 1.16 -0.35 3.51 0 0.8 -0.95z"/>
  <path class="fil0" d="M2.24 -118.33l-4.61 -2.76 0.65 6.68 0.6 1.1 1.41 1.51 0.2 2.66 1.75 1.4 1.06 0.66 1.61 2 1.5 0.61 2.16 0 0.35 -0.2 1.05 0 0.41 0.15 2.76 0 4.97 -3.82 -0.15 -2.41 -1.56 -2.36 -1.41 0 -0.85 -0.55 -1 -1.46 0 -1.4 1.05 -2.61 -1 -2.21 -2.71 1.76 -1.06 -0.2 -4.51 0 -1.71 1.15 -0.96 0.3zm-1.45 -0.35l0 0 1.35 1.46 0.86 1.6 0.55 -0.3 0 -2.11 1.76 0 0.9 -1.3 1.41 0 0.35 0.25 0.5 -0.3 1.05 0.2 1.61 1.55 1.15 1.56 0.36 1.51 1.8 2.2 -0.3 0.81 -1.35 0.7 -1.21 0 -0.55 0.3 0 1.41 -1.51 1.15 0.61 0.65 1.7 1.21 0 0.45 -1.76 -0.15 -0.9 -0.7 -0.85 0 -1.11 -1.81 0.31 1.71 -0.76 0 -0.75 -0.71 -0.4 0.46 -0.7 0 -1.06 -1.41 0 -0.75 -1.41 -1.16 0 -1.05 0.46 -0.35 -0.4 -0.3 0 -2.31 -1.46 -1.61 -0.7 -2.21 -0.35 -0.65 0.8 0zm-2.06 1.81l0 0 0.65 0.3 0 1.45 0.51 0.81 1 0 0.15 1.65 -0.7 0 -1.61 -2.1 0 -2.11zm4.27 7.98l0 0 0 0.6 -0.71 0 -1 -0.95 0 -0.86 0.5 0.1 1.21 1.11zm8.08 -10.04l0 0 0 -0.6 0.9 -0.61 0.76 -0.15 -0.16 1.21 -0.95 0.75 -0.55 -0.6zm4.82 6.88l0 0 0.35 0 0.6 0.65 0 0.65 -0.55 0.65 0 1.11 1.2 0.35 0 0.35 -1.1 1.01 -2.01 0 -0.65 -0.81 0 -1.8 0.25 -0.66 1.91 -1.5z"/>
  <polygon class="fil0" points="5.56,-113.66 7.67,-113.41 8.42,-114.01 7.67,-114.76 6.36,-114.91 5.56,-114.31 "/>
  <polygon class="fil0" points="14.34,-109.59 14.34,-108.64 14.94,-108.39 15.55,-108.79 15.55,-109.59 14.74,-110.2 "/>
  <path class="fil0" d="M43.25 -118.08l0 0.81 1.41 1.15 0.3 3.76 -0.9 1.31 -1.21 1.16 -0.25 1 0 1.81 0.3 0.8 2.46 1.81 0.81 0.35 0.45 -0.2 0.75 0 0.9 0.6 1.46 -0.55 1.56 0 0.5 0.25 1.85 0 1.46 0.9 1 0.35 0.81 0.76 1.15 -0.25 1.06 -0.91 0 -0.7 -0.56 -0.2 -1.15 0.35 0.2 -1.11 -1.05 -0.15 -0.61 0.36 -1 0 -0.45 -0.26 -1.66 -0.25 0.25 -0.7 1.76 -1.3 1.36 -0.51 1.45 -1.2 0.25 -2.06 -0.65 0.65 -0.95 1.46 -1.26 0.2 -2.71 2.06 -0.5 0.8 -0.75 0 -0.56 -0.9 0 -1.16 0.81 -1.15 -0.56 0 -0.55 0.7 -1 -0.8 -1.06 0.75 -1.25 0 -1.06 0.8 -0.9 -0.15 -0.95 -0.95 -0.5 -0.95 1.05 -0.96 0.8 0.65 1.76 0 2.36 -1.85 0.35 -2.91 3.01 -3.42 0.15 -0.8 -0.65 -0.75 0.95 -1.01 2.01 0 0.8 0.56 0 0.85 -0.8 0.65 0.4 0.6 0.81 -0.6 0.85 0 -0.3 0.75 -1.31 0.91 0.46 0.75 2.25 -0.45 2.66 0 0.61 0.9 -0.76 0.81 -2.86 0.3 -1.05 -0.56 -0.4 0 1.35 1.11 3.42 -0.4 1.1 -1.21 0.75 0.25 -0.85 -1.9 -1.31 -1.06 -3.91 -1.55 -1.41 -1.46 -2.56 -0.1 -4.81 0.25 -0.66 0.65 -1.25 0 -0.91 1.01 -0.95 0 -0.65 -0.25 -1.46 0.4 0.7 1.3zm0.71 -0.35l0 0 0.05 -0.65 1.05 0 0.45 0.65 -0.45 0.4 -1.1 -0.4zm5.67 -1.96l0 0 -1 0.66 0 -0.76 1 0.1zm-1.56 1.86l0 0 1.41 0.35 1.81 -0.9 0.9 0.25 0 0.85 -2.26 2.16 -0.7 1.16 -0.25 2.56 -2.11 1.8 -0.95 0 -0.81 -0.45 -0.15 -0.7 0.75 -1.21 0.61 -2.05 0.15 -3.32 1.6 -0.5z"/>
  <polygon class="fil0" points="51.79,-115.67 51.04,-115.01 51.29,-113.06 52.84,-113.91 53.9,-114.97 52.94,-115.57 "/>
  <g id="_2331931111248">
   <path class="fil0" d="M34.51 1.8c-3.69,0 -6.86,1.31 -9.48,3.92 -2.61,2.62 -3.96,5.75 -3.96,9.44 0,3.72 1.35,6.85 3.96,9.47 0.28,0.24 0.56,0.52 0.84,0.79 0.39,0.28 0.75,0.6 1.11,0.92 1.3,1.14 2.02,2.06 2.1,2.77l0 1.74c-0.64,-1.11 -1.43,-2.18 -2.38,-3.13 -0.52,-0.51 -1.07,-0.99 -1.63,-1.38 -2.1,-1.55 -4.52,-2.42 -7.17,-2.5 -0.24,-0.04 -0.52,-0.04 -0.71,0 -3.73,0 -6.9,1.27 -9.48,3.88 -2.65,2.58 -3.96,5.75 -3.96,9.44 0,3.72 1.31,6.89 3.96,9.47 2.58,2.62 5.75,3.88 9.48,3.92 3.68,-0.04 6.85,-1.3 9.51,-3.92 0.95,-0.99 1.74,-2.1 2.38,-3.37l0 23.43 -25.97 0.04 0 1.47 243.71 -0.04 0 -1.54 -207.4 0.07 0 -23.39c0.64,1.19 1.47,2.3 2.5,3.33 2.61,2.62 5.79,3.88 9.51,3.92 3.69,-0.04 6.86,-1.3 9.52,-3.92 2.57,-2.58 3.88,-5.75 3.88,-9.47 0,-3.69 -1.31,-6.86 -3.88,-9.44 -2.66,-2.61 -5.83,-3.88 -9.52,-3.88 -0.83,0 -1.62,0.04 -2.38,0.2 -2.02,0.27 -3.88,1.07 -5.51,2.3 -0.59,0.39 -1.11,0.87 -1.62,1.38 -1.03,1.03 -1.86,2.14 -2.5,3.33l0 -1.94c0.32,-0.79 1.15,-1.7 2.5,-2.77 0.36,-0.32 0.75,-0.6 1.23,-0.92 0.27,-0.27 0.59,-0.55 0.87,-0.79 2.62,-2.62 3.92,-5.75 3.92,-9.47 0,-3.69 -1.3,-6.82 -3.92,-9.44 -2.62,-2.61 -5.79,-3.92 -9.51,-3.92zm-8.49 4.95l0 0c2.34,-2.34 5.2,-3.52 8.49,-3.52 3.33,0 6.14,1.18 8.48,3.52 2.34,2.3 3.49,5.12 3.53,8.41 -0.04,3.33 -1.19,6.14 -3.53,8.48 -0.71,0.67 -1.47,1.27 -2.26,1.78 -0.48,0.28 -0.87,0.6 -1.23,0.92 -0.91,0.83 -1.43,1.74 -1.5,2.77l0 4.24c0,0.24 0.11,0.44 0.31,0.59 0,0.05 0.04,0.05 0.08,0.09 0.16,0.11 0.36,0.19 0.64,0.19 0.15,0 0.31,0 0.43,-0.08 0,0 0.04,0 0.08,-0.04 0.08,-0.04 0.12,-0.07 0.16,-0.16 0.08,-0.04 0.16,-0.15 0.2,-0.19 0.04,-0.16 0.08,-0.24 0.08,-0.36 0.59,-1.74 1.58,-3.25 2.97,-4.68 1.03,-1.03 2.14,-1.82 3.37,-2.37 0.87,-0.44 1.74,-0.72 2.73,-0.88 0.76,-0.16 1.55,-0.24 2.38,-0.24 3.29,0 6.15,1.19 8.44,3.49 2.34,2.34 3.49,5.16 3.53,8.45 -0.04,3.33 -1.19,6.14 -3.53,8.44 -2.29,2.34 -5.15,3.49 -8.44,3.49 -3.33,0 -6.14,-1.15 -8.48,-3.49 -1.47,-1.43 -2.46,-3.09 -3.01,-4.92 -0.04,-0.07 -0.08,-0.19 -0.12,-0.27 -0.04,-0.12 -0.08,-0.2 -0.16,-0.24 -0.08,-0.08 -0.12,-0.16 -0.2,-0.16 -0.16,-0.12 -0.32,-0.12 -0.51,-0.12 -0.24,0 -0.48,0.08 -0.64,0.24l-0.04 0.04c-0.16,0.16 -0.27,0.36 -0.27,0.63l0 25.89 -7.5 0 0 -26.16c-0.08,-0.12 -0.12,-0.24 -0.23,-0.36 0,0 0,0 0,0 -0.2,-0.2 -0.4,-0.28 -0.68,-0.28 -0.2,0 -0.4,0.04 -0.51,0.2 -0.08,0 -0.12,0 -0.12,0.08 -0.12,0.04 -0.2,0.16 -0.24,0.28 -0.04,0.08 -0.04,0.12 -0.04,0.19 -0.55,1.83 -1.59,3.49 -3.01,4.96 -2.34,2.34 -5.2,3.49 -8.48,3.49 -3.33,0 -6.15,-1.15 -8.49,-3.49 -2.34,-2.3 -3.53,-5.11 -3.53,-8.44 0,-3.29 1.19,-6.11 3.53,-8.45 2.34,-2.3 5.16,-3.49 8.49,-3.49 0.19,0 0.47,0 0.71,0.05 1.54,0.07 3.01,0.43 4.36,1.07 1.23,0.55 2.38,1.34 3.41,2.37 1.35,1.39 2.34,2.94 2.89,4.68 0.04,0.12 0.08,0.24 0.12,0.36 0.04,0.08 0.12,0.15 0.2,0.19 0,0.05 0.08,0.09 0.12,0.12 0.16,0.12 0.35,0.16 0.55,0.16 0.28,0 0.48,-0.08 0.68,-0.23l0 -0.05c0.15,-0.11 0.19,-0.19 0.27,-0.35l0 -4.48c0,-0.83 -0.43,-1.7 -1.34,-2.77 -0.28,-0.32 -0.56,-0.64 -0.88,-0.92 -0.79,-0.51 -1.54,-1.11 -2.26,-1.78 -2.3,-2.34 -3.48,-5.15 -3.48,-8.48 0,-3.29 1.18,-6.11 3.48,-8.41z"/>
   <path class="fil0" d="M31.19 10c-0.44,-0.43 -0.91,-0.79 -1.51,-0.99 0.08,-0.59 -0.04,-1.19 -0.28,-1.74 -1.07,0.83 -1.3,1.98 -0.75,3.49l-0.47 0.59 -1.75 0 -3.01 1.83 0 1.66 1.07 0.99 3.21 0 2.42 -0.99c0.39,0.63 0.55,1.31 0.59,2.1 0.08,0.56 0.28,1.07 0.6,1.55 0.12,0.31 0,0.63 -0.32,1.03l0 3.17 2.26 0.95 2.65 0 0.88 -0.56c0.79,-0.15 1.15,-0.55 1.11,-1.22l0.71 -1.95 -0.28 -1.15c0.28,-0.75 0.8,-1.22 1.59,-1.42l0 -1.23 3.64 0c1.04,0 1.67,-0.36 1.95,-1.07 -0.8,-1.59 -1.83,-2.7 -3.17,-3.37 -0.24,0.32 -0.48,0.55 -0.76,0.67 -0.12,-0.39 -0.39,-0.83 -0.79,-1.27 0.28,-0.19 0.6,-0.27 0.95,-0.23 -0.04,-1.63 -0.63,-2.78 -1.74,-3.37 0.08,0.83 -0.08,1.7 -0.32,2.53 -1.11,-0.43 -2.34,-0.59 -3.69,-0.51l-1.74 0c-1.23,-0.32 -2.22,-0.12 -3.05,0.51zm-1.35 0.04l0 0 0.52 0 0.63 0.52 0 0.32 -0.52 0 -0.63 -0.84zm3.45 -0.35l0 0 0 0.35 -0.79 0.72 -0.84 0 0 -0.6 0.99 -0.47 0.64 0zm6.22 1.82l0 0 0 -0.87 0.99 -1.19 0.12 1.35 -0.51 0.71 -0.6 0zm-0.08 2.62l0 0 0.68 0 0.91 0.31 0.39 0.48 0.2 -0.52 1.35 0.16 0.2 1.07 -2.82 0 -1.26 -0.71 0 -0.4 0.35 -0.39zm0.56 -1.19l0 0 1.19 -0.24 -0.91 0.75 -0.28 -0.51zm-2.7 -1.75l0 0 0 0.44 -0.67 0.55 0 0.24 1.03 0 -0.36 0.6 -1.23 2.34 -0.16 0.59 0.6 0.24 1.03 -0.99 0.63 0 -0.63 1.54 0 1.47 0.48 0.79 0.11 1.11 -0.87 1.83 -1.58 0 0 -0.44 1.74 -1.07c0,-0.32 -0.28,-0.56 -0.79,-0.67 -0.52,0.47 -1.23,0.75 -2.18,0.83 -0.52,-0.08 -1.03,-0.32 -1.51,-0.72 -0.43,0.08 -0.67,0.36 -0.67,0.72l1.27 0.87 0 0.48 -1.27 0c-0.48,-0.08 -0.76,-0.24 -0.91,-0.48l0 -1.86 1.42 -2.03 0.24 -1.66 -0.75 -0.99 -0.16 -0.63 -0.71 0 0 -0.56 1.11 -0.75 1.46 0 0 -0.99 -0.55 -0.52 -1.35 0.12 1.94 -1.03 0.44 0 0.63 0.2 0.64 -0.24 0.59 0 0.99 0.67zm-5.39 1.43l0 0 -0.32 0.52 -2.18 -0.92 2.07 0 0.43 0.4zm-3.09 0.71l0 0 1.03 0 0.28 0.28 0 0.6 -2.42 1.18 -2.46 0 -0.75 -1.03 0.91 -0.27 2.78 0 0.63 -0.76z"/>
   <path class="fil0" d="M13.03 32.44l-3.64 -2.18 0.51 5.27 0.48 0.87 1.11 1.19 0.16 2.1 1.38 1.11 0.84 0.52 1.26 1.58 1.19 0.48 1.71 0 0.28 -0.16 0.83 0 0.32 0.12 2.18 0 3.92 -3.01 -0.12 -1.91 -1.23 -1.86 -1.11 0 -0.67 -0.43 -0.79 -1.15 0 -1.11 0.83 -2.07 -0.8 -1.74 -2.14 1.39 -0.83 -0.16 -3.57 0 -1.34 0.91 -0.76 0.24zm-1.15 -0.28l0 0 1.07 1.15 0.68 1.27 0.43 -0.24 0 -1.66 1.39 0 0.71 -1.03 1.11 0 0.28 0.19 0.4 -0.23 0.83 0.16 1.27 1.22 0.91 1.23 0.28 1.19 1.43 1.75 -0.24 0.63 -1.07 0.56 -0.95 0 -0.44 0.23 0 1.11 -1.19 0.92 0.48 0.51 1.34 0.95 0 0.36 -1.38 -0.12 -0.72 -0.56 -0.67 0 -0.87 -1.42 0.24 1.35 -0.6 0 -0.59 -0.56 -0.32 0.36 -0.56 0 -0.83 -1.11 0 -0.6 -1.11 -0.91 0 -0.83 0.36 -0.28 -0.32 -0.24 0 -1.82 -1.15 -1.27 -0.55 -1.74 -0.28 -0.52 0.63 0zm-1.62 1.43l0 0 0.51 0.24 0 1.15 0.4 0.63 0.79 0 0.12 1.31 -0.55 0 -1.27 -1.67 0 -1.66zm3.37 6.3l0 0 0 0.48 -0.56 0 -0.79 -0.76 0 -0.67 0.4 0.08 0.95 0.87zm6.38 -7.93l0 0 0 -0.47 0.71 -0.48 0.6 -0.12 -0.12 0.95 -0.75 0.6 -0.44 -0.48zm3.81 5.43l0 0 0.27 0 0.48 0.52 0 0.51 -0.44 0.52 0 0.87 0.95 0.28 0 0.28 -0.87 0.79 -1.58 0 -0.52 -0.64 0 -1.42 0.2 -0.52 1.51 -1.19z"/>
   <polygon class="fil0" points="15.65,36.13 17.32,36.32 17.91,35.85 17.32,35.25 16.28,35.13 15.65,35.61 "/>
   <polygon class="fil0" points="22.59,39.34 22.59,40.09 23.06,40.29 23.54,39.97 23.54,39.34 22.9,38.86 "/>
   <path class="fil0" d="M45.42 32.64l0 0.63 1.11 0.91 0.24 2.98 -0.72 1.03 -0.95 0.91 -0.2 0.79 0 1.43 0.24 0.63 1.94 1.43 0.64 0.28 0.35 -0.16 0.6 0 0.71 0.47 1.15 -0.43 1.23 0 0.4 0.2 1.46 0 1.15 0.71 0.8 0.28 0.63 0.59 0.91 -0.2 0.83 -0.71 0 -0.56 -0.43 -0.15 -0.91 0.27 0.15 -0.87 -0.83 -0.12 -0.47 0.28 -0.8 0 -0.35 -0.2 -1.31 -0.2 0.2 -0.55 1.38 -1.03 1.07 -0.4 1.15 -0.95 0.2 -1.62 -0.51 0.51 -0.76 1.15 -0.99 0.16 -2.14 1.62 -0.39 0.64 -0.6 0 -0.43 -0.71 0 -0.92 0.63 -0.91 -0.44 0 -0.43 0.56 -0.8 -0.64 -0.83 0.6 -0.99 0 -0.83 0.63 -0.71 -0.12 -0.76 -0.75 -0.39 -0.75 0.83 -0.76 0.63 0.52 1.39 0 1.86 -1.47 0.28 -2.3 2.38 -2.69 0.12 -0.64 -0.52 -0.59 0.76 -0.79 1.58 0 0.64 0.43 0 0.68 -0.64 0.51 0.32 0.48 0.63 -0.48 0.68 0 -0.24 0.59 -1.03 0.72 0.35 0.59 1.79 -0.35 2.1 0 0.47 0.71 -0.59 0.63 -2.26 0.24 -0.83 -0.43 -0.32 0 1.07 0.87 2.7 -0.32 0.87 -0.95 0.59 0.2 -0.67 -1.51 -1.03 -0.83 -3.09 -1.23 -1.11 -1.15 -2.02 -0.08 -3.81 0.2 -0.51 0.51 -1 0 -0.71 0.8 -0.75 0 -0.52 -0.2 -1.15 0.32 0.56 1.03zm0.55 -0.28l0 0 0.04 -0.52 0.84 0 0.35 0.52 -0.35 0.32 -0.88 -0.32zm4.48 -1.55l0 0 -0.79 0.52 0 -0.6 0.79 0.08zm-1.23 1.47l0 0 1.11 0.28 1.43 -0.72 0.71 0.2 0 0.68 -1.78 1.7 -0.56 0.91 -0.19 2.02 -1.67 1.43 -0.75 0 -0.64 -0.36 -0.11 -0.55 0.59 -0.95 0.48 -1.63 0.12 -2.61 1.26 -0.4z"/>
   <polygon class="fil0" points="52.16,34.54 51.56,35.06 51.76,36.6 52.99,35.93 53.82,35.1 53.07,34.62 "/>
   <g>
    <polygon class="fil2" points="246.22,64.12 246.48,63.19 245.62,63.19 245.29,64.12 "/>
    <polygon class="fil2" points="245.42,56.82 244.83,56.82 242.31,64.12 242.9,64.12 "/>
    <path class="fil2" d="M239.26 58.74l-0.14 0c-0.33,-0.06 -0.66,0 -0.99,0.27 -0.33,0.13 -0.6,0.4 -0.86,0.73l0.33 -0.93 -0.6 0 -1.85 5.31 0.59 0 1 -2.92c0.26,-0.6 0.53,-1.06 0.93,-1.39 0.33,-0.27 0.72,-0.47 1.26,-0.47l0.13 0 0.2 -0.6z"/>
    <polygon class="fil2" points="239.39,63.19 239.06,64.12 239.99,64.12 240.32,63.19 "/>
    <path class="fil2" d="M230.9 59.14c-0.26,-0.26 -0.73,-0.46 -1.32,-0.4 -0.53,-0.06 -1,0.14 -1.46,0.4 -0.47,0.27 -0.73,0.67 -0.86,1.13 -0.2,0.4 -0.14,0.73 0.13,0.93 0.2,0.2 0.6,0.33 1.26,0.6 0.53,0.06 0.79,0.19 0.93,0.26 0.19,0.13 0.26,0.4 0.19,0.66 -0.13,0.33 -0.33,0.53 -0.66,0.73 -0.33,0.2 -0.66,0.27 -1.12,0.33 -0.4,-0.06 -0.73,-0.2 -0.87,-0.39 -0.2,-0.2 -0.26,-0.53 -0.13,-0.87l-0.6 0c-0.2,0.53 -0.2,0.93 0.14,1.26 0.2,0.34 0.66,0.53 1.26,0.53 0.66,0 1.19,-0.19 1.65,-0.46 0.47,-0.27 0.8,-0.6 0.93,-1.06 0.13,-0.46 0.13,-0.8 -0.06,-0.99 -0.2,-0.2 -0.54,-0.4 -1.07,-0.53l-0.19 -0.07c-0.53,-0.13 -0.87,-0.27 -1,-0.33 -0.2,-0.2 -0.26,-0.4 -0.13,-0.73 0.07,-0.27 0.26,-0.47 0.53,-0.6 0.26,-0.27 0.53,-0.33 0.93,-0.33 0.39,0 0.66,0.06 0.93,0.33 0.13,0.2 0.19,0.53 0.06,0.86l0.66 0c0.14,-0.53 0.07,-0.99 -0.13,-1.26z"/>
    <polygon class="fil2" points="233.22,63.19 232.23,63.19 231.9,64.12 232.89,64.12 "/>
    <g>
     <polygon class="fil0" points="199.48,20.53 198.29,20.53 198.29,28.22 191.46,20.53 190.13,20.53 190.13,29.68 191.33,29.68 191.33,21.92 198.16,29.68 199.48,29.68 "/>
     <polygon class="fil0" points="201.67,21.26 205.71,21.26 205.71,29.68 206.91,29.68 206.91,21.26 211.02,21.26 211.02,20.53 201.67,20.53 "/>
     <polygon class="fil0" points="175.28,20.53 173.56,20.53 169.58,28.35 165.6,20.53 163.87,20.53 163.87,29.68 165.07,29.68 165.07,21.79 169.05,29.68 170.04,29.68 174.09,21.79 174.09,29.68 175.28,29.68 "/>
     <polygon class="fil0" points="179.86,21.26 187.28,21.26 187.28,20.53 178.6,20.53 178.6,29.68 187.48,29.68 187.48,28.88 179.86,28.88 179.86,25.3 186.62,25.3 186.62,24.57 179.86,24.57 "/>
     <polygon class="fil0" points="160.56,20.53 159.3,20.53 159.3,29.68 160.56,29.68 "/>
     <path class="fil0" d="M141.99 20.53l-1.45 0 -5.04 9.15 1.26 0 1.52 -2.79 5.97 0 1.46 2.79 1.26 0 -4.98 -9.15zm-0.79 0.93l0 0 2.58 4.64 -5.03 0 2.45 -4.64z"/>
     <polygon class="fil0" points="150.48,20.53 149.29,20.53 149.29,29.68 157.24,29.68 157.24,28.88 150.48,28.88 "/>
     <path class="fil0" d="M114.48 22.98c0,-0.46 -0.14,-0.86 -0.47,-1.26 -0.26,-0.33 -0.66,-0.6 -1.19,-0.8 -0.46,-0.19 -0.86,-0.33 -1.53,-0.33 -0.39,-0.06 -0.99,-0.06 -1.85,-0.06l-4.38 0 0 9.15 1.19 0 0 -4.11 3.85 0c1.06,0 1.79,0.13 2.12,0.39 0.27,0.2 0.47,0.73 0.6,1.53l0.13 1.26c0.07,0.2 0.07,0.4 0.07,0.53 0.07,0.13 0.13,0.26 0.2,0.4l1.39 0 0 -0.14c-0.13,-0.06 -0.27,-0.19 -0.33,-0.33 -0.07,-0.13 -0.07,-0.26 -0.13,-0.46l-0.14 -1.39c-0.13,-0.73 -0.26,-1.2 -0.39,-1.4 -0.27,-0.39 -0.67,-0.66 -1.26,-0.73 0.66,-0.19 1.19,-0.46 1.52,-0.86 0.4,-0.33 0.6,-0.86 0.6,-1.39zm-2.26 -1.39l0 0c0.33,0.13 0.6,0.33 0.73,0.59 0.14,0.27 0.27,0.54 0.27,0.8 0,0.66 -0.33,1.19 -0.86,1.46 -0.54,0.26 -1.4,0.4 -2.66,0.4l-3.45 0 0 -3.58 3.45 0c0.6,0 1.13,0 1.4,0.06 0.46,0.07 0.86,0.14 1.12,0.27z"/>
     <path class="fil0" d="M122.3 20.33c-1.66,-0.07 -3.05,0.4 -4.04,1.26 -1.06,0.86 -1.6,2.05 -1.6,3.51 0,1.46 0.54,2.65 1.6,3.52 0.99,0.86 2.38,1.32 4.04,1.32 1.79,0 3.18,-0.46 4.24,-1.32 1.07,-0.87 1.6,-1.99 1.6,-3.52 0,-1.46 -0.53,-2.65 -1.6,-3.51 -1.06,-0.86 -2.45,-1.33 -4.24,-1.26zm-3.18 1.79l0 0c0.79,-0.73 1.85,-1.06 3.18,-1.06 1.39,0 2.52,0.33 3.32,1.06 0.92,0.73 1.32,1.72 1.32,2.98 0,1.26 -0.4,2.26 -1.32,2.99 -0.8,0.66 -1.93,1.06 -3.32,1.06 -1.33,0 -2.39,-0.4 -3.18,-1.06 -0.86,-0.73 -1.26,-1.73 -1.26,-2.99 0,-1.26 0.4,-2.25 1.26,-2.98z"/>
     <path class="fil0" d="M96.44 21.06c1,0 1.86,0.2 2.52,0.53 0.73,0.4 1.13,0.93 1.39,1.59l1.2 0c-0.2,-0.93 -0.73,-1.59 -1.66,-2.12 -0.93,-0.53 -2.12,-0.73 -3.45,-0.73 -1.72,-0.07 -3.05,0.33 -4.11,1.19 -1.06,0.86 -1.59,2.06 -1.59,3.58 0,1.46 0.53,2.65 1.59,3.52 1.06,0.86 2.39,1.32 3.98,1.32 0.93,0 1.79,-0.2 2.52,-0.53 0.8,-0.33 1.39,-0.73 1.86,-1.26l0.06 1.53 1 0 0 -4.71 -5.24 0 0 0.8 4.04 0c0,1.06 -0.39,1.92 -1.19,2.52 -0.73,0.59 -1.79,0.86 -3.12,0.86 -1.26,0 -2.25,-0.33 -3.11,-1.06 -0.73,-0.8 -1.06,-1.79 -1.06,-2.99 0,-1.32 0.33,-2.32 1.06,-3.05 0.86,-0.66 1.92,-0.99 3.31,-0.99z"/>
     <path class="fil0" d="M84.04 20.53l-1.39 0 -4.97 9.15 1.19 0 1.53 -2.79 5.9 0 1.46 2.79 1.32 0 -5.04 -9.15zm1.86 5.57l0 0 -5.11 0 2.52 -4.64 2.59 4.64z"/>
     <polygon class="fil0" points="246.63,21.26 246.63,20.53 238.01,20.53 238.01,29.68 246.82,29.68 246.82,28.88 239.2,28.88 239.2,25.3 245.96,25.3 245.96,24.57 239.2,24.57 239.2,21.26 "/>
     <path class="fil0" d="M230.18 20.53l-4.44 0 0 9.15 1.19 0 0 -4.11 3.85 0c1.06,0 1.72,0.13 2.12,0.39 0.27,0.2 0.53,0.73 0.6,1.53l0.13 1.26c0.07,0.2 0.07,0.4 0.07,0.53 0.06,0.13 0.13,0.26 0.26,0.4l1.26 0 0 -0.14c-0.07,-0.06 -0.2,-0.19 -0.26,-0.33 -0.07,-0.13 -0.07,-0.26 -0.14,-0.46l-0.13 -1.39c-0.13,-0.73 -0.2,-1.2 -0.4,-1.4 -0.26,-0.39 -0.66,-0.66 -1.26,-0.73 0.67,-0.19 1.2,-0.46 1.53,-0.86 0.4,-0.33 0.59,-0.86 0.59,-1.39 0,-0.46 -0.13,-0.86 -0.46,-1.26 -0.27,-0.33 -0.66,-0.6 -1.19,-0.8 -0.4,-0.19 -0.86,-0.33 -1.53,-0.33 -0.4,-0.06 -0.99,-0.06 -1.79,-0.06zm-3.25 0.73l0 0 3.45 0c0.66,0 1.13,0 1.39,0.06 0.47,0.07 0.87,0.14 1.13,0.27 0.33,0.13 0.6,0.33 0.73,0.59 0.2,0.27 0.26,0.54 0.26,0.8 0,0.66 -0.26,1.19 -0.79,1.46 -0.6,0.26 -1.46,0.4 -2.65,0.4l-3.52 0 0 -3.58z"/>
     <path class="fil0" d="M218.51 20.53l-1.46 0 -5.04 9.15 1.26 0 1.53 -2.79 5.97 0 1.46 2.79 1.25 0 -4.97 -9.15zm1.79 5.57l0 0 -5.04 0 2.46 -4.64 2.58 4.64z"/>
    </g>
    <g>
     <polygon class="fil0" points="133.04,35.05 127.81,35.05 127.81,43.07 121.11,35.05 116,35.05 116,49.44 121.11,49.44 121.11,41.55 127.81,49.44 133.04,49.44 "/>
     <path class="fil0" d="M108.38 49.44l5.77 0 -6.64 -14.39 -6.1 0 -6.63 14.39 5.57 0 0.93 -2.32 6.23 0 0.87 2.32zm-3.98 -10.61l0 0 1.92 5.1 -3.84 0 1.92 -5.1z"/>
     <path class="fil0" d="M81.46 35.38c-1.13,0.33 -1.93,0.86 -2.39,1.59 -0.53,0.66 -0.86,1.33 -0.8,2.06 -0.06,1.12 0.47,2.05 1.53,2.78 0.99,0.73 2.72,1.33 5.24,1.79 1.46,0.2 2.45,0.53 2.78,0.8 0.4,0.26 0.6,0.59 0.66,0.99 -0.06,0.4 -0.33,0.73 -0.72,1.06 -0.4,0.27 -1.06,0.47 -1.79,0.47 -1.13,0 -1.93,-0.33 -2.46,-0.93 -0.33,-0.4 -0.6,-0.8 -0.66,-1.53l-5.24 0.27c0.13,1.39 0.86,2.65 1.92,3.58 1.2,0.93 3.32,1.39 6.3,1.46 1.79,0 3.25,-0.2 4.31,-0.6 1.2,-0.46 1.99,-1.06 2.65,-1.79 0.67,-0.86 1,-1.66 1,-2.59 0,-0.86 -0.27,-1.52 -0.73,-2.12 -0.53,-0.66 -1.26,-1.19 -2.25,-1.59 -1.06,-0.46 -2.79,-0.93 -5.24,-1.26 -1,-0.26 -1.59,-0.4 -1.79,-0.59 -0.27,-0.27 -0.4,-0.4 -0.4,-0.6 0,-0.33 0.13,-0.53 0.46,-0.8 0.34,-0.2 0.73,-0.39 1.46,-0.39 0.73,0 1.33,0.19 1.86,0.46 0.33,0.33 0.66,0.8 0.86,1.46l5.11 -0.2c-0.2,-1.53 -0.87,-2.59 -2.06,-3.25 -1.26,-0.73 -2.98,-1.06 -5.24,-1.06 -1.92,0 -3.38,0.13 -4.37,0.53z"/>
     <path class="fil0" d="M191.52 35.05l-9.15 0 0 14.39 5.57 0 0 -5.77 0.4 0c0.53,0 1,0.06 1.4,0.26 0.19,0.27 0.59,0.6 0.99,1.13l2.92 4.38 6.23 0 -2.65 -4.12c-0.14,-0.26 -0.4,-0.53 -0.73,-0.92 -0.4,-0.33 -0.73,-0.67 -0.93,-0.73 -0.33,-0.27 -0.73,-0.4 -1.46,-0.53 0.86,-0.13 1.46,-0.4 1.99,-0.6 0.66,-0.4 1.26,-0.86 1.72,-1.39 0.4,-0.6 0.6,-1.26 0.6,-2.12 0,-0.86 -0.26,-1.66 -0.79,-2.32 -0.54,-0.67 -1.33,-1.07 -2.19,-1.26 -0.93,-0.27 -2.19,-0.4 -3.92,-0.4zm-1.19 2.92l0 0c1,-0.07 1.66,0.13 2.06,0.33 0.39,0.2 0.53,0.59 0.53,1.12 0,0.34 -0.14,0.6 -0.4,0.87 -0.2,0.19 -0.47,0.33 -0.8,0.39 -0.79,0.2 -1.32,0.27 -1.52,0.27l-2.26 0 0 -2.98 2.39 0z"/>
     <path class="fil0" d="M165.53 47.12l0.93 2.32 5.77 0 -6.7 -14.39 -5.96 0 -6.77 14.39 5.64 0 0.93 -2.32 6.16 0zm-1.12 -3.19l0 0 -3.92 0 1.93 -5.1 1.99 5.1z"/>
     <polygon class="fil0" points="152.14,38.63 152.14,35.05 135.36,35.05 135.36,38.63 141,38.63 141,49.44 146.5,49.44 146.5,38.63 "/>
     <path class="fil0" d="M240.19 35.05l-5.96 0 -6.7 14.39 5.64 0 0.86 -2.32 6.16 0 0.93 2.32 5.77 0 -6.7 -14.39zm-1.06 8.88l0 0 -3.91 0 1.99 -5.1 1.92 5.1z"/>
     <polygon class="fil0" points="226.8,38.63 226.8,35.05 210.16,35.05 210.16,38.63 215.73,38.63 215.73,49.44 221.16,49.44 221.16,38.63 "/>
     <polygon class="fil0" points="207.37,35.05 201.87,35.05 201.87,49.44 207.37,49.44 "/>
    </g>
   </g>
  </g>
  <g id="_2331931112016">
   <path class="fil0" d="M252.22 -199.4c-5.22,0 -9.7,1.85 -13.41,5.55 -3.7,3.7 -5.6,8.14 -5.6,13.35 0,5.27 1.9,9.7 5.6,13.41 0.4,0.33 0.79,0.72 1.18,1.12 0.56,0.39 1.07,0.84 1.57,1.29 1.85,1.62 2.86,2.91 2.98,3.92l0 2.47c-0.9,-1.57 -2.02,-3.08 -3.37,-4.43 -0.73,-0.73 -1.52,-1.4 -2.3,-1.96 -2.97,-2.19 -6.39,-3.42 -10.15,-3.54 -0.34,-0.05 -0.73,-0.05 -1.01,0 -5.27,0 -9.76,1.8 -13.4,5.5 -3.76,3.64 -5.61,8.13 -5.61,13.35 0,5.27 1.85,9.75 5.61,13.4 3.64,3.7 8.13,5.5 13.4,5.55 5.21,-0.05 9.7,-1.85 13.46,-5.55 1.35,-1.4 2.47,-2.97 3.37,-4.77l0 33.14 -36.74 0.07 0 2.08 344.8 -0.05 0 -2.19 -293.43 0.09 0 -33.08c0.9,1.68 2.08,3.25 3.53,4.71 3.71,3.7 8.19,5.5 13.46,5.55 5.22,-0.05 9.7,-1.85 13.46,-5.55 3.65,-3.65 5.5,-8.13 5.5,-13.4 0,-5.22 -1.85,-9.71 -5.5,-13.35 -3.76,-3.7 -8.24,-5.5 -13.46,-5.5 -1.17,0 -2.3,0.06 -3.36,0.28 -2.86,0.4 -5.5,1.52 -7.8,3.26 -0.84,0.56 -1.57,1.23 -2.3,1.96 -1.45,1.46 -2.63,3.03 -3.53,4.71l0 -2.75c0.45,-1.12 1.63,-2.41 3.53,-3.92 0.51,-0.45 1.07,-0.84 1.74,-1.29 0.39,-0.4 0.84,-0.79 1.24,-1.12 3.7,-3.71 5.55,-8.14 5.55,-13.41 0,-5.21 -1.85,-9.65 -5.55,-13.35 -3.7,-3.7 -8.19,-5.55 -13.46,-5.55zm-12 7.01l0 0c3.31,-3.31 7.34,-4.99 12,-4.99 4.71,0 8.69,1.68 12,4.99 3.31,3.25 4.93,7.24 4.99,11.89 -0.06,4.71 -1.68,8.69 -4.99,12 -1.01,0.96 -2.08,1.8 -3.2,2.53 -0.67,0.39 -1.23,0.84 -1.74,1.29 -1.29,1.17 -2.02,2.46 -2.13,3.92l0 6c0,0.34 0.17,0.62 0.45,0.84 0,0.06 0.06,0.06 0.11,0.12 0.23,0.16 0.51,0.28 0.9,0.28 0.22,0 0.45,0 0.62,-0.12 0,0 0.05,0 0.11,-0.05 0.11,-0.06 0.17,-0.11 0.22,-0.23 0.12,-0.05 0.23,-0.22 0.28,-0.28 0.06,-0.22 0.12,-0.33 0.12,-0.5 0.84,-2.47 2.24,-4.6 4.2,-6.62 1.46,-1.46 3.03,-2.58 4.77,-3.36 1.23,-0.62 2.47,-1.01 3.87,-1.24 1.06,-0.22 2.19,-0.33 3.36,-0.33 4.66,0 8.7,1.68 11.95,4.93 3.31,3.31 4.93,7.29 4.99,11.95 -0.06,4.71 -1.68,8.69 -4.99,11.94 -3.25,3.31 -7.29,4.94 -11.95,4.94 -4.71,0 -8.69,-1.63 -12,-4.94 -2.07,-2.02 -3.48,-4.37 -4.26,-6.95 -0.06,-0.12 -0.11,-0.28 -0.17,-0.4 -0.05,-0.16 -0.11,-0.28 -0.22,-0.33 -0.11,-0.12 -0.17,-0.23 -0.28,-0.23 -0.23,-0.16 -0.45,-0.16 -0.73,-0.16 -0.34,0 -0.68,0.11 -0.9,0.33l-0.06 0.06c-0.22,0.22 -0.39,0.5 -0.39,0.89l0 36.62 -10.6 0 0 -37.01c-0.11,-0.17 -0.17,-0.33 -0.33,-0.5 0,0 0,0 0,0 -0.28,-0.28 -0.56,-0.39 -0.96,-0.39 -0.28,0 -0.56,0.05 -0.72,0.27 -0.12,0 -0.17,0 -0.17,0.12 -0.17,0.05 -0.28,0.22 -0.34,0.39 -0.06,0.11 -0.06,0.17 -0.06,0.28 -0.78,2.58 -2.24,4.94 -4.26,7.01 -3.31,3.31 -7.35,4.94 -12,4.94 -4.71,0 -8.69,-1.63 -12,-4.94 -3.31,-3.25 -4.99,-7.23 -4.99,-11.94 0,-4.66 1.68,-8.64 4.99,-11.95 3.31,-3.25 7.29,-4.93 12,-4.93 0.28,0 0.67,0 1.01,0.05 2.19,0.11 4.26,0.62 6.17,1.52 1.74,0.78 3.36,1.9 4.82,3.36 1.91,1.96 3.31,4.15 4.1,6.62 0.05,0.17 0.11,0.33 0.16,0.5 0.06,0.12 0.17,0.23 0.28,0.28 0,0.06 0.12,0.12 0.17,0.17 0.23,0.17 0.51,0.23 0.79,0.23 0.39,0 0.67,-0.12 0.95,-0.34l0 -0.06c0.22,-0.16 0.28,-0.28 0.39,-0.5l0 -6.34c0,-1.18 -0.61,-2.41 -1.9,-3.92 -0.4,-0.45 -0.79,-0.9 -1.24,-1.29 -1.12,-0.73 -2.18,-1.57 -3.19,-2.53 -3.26,-3.31 -4.94,-7.29 -4.94,-12 0,-4.65 1.68,-8.64 4.94,-11.89z"/>
   <path class="fil0" d="M247.52 -187.79c-0.62,-0.62 -1.29,-1.12 -2.13,-1.4 0.11,-0.84 -0.06,-1.68 -0.39,-2.47 -1.52,1.18 -1.85,2.8 -1.07,4.94l-0.67 0.84 -2.47 0 -4.26 2.58 0 2.35 1.51 1.4 4.55 0 3.42 -1.4c0.56,0.9 0.78,1.85 0.84,2.98 0.11,0.78 0.39,1.51 0.84,2.18 0.17,0.45 0,0.9 -0.45,1.46l0 4.49 3.2 1.34 3.76 0 1.23 -0.78c1.12,-0.23 1.63,-0.79 1.57,-1.74l1.01 -2.75 -0.39 -1.63c0.39,-1.06 1.12,-1.73 2.24,-2.01l0 -1.74 5.16 0c1.46,0 2.35,-0.51 2.75,-1.52 -1.12,-2.24 -2.58,-3.81 -4.49,-4.76 -0.34,0.45 -0.67,0.78 -1.07,0.95 -0.16,-0.56 -0.56,-1.18 -1.12,-1.79 0.4,-0.29 0.84,-0.4 1.35,-0.34 -0.06,-2.3 -0.9,-3.93 -2.47,-4.77 0.11,1.18 -0.11,2.41 -0.45,3.59 -1.57,-0.62 -3.31,-0.84 -5.21,-0.73l-2.47 0c-1.74,-0.45 -3.14,-0.17 -4.32,0.73zm-1.91 0.06l0 0 0.73 0 0.9 0.73 0 0.44 -0.73 0 -0.9 -1.17zm4.88 -0.51l0 0 0 0.51 -1.12 1.01 -1.18 0 0 -0.84 1.41 -0.68 0.89 0zm8.81 2.58l0 0 0 -1.23 1.4 -1.68 0.17 1.9 -0.73 1.01 -0.84 0zm-0.11 3.7l0 0 0.95 0 1.29 0.45 0.56 0.67 0.28 -0.72 1.91 0.22 0.28 1.51 -3.98 0 -1.8 -1.01 0 -0.56 0.51 -0.56zm0.78 -1.68l0 0 1.68 -0.34 -1.29 1.07 -0.39 -0.73zm-3.81 -2.47l0 0 0 0.62 -0.95 0.79 0 0.33 1.45 0 -0.5 0.84 -1.74 3.31 -0.22 0.84 0.84 0.34 1.45 -1.4 0.9 0 -0.9 2.18 0 2.08 0.68 1.12 0.17 1.57 -1.24 2.58 -2.24 0 0 -0.62 2.47 -1.51c0,-0.45 -0.4,-0.79 -1.12,-0.95 -0.73,0.67 -1.74,1.06 -3.09,1.17 -0.73,-0.11 -1.46,-0.44 -2.13,-1.01 -0.62,0.12 -0.95,0.51 -0.95,1.01l1.79 1.24 0 0.67 -1.79 0c-0.68,-0.11 -1.07,-0.34 -1.29,-0.67l0 -2.64 2.01 -2.86 0.34 -2.35 -1.06 -1.41 -0.23 -0.89 -1.01 0 0 -0.79 1.57 -1.06 2.08 0 0 -1.4 -0.79 -0.73 -1.9 0.16 2.74 -1.45 0.62 0 0.9 0.28 0.9 -0.34 0.84 0 1.4 0.95zm-7.63 2.02l0 0 -0.45 0.73 -3.08 -1.29 2.91 0 0.62 0.56zm-4.37 1.01l0 0 1.45 0 0.4 0.39 0 0.85 -3.42 1.68 -3.48 0 -1.07 -1.46 1.29 -0.39 3.93 0 0.9 -1.07z"/>
   <path class="fil0" d="M221.84 -156.05l-5.16 -3.08 0.73 7.46 0.67 1.23 1.57 1.68 0.22 2.97 1.97 1.57 1.18 0.73 1.79 2.25 1.68 0.67 2.41 0 0.4 -0.22 1.17 0 0.45 0.16 3.09 0 5.55 -4.26 -0.17 -2.69 -1.74 -2.64 -1.57 0 -0.95 -0.61 -1.12 -1.63 0 -1.57 1.17 -2.92 -1.12 -2.46 -3.03 1.96 -1.17 -0.22 -5.05 0 -1.91 1.29 -1.06 0.33zm-1.63 -0.39l0 0 1.51 1.63 0.96 1.79 0.62 -0.34 0 -2.35 1.96 0 1.01 -1.46 1.57 0 0.39 0.28 0.56 -0.34 1.18 0.23 1.79 1.74 1.29 1.74 0.4 1.68 2.01 2.47 -0.33 0.89 -1.52 0.79 -1.34 0 -0.62 0.33 0 1.57 -1.68 1.29 0.67 0.73 1.91 1.35 0 0.5 -1.97 -0.16 -1 -0.79 -0.96 0 -1.23 -2.02 0.34 1.91 -0.85 0 -0.84 -0.79 -0.45 0.51 -0.78 0 -1.18 -1.57 0 -0.84 -1.57 -1.29 0 -1.18 0.51 -0.39 -0.45 -0.34 0 -2.58 -1.63 -1.79 -0.78 -2.47 -0.4 -0.73 0.9 0zm-2.3 2.02l0 0 0.73 0.34 0 1.62 0.56 0.9 1.12 0 0.17 1.85 -0.78 0 -1.8 -2.36 0 -2.35zm4.77 8.91l0 0 0 0.68 -0.79 0 -1.12 -1.07 0 -0.95 0.56 0.11 1.35 1.23zm9.03 -11.21l0 0 0 -0.67 1.01 -0.68 0.84 -0.17 -0.17 1.35 -1.07 0.84 -0.61 -0.67zm5.38 7.68l0 0 0.39 0 0.68 0.73 0 0.73 -0.62 0.73 0 1.23 1.35 0.4 0 0.39 -1.24 1.12 -2.24 0 -0.73 -0.9 0 -2.02 0.28 -0.73 2.13 -1.68z"/>
   <polygon class="fil0" points="225.54,-150.83 227.89,-150.55 228.74,-151.23 227.89,-152.07 226.44,-152.23 225.54,-151.56 "/>
   <polygon class="fil0" points="235.35,-146.29 235.35,-145.22 236.03,-144.94 236.7,-145.39 236.7,-146.29 235.8,-146.96 "/>
   <path class="fil0" d="M267.65 -155.77l0 0.9 1.57 1.29 0.34 4.21 -1.01 1.45 -1.34 1.29 -0.28 1.12 0 2.02 0.33 0.9 2.75 2.02 0.9 0.39 0.5 -0.22 0.84 0 1.01 0.67 1.63 -0.61 1.74 0 0.56 0.27 2.07 0 1.63 1.01 1.12 0.4 0.9 0.84 1.29 -0.28 1.18 -1.01 0 -0.79 -0.62 -0.22 -1.29 0.39 0.22 -1.23 -1.17 -0.17 -0.68 0.39 -1.12 0 -0.5 -0.28 -1.85 -0.28 0.28 -0.78 1.96 -1.46 1.51 -0.56 1.63 -1.35 0.28 -2.3 -0.73 0.73 -1.07 1.63 -1.4 0.22 -3.03 2.3 -0.56 0.9 -0.84 0 -0.61 -1.01 0 -1.29 0.89 -1.29 -0.61 0 -0.62 0.78 -1.12 -0.89 -1.18 0.84 -1.4 0 -1.18 0.9 -1.01 -0.17 -1.06 -1.07 -0.56 -1.06 1.17 -1.07 0.9 0.73 1.96 0 2.64 -2.08 0.39 -3.25 3.37 -3.81 0.16 -0.9 -0.73 -0.84 1.07 -1.12 2.24 0 0.9 0.62 0 0.95 -0.9 0.73 0.45 0.67 0.9 -0.67 0.95 0 -0.33 0.84 -1.46 1.01 0.5 0.84 2.53 -0.5 2.97 0 0.67 1 -0.84 0.9 -3.2 0.34 -1.17 -0.62 -0.45 0 1.51 1.23 3.81 -0.44 1.24 -1.35 0.84 0.28 -0.95 -2.13 -1.46 -1.18 -4.38 -1.74 -1.57 -1.62 -2.86 -0.11 -5.38 0.28 -0.73 0.72 -1.4 0 -1.01 1.13 -1.07 0 -0.72 -0.28 -1.63 0.44 0.78 1.46zm0.79 -0.39l0 0 0.06 -0.73 1.17 0 0.51 0.73 -0.51 0.45 -1.23 -0.45zm6.34 -2.19l0 0 -1.12 0.73 0 -0.84 1.12 0.11zm-1.74 2.08l0 0 1.57 0.39 2.02 -1.01 1.01 0.28 0 0.95 -2.53 2.42 -0.78 1.29 -0.28 2.86 -2.36 2.02 -1.06 0 -0.9 -0.51 -0.17 -0.78 0.84 -1.35 0.68 -2.3 0.16 -3.7 1.8 -0.56z"/>
   <polygon class="fil0" points="277.19,-153.08 276.35,-152.35 276.63,-150.16 278.37,-151.11 279.54,-152.29 278.48,-152.96 "/>
   <g>
    <polygon class="fil2" points="551.75,-111.23 552.12,-112.55 550.9,-112.55 550.44,-111.23 "/>
    <polygon class="fil2" points="550.62,-121.55 549.78,-121.55 546.21,-111.23 547.06,-111.23 "/>
    <path class="fil2" d="M541.9 -118.83l-0.19 0c-0.47,-0.09 -0.94,0 -1.41,0.37 -0.46,0.19 -0.84,0.57 -1.21,1.04l0.46 -1.32 -0.84 0 -2.63 7.51 0.85 0 1.4 -4.13c0.38,-0.84 0.76,-1.5 1.32,-1.97 0.47,-0.37 1.03,-0.66 1.78,-0.66l0.19 0 0.28 -0.84z"/>
    <polygon class="fil2" points="542.09,-112.55 541.62,-111.23 542.93,-111.23 543.4,-112.55 "/>
    <path class="fil2" d="M530.08 -118.27c-0.38,-0.37 -1.03,-0.65 -1.88,-0.56 -0.75,-0.09 -1.4,0.19 -2.06,0.56 -0.66,0.38 -1.03,0.94 -1.22,1.6 -0.28,0.56 -0.19,1.03 0.19,1.31 0.28,0.28 0.84,0.47 1.78,0.84 0.75,0.1 1.12,0.29 1.31,0.38 0.28,0.19 0.38,0.56 0.28,0.94 -0.18,0.47 -0.47,0.75 -0.93,1.03 -0.47,0.28 -0.94,0.38 -1.6,0.47 -0.56,-0.09 -1.03,-0.28 -1.22,-0.56 -0.28,-0.29 -0.37,-0.75 -0.19,-1.22l-0.84 0c-0.28,0.75 -0.28,1.31 0.19,1.78 0.28,0.47 0.94,0.75 1.78,0.75 0.94,0 1.69,-0.28 2.34,-0.66 0.66,-0.37 1.13,-0.84 1.32,-1.5 0.19,-0.65 0.19,-1.12 -0.1,-1.41 -0.28,-0.28 -0.75,-0.56 -1.5,-0.75l-0.28 -0.09c-0.75,-0.19 -1.22,-0.37 -1.4,-0.47 -0.29,-0.28 -0.38,-0.56 -0.19,-1.03 0.09,-0.38 0.37,-0.66 0.75,-0.84 0.37,-0.38 0.75,-0.47 1.31,-0.47 0.56,0 0.94,0.09 1.31,0.47 0.19,0.28 0.29,0.75 0.1,1.21l0.94 0c0.18,-0.75 0.09,-1.4 -0.19,-1.78z"/>
    <polygon class="fil2" points="533.36,-112.55 531.95,-112.55 531.49,-111.23 532.89,-111.23 "/>
    <g>
     <polygon class="fil0" points="485.62,-172.9 483.94,-172.9 483.94,-162.02 474.27,-172.9 472.4,-172.9 472.4,-159.96 474.09,-159.96 474.09,-170.93 483.75,-159.96 485.62,-159.96 "/>
     <polygon class="fil0" points="488.72,-171.87 494.44,-171.87 494.44,-159.96 496.13,-159.96 496.13,-171.87 501.95,-171.87 501.95,-172.9 488.72,-172.9 "/>
     <polygon class="fil0" points="451.38,-172.9 448.95,-172.9 443.32,-161.83 437.69,-172.9 435.25,-172.9 435.25,-159.96 436.94,-159.96 436.94,-171.12 442.57,-159.96 443.97,-159.96 449.7,-171.12 449.7,-159.96 451.38,-159.96 "/>
     <polygon class="fil0" points="457.86,-171.87 468.36,-171.87 468.36,-172.9 456.07,-172.9 456.07,-159.96 468.65,-159.96 468.65,-161.08 457.86,-161.08 457.86,-166.15 467.43,-166.15 467.43,-167.18 457.86,-167.18 "/>
     <polygon class="fil0" points="430.56,-172.9 428.78,-172.9 428.78,-159.96 430.56,-159.96 "/>
     <path class="fil0" d="M404.29 -172.9l-2.06 0 -7.13 12.94 1.78 0 2.16 -3.94 8.44 0 2.06 3.94 1.79 0 -7.04 -12.94zm-1.12 1.31l0 0 3.65 6.57 -7.13 0 3.48 -6.57z"/>
     <polygon class="fil0" points="416.3,-172.9 414.61,-172.9 414.61,-159.96 425.87,-159.96 425.87,-161.08 416.3,-161.08 "/>
     <path class="fil0" d="M365.36 -169.43c0,-0.66 -0.19,-1.22 -0.66,-1.78 -0.37,-0.47 -0.93,-0.85 -1.69,-1.13 -0.65,-0.28 -1.21,-0.47 -2.15,-0.47 -0.57,-0.09 -1.41,-0.09 -2.63,-0.09l-6.19 0 0 12.94 1.69 0 0 -5.81 5.44 0c1.5,0 2.53,0.19 3,0.56 0.38,0.28 0.66,1.03 0.84,2.16l0.19 1.78c0.1,0.28 0.1,0.56 0.1,0.75 0.09,0.19 0.18,0.38 0.28,0.56l1.97 0 0 -0.18c-0.19,-0.1 -0.38,-0.28 -0.47,-0.47 -0.1,-0.19 -0.1,-0.38 -0.19,-0.66l-0.19 -1.97c-0.18,-1.03 -0.37,-1.69 -0.56,-1.97 -0.37,-0.56 -0.94,-0.94 -1.78,-1.03 0.94,-0.28 1.69,-0.66 2.16,-1.22 0.56,-0.47 0.84,-1.22 0.84,-1.97zm-3.19 -1.97l0 0c0.47,0.19 0.84,0.47 1.03,0.84 0.19,0.38 0.38,0.75 0.38,1.13 0,0.94 -0.47,1.69 -1.22,2.06 -0.75,0.38 -1.97,0.57 -3.75,0.57l-4.88 0 0 -5.07 4.88 0c0.84,0 1.59,0 1.97,0.09 0.65,0.1 1.22,0.19 1.59,0.38z"/>
     <path class="fil0" d="M376.43 -173.18c-2.35,-0.1 -4.32,0.56 -5.72,1.78 -1.5,1.22 -2.25,2.91 -2.25,4.97 0,2.06 0.75,3.75 2.25,4.97 1.4,1.22 3.37,1.88 5.72,1.88 2.53,0 4.5,-0.66 6,-1.88 1.51,-1.22 2.26,-2.81 2.26,-4.97 0,-2.06 -0.75,-3.75 -2.26,-4.97 -1.5,-1.22 -3.47,-1.88 -6,-1.78zm-4.5 2.53l0 0c1.12,-1.03 2.62,-1.5 4.5,-1.5 1.97,0 3.56,0.47 4.69,1.5 1.31,1.03 1.88,2.44 1.88,4.22 0,1.78 -0.57,3.19 -1.88,4.22 -1.13,0.94 -2.72,1.5 -4.69,1.5 -1.88,0 -3.38,-0.56 -4.5,-1.5 -1.22,-1.03 -1.79,-2.44 -1.79,-4.22 0,-1.78 0.57,-3.19 1.79,-4.22z"/>
     <path class="fil0" d="M339.84 -172.15c1.41,0 2.63,0.28 3.57,0.75 1.03,0.56 1.59,1.31 1.97,2.25l1.69 0c-0.28,-1.31 -1.04,-2.25 -2.35,-3 -1.31,-0.75 -3,-1.03 -4.88,-1.03 -2.44,-0.1 -4.31,0.47 -5.81,1.69 -1.5,1.22 -2.25,2.9 -2.25,5.06 0,2.06 0.75,3.75 2.25,4.97 1.5,1.22 3.37,1.88 5.63,1.88 1.31,0 2.53,-0.28 3.56,-0.75 1.13,-0.47 1.97,-1.03 2.63,-1.78l0.09 2.15 1.41 0 0 -6.66 -7.41 0 0 1.13 5.72 0c0,1.5 -0.56,2.72 -1.69,3.57 -1.03,0.84 -2.53,1.21 -4.41,1.21 -1.78,0 -3.19,-0.46 -4.41,-1.5 -1.03,-1.12 -1.5,-2.53 -1.5,-4.22 0,-1.87 0.47,-3.28 1.5,-4.31 1.22,-0.94 2.72,-1.41 4.69,-1.41z"/>
     <path class="fil0" d="M322.3 -172.9l-1.97 0 -7.03 12.94 1.68 0 2.16 -3.94 8.35 0 2.06 3.94 1.88 0 -7.13 -12.94zm2.63 7.88l0 0 -7.23 0 3.57 -6.57 3.66 6.57z"/>
     <polygon class="fil0" points="552.32,-171.87 552.32,-172.9 540.13,-172.9 540.13,-159.96 552.61,-159.96 552.61,-161.08 541.82,-161.08 541.82,-166.15 551.39,-166.15 551.39,-167.18 541.82,-167.18 541.82,-171.87 "/>
     <path class="fil0" d="M529.06 -172.9l-6.29 0 0 12.94 1.69 0 0 -5.81 5.44 0c1.5,0 2.44,0.19 3.01,0.56 0.37,0.28 0.75,1.03 0.84,2.16l0.19 1.78c0.09,0.28 0.09,0.56 0.09,0.75 0.09,0.19 0.19,0.38 0.38,0.56l1.78 0 0 -0.18c-0.1,-0.1 -0.28,-0.28 -0.38,-0.47 -0.09,-0.19 -0.09,-0.38 -0.18,-0.66l-0.19 -1.97c-0.19,-1.03 -0.28,-1.69 -0.56,-1.97 -0.38,-0.56 -0.94,-0.94 -1.79,-1.03 0.94,-0.28 1.69,-0.66 2.16,-1.22 0.56,-0.47 0.84,-1.22 0.84,-1.97 0,-0.66 -0.18,-1.22 -0.65,-1.78 -0.38,-0.47 -0.94,-0.85 -1.69,-1.13 -0.56,-0.28 -1.22,-0.47 -2.16,-0.47 -0.56,-0.09 -1.41,-0.09 -2.53,-0.09zm-4.6 1.03l0 0 4.88 0c0.94,0 1.6,0 1.97,0.09 0.66,0.1 1.22,0.19 1.6,0.38 0.46,0.19 0.84,0.47 1.03,0.84 0.28,0.38 0.37,0.75 0.37,1.13 0,0.94 -0.37,1.69 -1.12,2.06 -0.85,0.38 -2.07,0.57 -3.76,0.57l-4.97 0 0 -5.07z"/>
     <path class="fil0" d="M512.55 -172.9l-2.07 0 -7.12 12.94 1.78 0 2.15 -3.94 8.45 0 2.06 3.94 1.78 0 -7.03 -12.94zm2.53 7.88l0 0 -7.13 0 3.47 -6.57 3.66 6.57z"/>
    </g>
    <g>
     <polygon class="fil0" points="391.63,-152.36 384.22,-152.36 384.22,-141.01 374.74,-152.36 367.52,-152.36 367.52,-132 374.74,-132 374.74,-143.16 384.22,-132 391.63,-132 "/>
     <path class="fil0" d="M356.73 -132l8.16 0 -9.38 -20.36 -8.63 0 -9.38 20.36 7.88 0 1.31 -3.28 8.82 0 1.22 3.28zm-5.63 -15.01l0 0 2.72 7.22 -5.44 0 2.72 -7.22z"/>
     <path class="fil0" d="M318.64 -151.89c-1.59,0.47 -2.72,1.22 -3.37,2.25 -0.76,0.94 -1.22,1.88 -1.13,2.91 -0.09,1.6 0.66,2.91 2.16,3.94 1.4,1.03 3.84,1.88 7.41,2.53 2.06,0.29 3.47,0.75 3.94,1.13 0.56,0.38 0.84,0.84 0.94,1.41 -0.1,0.56 -0.47,1.03 -1.04,1.5 -0.56,0.37 -1.5,0.66 -2.53,0.66 -1.59,0 -2.72,-0.47 -3.47,-1.32 -0.47,-0.56 -0.84,-1.12 -0.94,-2.16l-7.41 0.38c0.19,1.97 1.22,3.75 2.72,5.07 1.69,1.31 4.69,1.97 8.91,2.06 2.54,0 4.6,-0.28 6.1,-0.84 1.69,-0.66 2.82,-1.51 3.75,-2.54 0.94,-1.22 1.41,-2.34 1.41,-3.66 0,-1.22 -0.37,-2.15 -1.03,-3 -0.75,-0.94 -1.78,-1.69 -3.19,-2.25 -1.5,-0.66 -3.94,-1.31 -7.41,-1.78 -1.41,-0.38 -2.25,-0.57 -2.53,-0.85 -0.38,-0.37 -0.57,-0.56 -0.57,-0.84 0,-0.47 0.19,-0.75 0.66,-1.13 0.47,-0.28 1.03,-0.56 2.06,-0.56 1.03,0 1.88,0.28 2.63,0.66 0.47,0.47 0.94,1.12 1.22,2.06l7.22 -0.28c-0.28,-2.16 -1.22,-3.66 -2.9,-4.6 -1.79,-1.03 -4.23,-1.5 -7.42,-1.5 -2.72,0 -4.78,0.19 -6.19,0.75z"/>
     <path class="fil0" d="M474.37 -152.36l-12.95 0 0 20.36 7.88 0 0 -8.16 0.57 0c0.75,0 1.4,0.09 1.97,0.37 0.28,0.38 0.84,0.85 1.4,1.6l4.13 6.19 8.82 0 -3.76 -5.82c-0.18,-0.37 -0.56,-0.75 -1.03,-1.31 -0.56,-0.47 -1.03,-0.94 -1.31,-1.03 -0.47,-0.38 -1.03,-0.56 -2.06,-0.75 1.22,-0.19 2.06,-0.57 2.81,-0.85 0.94,-0.56 1.78,-1.22 2.44,-1.97 0.56,-0.84 0.84,-1.78 0.84,-3 0,-1.22 -0.37,-2.34 -1.12,-3.28 -0.75,-0.94 -1.88,-1.5 -3.1,-1.78 -1.31,-0.38 -3.09,-0.57 -5.53,-0.57zm-1.69 4.13l0 0c1.41,-0.09 2.34,0.19 2.91,0.47 0.56,0.28 0.75,0.84 0.75,1.59 0,0.47 -0.19,0.85 -0.57,1.22 -0.28,0.29 -0.65,0.47 -1.12,0.57 -1.13,0.28 -1.88,0.37 -2.16,0.37l-3.19 0 0 -4.22 3.38 0z"/>
     <path class="fil0" d="M437.59 -135.28l1.32 3.28 8.16 0 -9.48 -20.36 -8.44 0 -9.57 20.36 7.98 0 1.31 -3.28 8.72 0zm-1.59 -4.51l0 0 -5.54 0 2.72 -7.22 2.82 7.22z"/>
     <polygon class="fil0" points="418.64,-147.29 418.64,-152.36 394.91,-152.36 394.91,-147.29 402.88,-147.29 402.88,-132 410.67,-132 410.67,-147.29 "/>
     <path class="fil0" d="M543.22 -152.36l-8.44 0 -9.47 20.36 7.97 0 1.22 -3.28 8.72 0 1.32 3.28 8.16 0 -9.48 -20.36zm-1.5 12.57l0 0 -5.53 0 2.81 -7.22 2.72 7.22z"/>
     <polygon class="fil0" points="524.27,-147.29 524.27,-152.36 500.73,-152.36 500.73,-147.29 508.61,-147.29 508.61,-132 516.3,-132 516.3,-147.29 "/>
     <polygon class="fil0" points="496.79,-152.36 489,-152.36 489,-132 496.79,-132 "/>
    </g>
   </g>
  </g>
 </g>
</svg>
