<?xml version="1.0" encoding="UTF-8"?>
<!DOCTYPE svg PUBLIC "-//W3C//DTD SVG 1.1//EN" "http://www.w3.org/Graphics/SVG/1.1/DTD/svg11.dtd">
<!-- Creator: CorelDRAW -->
<svg xmlns="http://www.w3.org/2000/svg" xml:space="preserve" width="240px" height="65px" version="1.1" style="shape-rendering:geometricPrecision; text-rendering:geometricPrecision; image-rendering:optimizeQuality; fill-rule:evenodd; clip-rule:evenodd"
viewBox="0 0 240 65"
 xmlns:xlink="http://www.w3.org/1999/xlink"
 xmlns:xodm="http://www.corel.com/coreldraw/odm/2003">
 <defs>
  <style type="text/css">
   <![CDATA[
    .fil2 {fill:#4B4B4D;fill-rule:nonzero}
    .fil0 {fill:#ED3237;fill-rule:nonzero}
    .fil1 {fill:#B5B5B5;fill-rule:nonzero}
   ]]>
  </style>
 </defs>
 <g id="Livello_x0020_1">
  <metadata id="CorelCorpID_0Corel-Layer"/>
  <g id="_2296047666656">
   <path class="fil0" d="M-765.34 -644.34c-38.75,0 -72.09,13.75 -99.59,41.25 -27.5,27.5 -41.66,60.42 -41.66,99.17 0,39.16 14.16,72.08 41.66,99.58 2.92,2.5 5.84,5.42 8.75,8.34 4.17,2.91 7.92,6.25 11.67,9.58 13.75,12.08 21.25,21.67 22.08,29.17l0 18.33c-6.66,-11.67 -15,-22.92 -25,-32.92 -5.41,-5.41 -11.25,-10.41 -17.08,-14.58 -22.08,-16.25 -47.5,-25.42 -75.42,-26.25 -2.5,-0.42 -5.41,-0.42 -7.5,0 -39.16,0 -72.5,13.33 -99.58,40.83 -27.92,27.09 -41.67,60.42 -41.67,99.17 0,39.17 13.75,72.5 41.67,99.58 27.08,27.5 60.42,40.84 99.58,41.26 38.75,-0.42 72.09,-13.76 100,-41.26 10,-10.41 18.34,-22.08 25,-35.41l0 246.25 -477.08 0.42 0 15.41 1064.59 0.42 0 -16.25 -478.75 0 0 -245.84c6.66,12.5 15.41,24.17 26.25,35 27.5,27.5 60.83,40.84 100,41.26 38.75,-0.42 72.08,-13.76 100,-41.26 27.08,-27.08 40.83,-60.41 40.83,-99.58 0,-38.75 -13.75,-72.08 -40.83,-99.17 -27.92,-27.5 -61.25,-40.83 -100,-40.83 -8.75,0 -17.09,0.42 -25,2.08 -21.25,2.92 -40.84,11.25 -57.92,24.17 -6.25,4.17 -11.67,9.17 -17.08,14.58 -10.84,10.84 -19.59,22.5 -26.25,35l0 -20.41c3.33,-8.34 12.08,-17.92 26.25,-29.17 3.75,-3.33 7.91,-6.25 12.91,-9.58 2.92,-2.92 6.25,-5.84 9.17,-8.34 27.5,-27.5 41.25,-60.42 41.25,-99.58 0,-38.75 -13.75,-71.67 -41.25,-99.17 -27.5,-27.5 -60.83,-41.25 -100,-41.25zm-89.17 52.08l0 0c24.58,-24.58 54.59,-37.08 89.17,-37.08 35,0 64.58,12.5 89.17,37.08 24.58,24.17 36.66,53.75 37.08,88.34 -0.42,35 -12.5,64.58 -37.08,89.17 -7.5,7.08 -15.42,13.33 -23.75,18.75 -5,2.91 -9.17,6.25 -12.92,9.58 -9.58,8.75 -15,18.33 -15.83,29.17l0 44.58c0,2.5 1.25,4.58 3.33,6.25 0,0.42 0.42,0.42 0.83,0.83 1.67,1.25 3.75,2.09 6.67,2.09 1.67,0 3.33,0 4.58,-0.84 0,0 0.42,0 0.84,-0.41 0.83,-0.42 1.25,-0.84 1.66,-1.67 0.84,-0.42 1.67,-1.67 2.09,-2.08 0.41,-1.67 0.83,-2.5 0.83,-3.75 6.25,-18.34 16.67,-34.17 31.25,-49.17 10.83,-10.83 22.5,-19.17 35.42,-25 9.16,-4.58 18.33,-7.5 28.75,-9.17 7.91,-1.66 16.25,-2.5 25,-2.5 34.58,0 64.58,12.5 88.75,36.67 24.58,24.58 36.66,54.17 37.08,88.75 -0.42,35 -12.5,64.58 -37.08,88.75 -24.17,24.58 -54.17,36.67 -88.75,36.67 -35,0 -64.59,-12.09 -89.17,-36.67 -15.42,-15 -25.83,-32.5 -31.67,-51.67 -0.41,-0.83 -0.83,-2.08 -1.25,-2.91 -0.41,-1.25 -0.83,-2.09 -1.66,-2.5 -0.84,-0.84 -1.25,-1.67 -2.09,-1.67 -1.66,-1.25 -3.33,-1.25 -5.41,-1.25 -2.5,0 -5,0.83 -6.67,2.5l-0.42 0.42c-1.66,1.66 -2.91,3.75 -2.91,6.66l0 272.09 -78.75 0 0 -275c-0.84,-1.25 -1.26,-2.5 -2.51,-3.75 0,0 0,0 0,0 -2.08,-2.09 -4.16,-2.92 -7.08,-2.92 -2.08,0 -4.17,0.42 -5.42,2.08 -0.83,0 -1.25,0 -1.25,0.84 -1.25,0.41 -2.08,1.66 -2.5,2.91 -0.41,0.84 -0.41,1.25 -0.41,2.09 -5.84,19.16 -16.67,36.66 -31.67,52.08 -24.58,24.58 -54.58,36.67 -89.17,36.67 -35,0 -64.58,-12.09 -89.16,-36.67 -24.59,-24.17 -37.09,-53.75 -37.09,-88.75 0,-34.58 12.5,-64.17 37.09,-88.75 24.58,-24.17 54.16,-36.67 89.16,-36.67 2.09,0 5,0 7.5,0.42 16.25,0.83 31.67,4.58 45.84,11.25 12.91,5.83 25,14.17 35.83,25 14.17,14.58 24.58,30.83 30.42,49.17 0.41,1.25 0.83,2.5 1.25,3.75 0.41,0.83 1.25,1.66 2.08,2.08 0,0.42 0.83,0.83 1.25,1.25 1.67,1.25 3.75,1.67 5.83,1.67 2.92,0 5,-0.84 7.09,-2.5l0 -0.42c1.66,-1.25 2.08,-2.08 2.92,-3.75l0 -47.08c0,-8.75 -4.59,-17.92 -14.17,-29.17 -2.92,-3.33 -5.84,-6.67 -9.17,-9.58 -8.33,-5.42 -16.25,-11.67 -23.75,-18.75 -24.17,-24.59 -36.67,-54.17 -36.67,-89.17 0,-34.59 12.5,-64.17 36.67,-88.34z"/>
   <path class="fil0" d="M-799.51 -558.09c-4.58,-4.58 -9.58,-8.33 -15.83,-10.42 0.83,-6.25 -0.42,-12.5 -2.92,-18.33 -11.25,8.75 -13.75,20.83 -7.92,36.67l-5 6.25 -18.33 0 -31.67 19.16 0 17.5 11.25 10.42 33.75 0 25.42 -10.42c4.17,6.67 5.83,13.76 6.25,22.09 0.84,5.83 2.92,11.25 6.25,16.25 1.25,3.33 0,6.67 -3.33,10.83l0 33.34 23.75 10 27.92 0 9.16 -5.84c8.34,-1.66 12.09,-5.83 11.67,-12.91l7.5 -20.42 -2.92 -12.08c2.92,-7.92 8.34,-12.92 16.67,-15.01l0 -12.91 38.33 0c10.84,0 17.5,-3.75 20.42,-11.25 -8.33,-16.67 -19.17,-28.34 -33.33,-35.42 -2.5,3.33 -5,5.83 -7.92,7.08 -1.25,-4.16 -4.17,-8.75 -8.33,-13.33 2.91,-2.08 6.25,-2.92 10,-2.5 -0.42,-17.08 -6.67,-29.17 -18.34,-35.42 0.84,8.75 -0.83,17.92 -3.33,26.67 -11.67,-4.58 -24.58,-6.25 -38.75,-5.42l-18.34 0c-12.91,-3.33 -23.33,-1.25 -32.08,5.42zm-14.17 0.42l0 0 5.42 0 6.67 5.41 0 3.34 -5.42 0 -6.67 -8.75zm36.26 -3.75l0 0 0 3.75 -8.34 7.5 -8.75 0 0 -6.25 10.42 -5 6.67 0zm65.41 19.16l0 0 0 -9.16 10.42 -12.5 1.25 14.16 -5.42 7.5 -6.25 0zm-0.83 27.5l0 0 7.08 0 9.59 3.34 4.16 5 2.09 -5.42 14.16 1.67 2.09 11.25 -29.59 0 -13.33 -7.5 0 -4.17 3.75 -4.17zm5.83 -12.5l0 0 12.5 -2.5 -9.58 7.92 -2.92 -5.42zm-28.33 -18.33l0 0 0 4.58 -7.08 5.84 0 2.5 10.83 0 -3.75 6.25 -12.92 24.58 -1.66 6.25 6.25 2.5 10.83 -10.42 6.67 0 -6.67 16.25 0 15.42 5 8.34 1.25 11.66 -9.17 19.17 -16.67 0 0 -4.58 18.34 -11.25c0,-3.34 -2.92,-5.84 -8.33,-7.09 -5.42,5 -12.92,7.92 -22.92,8.75 -5.42,-0.83 -10.83,-3.33 -15.83,-7.5 -4.59,0.83 -7.09,3.75 -7.09,7.5l13.33 9.17 0 5 -13.33 0c-5,-0.83 -7.91,-2.5 -9.58,-5l0 -19.59 15 -21.24 2.5 -17.51 -7.92 -10.41 -1.67 -6.67 -7.5 0 0 -5.83 11.67 -7.92 15.42 0 0 -10.42 -5.83 -5.41 -14.17 1.25 20.42 -10.84 4.58 0 6.67 2.09 6.66 -2.5 6.25 0 10.42 7.08zm-56.67 15l0 0 -3.33 5.42 -22.92 -9.59 21.67 0 4.58 4.17zm-32.5 7.5l0 0 10.83 0 2.92 2.92 0 6.25 -25.42 12.5 -25.83 0 -7.92 -10.84 9.59 -2.91 29.16 0 6.67 -7.92z"/>
   <path class="fil0" d="M-990.34 -322.25l-38.34 -22.92 5.42 55.42 5 9.16 11.67 12.5 1.66 22.09 14.59 11.66 8.75 5.42 13.33 16.67 12.5 5 17.92 0 2.91 -1.67 8.75 0 3.34 1.25 22.91 0 41.25 -31.67 -1.25 -20 -12.91 -19.58 -11.67 0 -7.08 -4.58 -8.34 -12.09 0 -11.66 8.75 -21.67 -8.33 -18.33 -22.5 14.58 -8.75 -1.67 -37.5 0 -14.17 9.59 -7.91 2.5zm-12.09 -2.92l0 0 11.25 12.08 7.09 13.34 4.58 -2.5 0 -17.5 14.58 0 7.5 -10.84 11.67 0 2.92 2.09 4.16 -2.5 8.75 1.66 13.34 12.92 9.58 12.92 2.92 12.5 15 18.33 -2.5 6.67 -11.25 5.83 -10 0 -4.59 2.5 0 11.67 -12.5 9.58 5 5.42 14.17 10 0 3.75 -14.58 -1.25 -7.5 -5.84 -7.09 0 -9.16 -15 2.5 14.17 -6.25 0 -6.25 -5.83 -3.34 3.75 -5.83 0 -8.75 -11.67 0 -6.25 -11.67 -9.58 0 -8.75 3.75 -2.92 -3.33 -2.5 0 -19.17 -12.08 -13.33 -5.84 -18.33 -2.91 -5.42 6.66 0zm-17.08 15l0 0 5.42 2.5 0 12.08 4.16 6.67 8.34 0 1.25 13.75 -5.84 0 -13.33 -17.5 0 -17.5zm35.42 66.25l0 0 0 5 -5.84 0 -8.33 -7.92 0 -7.08 4.17 0.83 10 9.17zm67.08 -83.33l0 0 0 -5 7.5 -5 6.25 -1.25 -1.25 10 -7.92 6.25 -4.58 -5zm40 57.08l0 0 2.92 0 5 5.42 0 5.41 -4.59 5.42 0 9.17 10 2.91 0 2.92 -9.16 8.33 -16.67 0 -5.42 -6.66 0 -15 2.09 -5.42 15.83 -12.5z"/>
   <polygon class="fil0" points="-962.84,-283.5 -945.34,-281.42 -939.09,-286.42 -945.34,-292.67 -956.18,-293.92 -962.84,-288.92 "/>
   <polygon class="fil0" points="-889.93,-249.75 -889.93,-241.84 -884.93,-239.75 -879.93,-243.09 -879.93,-249.75 -886.59,-254.75 "/>
   <path class="fil0" d="M-649.92 -320.17l0 6.67 11.66 9.58 2.5 31.25 -7.5 10.83 -10 9.59 -2.08 8.33 0 15 2.5 6.67 20.42 15 6.66 2.91 3.75 -1.66 6.25 0 7.5 5 12.09 -4.59 12.91 0 4.17 2.09 15.42 0 12.08 7.5 8.33 2.91 6.67 6.25 9.58 -2.08 8.75 -7.5 0 -5.83 -4.58 -1.67 -9.58 2.92 1.66 -9.17 -8.75 -1.25 -5 2.92 -8.33 0 -3.75 -2.09 -13.75 -2.08 2.08 -5.83 14.59 -10.84 11.25 -4.16 12.08 -10 2.08 -17.09 -5.41 5.42 -7.92 12.08 -10.42 1.67 -22.5 17.08 -4.16 6.67 -6.25 0 -4.59 -7.5 0 -9.58 6.67 -9.59 -4.58 0 -4.59 5.84 -8.33 -6.67 -8.75 6.25 -10.42 0 -8.75 6.67 -7.5 -1.25 -7.91 -7.92 -4.17 -7.92 8.75 -7.91 6.67 5.41 14.58 0 19.58 -15.41 2.92 -24.17 25 -28.33 1.25 -6.67 -5.42 -6.25 7.92 -8.33 16.67 0 6.66 4.58 0 7.08 -6.66 5.42 3.33 5 6.67 -5 7.08 0 -2.5 6.25 -10.83 7.5 3.75 6.25 18.75 -3.75 22.08 0 5 7.5 -6.25 6.67 -23.75 2.5 -8.75 -4.59 -3.33 0 11.25 9.17 28.33 -3.33 9.17 -10 6.25 2.08 -7.09 -15.83 -10.83 -8.75 -32.5 -12.92 -11.67 -12.08 -21.25 -0.84 -40 2.09 -5.41 5.41 -10.42 0 -7.5 8.34 -7.92 0 -5.41 -2.09 -12.09 3.34 5.84 10.83zm5.83 -2.92l0 0 0.42 -5.41 8.75 0 3.75 5.41 -3.75 3.34 -9.17 -3.34zm47.08 -16.25l0 0 -8.33 5.42 0 -6.25 8.33 0.83zm-12.91 15.42l0 0 11.66 2.92 15 -7.5 7.5 2.08 0 7.08 -18.75 17.92 -5.83 9.58 -2.08 21.25 -17.5 15 -7.92 0 -6.67 -3.75 -1.25 -5.83 6.25 -10 5 -17.08 1.25 -27.5 13.34 -4.17z"/>
   <polygon class="fil0" points="-579.09,-300.17 -585.34,-294.75 -583.26,-278.5 -570.34,-285.59 -561.59,-294.34 -569.51,-299.34 "/>
   <polygon class="fil1" points="-94.09,270.67 -92.42,264.83 -97.84,264.83 -99.92,270.67 "/>
   <polygon class="fil1" points="-99.09,224.83 -102.84,224.83 -118.67,270.67 -114.92,270.67 "/>
   <path class="fil1" d="M-137.84 236.92l-0.83 0c-2.08,-0.42 -4.17,0 -6.25,1.66 -2.08,0.84 -3.75,2.5 -5.42,4.59l2.09 -5.84 -3.75 0 -11.67 33.34 3.75 0 6.25 -18.34c1.67,-3.75 3.33,-6.66 5.83,-8.75 2.09,-1.66 4.59,-2.91 7.92,-2.91l0.83 0 1.25 -3.75z"/>
   <polygon class="fil1" points="-137,264.83 -139.09,270.67 -133.25,270.67 -131.17,264.83 "/>
   <path class="fil1" d="M-190.34 239.42c-1.66,-1.67 -4.58,-2.92 -8.33,-2.5 -3.33,-0.42 -6.25,0.83 -9.17,2.5 -2.91,1.66 -4.58,4.16 -5.41,7.08 -1.25,2.5 -0.84,4.58 0.83,5.83 1.25,1.25 3.75,2.09 7.92,3.75 3.33,0.42 5,1.25 5.83,1.67 1.25,0.83 1.67,2.5 1.25,4.17 -0.83,2.08 -2.08,3.33 -4.17,4.58 -2.08,1.25 -4.16,1.67 -7.08,2.08 -2.5,-0.41 -4.58,-1.25 -5.42,-2.5 -1.25,-1.25 -1.66,-3.33 -0.83,-5.41l-3.75 0c-1.25,3.33 -1.25,5.83 0.83,7.91 1.25,2.09 4.17,3.34 7.92,3.34 4.17,0 7.5,-1.25 10.42,-2.92 2.91,-1.67 5,-3.75 5.83,-6.67 0.83,-2.91 0.83,-5 -0.42,-6.25 -1.25,-1.25 -3.33,-2.5 -6.66,-3.33l-1.25 -0.42c-3.34,-0.83 -5.42,-1.66 -6.25,-2.08 -1.25,-1.25 -1.67,-2.5 -0.84,-4.58 0.42,-1.67 1.67,-2.92 3.34,-3.75 1.66,-1.67 3.33,-2.09 5.83,-2.09 2.5,0 4.17,0.42 5.83,2.09 0.84,1.25 1.25,3.33 0.42,5.41l4.17 0c0.83,-3.33 0.41,-6.25 -0.84,-7.91z"/>
   <polygon class="fil1" points="-175.75,264.83 -182,264.83 -184.09,270.67 -177.84,270.67 "/>
   <g>
    <polygon class="fil0" points="-532.01,89.83 -539.51,89.83 -539.51,138.17 -582.42,89.83 -590.76,89.83 -590.76,147.33 -583.26,147.33 -583.26,98.58 -540.34,147.33 -532.01,147.33 "/>
    <polygon class="fil0" points="-518.26,94.42 -492.84,94.42 -492.84,147.33 -485.34,147.33 -485.34,94.42 -459.51,94.42 -459.51,89.83 -518.26,89.83 "/>
    <polygon class="fil0" points="-684.09,89.83 -694.92,89.83 -719.92,139 -744.93,89.83 -755.76,89.83 -755.76,147.33 -748.26,147.33 -748.26,97.75 -723.26,147.33 -717.01,147.33 -691.59,97.75 -691.59,147.33 -684.09,147.33 "/>
    <polygon class="fil0" points="-655.34,94.42 -608.67,94.42 -608.67,89.83 -663.26,89.83 -663.26,147.33 -607.42,147.33 -607.42,142.33 -655.34,142.33 -655.34,119.83 -612.84,119.83 -612.84,115.25 -655.34,115.25 "/>
    <polygon class="fil0" points="-776.59,89.83 -784.51,89.83 -784.51,147.33 -776.59,147.33 "/>
    <path class="fil0" d="M-893.26 89.83l-9.17 0 -31.66 57.5 7.91 0 9.59 -17.5 37.5 0 9.16 17.5 7.92 0 -31.25 -57.5zm-5 5.84l0 0 16.25 29.16 -31.67 0 15.42 -29.16z"/>
    <polygon class="fil0" points="-839.93,89.83 -847.43,89.83 -847.43,147.33 -797.43,147.33 -797.43,142.33 -839.93,142.33 "/>
    <path class="fil0" d="M-1066.18 105.25c0,-2.92 -0.83,-5.42 -2.91,-7.92 -1.67,-2.08 -4.17,-3.75 -7.5,-5 -2.92,-1.25 -5.42,-2.08 -9.59,-2.08 -2.5,-0.42 -6.25,-0.42 -11.66,-0.42l-27.51 0 0 57.5 7.5 0 0 -25.83 24.17 0c6.67,0 11.25,0.83 13.34,2.5 1.66,1.25 2.91,4.58 3.75,9.58l0.83 7.92c0.42,1.25 0.42,2.5 0.42,3.33 0.41,0.84 0.83,1.67 1.25,2.5l8.75 0 0 -0.83c-0.84,-0.42 -1.67,-1.25 -2.09,-2.08 -0.42,-0.84 -0.42,-1.67 -0.83,-2.92l-0.83 -8.75c-0.84,-4.58 -1.67,-7.5 -2.5,-8.75 -1.67,-2.5 -4.17,-4.17 -7.92,-4.58 4.17,-1.25 7.5,-2.92 9.58,-5.42 2.5,-2.08 3.75,-5.42 3.75,-8.75zm-14.16 -8.75l0 0c2.08,0.83 3.75,2.08 4.58,3.75 0.83,1.67 1.67,3.33 1.67,5 0,4.17 -2.09,7.5 -5.42,9.17 -3.34,1.66 -8.75,2.5 -16.67,2.5l-21.67 0 0 -22.5 21.67 0c3.75,0 7.09,0 8.75,0.41 2.92,0.42 5.42,0.84 7.09,1.67z"/>
    <path class="fil0" d="M-1017.01 88.58c-10.42,-0.41 -19.17,2.5 -25.42,7.92 -6.66,5.42 -10,12.92 -10,22.08 0,9.17 3.34,16.67 10,22.09 6.25,5.41 15,8.33 25.42,8.33 11.25,0 20,-2.92 26.67,-8.33 6.66,-5.42 10,-12.5 10,-22.09 0,-9.16 -3.34,-16.66 -10,-22.08 -6.67,-5.42 -15.42,-8.33 -26.67,-7.92zm-20 11.25l0 0c5,-4.58 11.67,-6.66 20,-6.66 8.75,0 15.83,2.08 20.83,6.66 5.84,4.59 8.34,10.84 8.34,18.75 0,7.92 -2.5,14.17 -8.34,18.75 -5,4.17 -12.08,6.67 -20.83,6.67 -8.33,0 -15,-2.5 -20,-6.67 -5.42,-4.58 -7.92,-10.83 -7.92,-18.75 0,-7.91 2.5,-14.16 7.92,-18.75z"/>
    <path class="fil0" d="M-1179.51 93.17c6.25,0 11.66,1.25 15.83,3.33 4.58,2.5 7.08,5.83 8.75,10l7.5 0c-1.25,-5.83 -4.58,-10 -10.42,-13.33 -5.83,-3.34 -13.33,-4.59 -21.66,-4.59 -10.84,-0.41 -19.17,2.09 -25.84,7.5 -6.66,5.42 -10,12.92 -10,22.5 0,9.17 3.34,16.67 10,22.09 6.67,5.41 15,8.33 25,8.33 5.84,0 11.26,-1.25 15.84,-3.33 5,-2.09 8.75,-4.59 11.66,-7.92l0.42 9.58 6.25 0 0 -29.58 -32.92 0 0 5 25.42 0c0,6.67 -2.5,12.08 -7.5,15.83 -4.58,3.75 -11.25,5.42 -19.58,5.42 -7.92,0 -14.17,-2.08 -19.59,-6.67 -4.58,-5 -6.66,-11.25 -6.66,-18.75 0,-8.33 2.08,-14.58 6.66,-19.16 5.42,-4.17 12.09,-6.25 20.84,-6.25z"/>
    <path class="fil0" d="M-1257.43 89.83l-8.75 0 -31.25 57.5 7.5 0 9.58 -17.5 37.09 0 9.16 17.5 8.34 0 -31.67 -57.5zm11.67 35l0 0 -32.09 0 15.84 -29.16 16.25 29.16z"/>
    <polygon class="fil0" points="-235.75,94.42 -235.75,89.83 -289.92,89.83 -289.92,147.33 -234.5,147.33 -234.5,142.33 -282.42,142.33 -282.42,119.83 -239.92,119.83 -239.92,115.25 -282.42,115.25 -282.42,94.42 "/>
    <path class="fil0" d="M-339.09 89.83l-27.92 0 0 57.5 7.5 0 0 -25.83 24.17 0c6.67,0 10.83,0.83 13.34,2.5 1.66,1.25 3.33,4.58 3.75,9.58l0.83 7.92c0.41,1.25 0.41,2.5 0.41,3.33 0.42,0.84 0.84,1.67 1.67,2.5l7.92 0 0 -0.83c-0.42,-0.42 -1.25,-1.25 -1.67,-2.08 -0.42,-0.84 -0.42,-1.67 -0.83,-2.92l-0.83 -8.75c-0.84,-4.58 -1.26,-7.5 -2.51,-8.75 -1.66,-2.5 -4.16,-4.17 -7.91,-4.58 4.16,-1.25 7.5,-2.92 9.58,-5.42 2.5,-2.08 3.75,-5.42 3.75,-8.75 0,-2.92 -0.83,-5.42 -2.91,-7.92 -1.67,-2.08 -4.17,-3.75 -7.5,-5 -2.51,-1.25 -5.42,-2.08 -9.59,-2.08 -2.5,-0.42 -6.25,-0.42 -11.25,-0.42zm-20.42 4.59l0 0 21.67 0c4.17,0 7.08,0 8.75,0.41 2.92,0.42 5.42,0.84 7.09,1.67 2.08,0.83 3.75,2.08 4.58,3.75 1.25,1.67 1.66,3.33 1.66,5 0,4.17 -1.66,7.5 -5,9.17 -3.75,1.66 -9.16,2.5 -16.66,2.5l-22.09 0 0 -22.5z"/>
    <path class="fil0" d="M-412.42 89.83l-9.17 0 -31.67 57.5 7.92 0 9.58 -17.5 37.5 0 9.17 17.5 7.92 0 -31.25 -57.5zm11.25 35l0 0 -31.67 0 15.42 -29.16 16.25 29.16z"/>
   </g>
   <g>
    <polygon class="fil0" points="-949.51,181.08 -982.43,181.08 -982.43,231.5 -1024.51,181.08 -1056.59,181.08 -1056.59,271.5 -1024.51,271.5 -1024.51,221.92 -982.43,271.5 -949.51,271.5 "/>
    <path class="fil0" d="M-1104.51 271.5l36.25 0 -41.67 -90.42 -38.33 0 -41.67 90.42 35 0 5.83 -14.58 39.17 0 5.42 14.58zm-25 -66.67l0 0 12.08 32.09 -24.17 0 12.09 -32.09z"/>
    <path class="fil0" d="M-1273.68 183.17c-7.08,2.08 -12.08,5.41 -15,10 -3.33,4.16 -5.42,8.33 -5,12.91 -0.42,7.09 2.92,12.92 9.58,17.5 6.25,4.59 17.09,8.34 32.92,11.25 9.17,1.25 15.42,3.34 17.5,5 2.5,1.67 3.75,3.75 4.17,6.25 -0.42,2.5 -2.09,4.59 -4.59,6.67 -2.5,1.67 -6.66,2.92 -11.25,2.92 -7.08,0 -12.08,-2.09 -15.41,-5.84 -2.09,-2.5 -3.75,-5 -4.17,-9.58l-32.92 1.67c0.84,8.75 5.42,16.66 12.09,22.5 7.5,5.83 20.83,8.75 39.58,9.16 11.25,0 20.42,-1.25 27.08,-3.75 7.5,-2.91 12.5,-6.66 16.67,-11.25 4.17,-5.41 6.25,-10.41 6.25,-16.25 0,-5.41 -1.67,-9.58 -4.58,-13.33 -3.34,-4.17 -7.92,-7.5 -14.17,-10 -6.67,-2.92 -17.5,-5.83 -32.92,-7.92 -6.25,-1.66 -10,-2.5 -11.25,-3.75 -1.66,-1.66 -2.5,-2.5 -2.5,-3.75 0,-2.08 0.84,-3.33 2.92,-5 2.08,-1.25 4.58,-2.5 9.17,-2.5 4.58,0 8.33,1.25 11.66,2.92 2.09,2.08 4.17,5 5.42,9.17l32.08 -1.25c-1.25,-9.59 -5.41,-16.25 -12.91,-20.42 -7.92,-4.58 -18.75,-6.67 -32.92,-6.67 -12.08,0 -21.25,0.84 -27.5,3.34z"/>
    <path class="fil0" d="M-582.01 181.08l-57.5 0 0 90.42 35 0 0 -36.25 2.5 0c3.34,0 6.25,0.42 8.75,1.67 1.25,1.66 3.75,3.75 6.25,7.08l18.34 27.5 39.16 0 -16.66 -25.83c-0.84,-1.67 -2.5,-3.34 -4.59,-5.84 -2.5,-2.08 -4.58,-4.16 -5.83,-4.58 -2.08,-1.67 -4.58,-2.5 -9.17,-3.33 5.42,-0.84 9.17,-2.5 12.5,-3.75 4.17,-2.5 7.92,-5.42 10.84,-8.75 2.5,-3.75 3.75,-7.92 3.75,-13.34 0,-5.41 -1.67,-10.41 -5,-14.58 -3.34,-4.17 -8.34,-6.67 -13.75,-7.92 -5.84,-1.66 -13.75,-2.5 -24.59,-2.5zm-7.5 18.34l0 0c6.25,-0.42 10.42,0.83 12.92,2.08 2.5,1.25 3.33,3.75 3.33,7.08 0,2.09 -0.83,3.75 -2.5,5.42 -1.25,1.25 -2.91,2.08 -5,2.5 -5,1.25 -8.33,1.67 -9.58,1.67l-14.17 0 0 -18.75 15 0z"/>
    <path class="fil0" d="M-745.34 256.92l5.83 14.58 36.25 0 -42.08 -90.42 -37.5 0 -42.5 90.42 35.41 0 5.84 -14.58 38.75 0zm-7.09 -20l0 0 -24.58 0 12.09 -32.09 12.49 32.09z"/>
    <polygon class="fil0" points="-829.51,203.58 -829.51,181.08 -934.93,181.08 -934.93,203.58 -899.51,203.58 -899.51,271.5 -864.93,271.5 -864.93,203.58 "/>
    <path class="fil0" d="M-276.17 181.08l-37.5 0 -42.09 90.42 35.42 0 5.42 -14.58 38.75 0 5.83 14.58 36.25 0 -42.08 -90.42zm-6.67 55.84l0 0 -24.58 0 12.5 -32.09 12.08 32.09z"/>
    <polygon class="fil0" points="-360.34,203.58 -360.34,181.08 -464.92,181.08 -464.92,203.58 -429.92,203.58 -429.92,271.5 -395.76,271.5 -395.76,203.58 "/>
    <polygon class="fil0" points="-482.42,181.08 -517.01,181.08 -517.01,271.5 -482.42,271.5 "/>
   </g>
  </g>
  <path class="fil0" d="M24.35 -159.63c-4.67,0 -8.68,1.66 -12,4.97 -3.31,3.31 -5.02,7.28 -5.02,11.94 0,4.72 1.71,8.69 5.02,12 0.35,0.3 0.71,0.65 1.06,1.01 0.5,0.35 0.95,0.75 1.4,1.15 1.66,1.46 2.56,2.61 2.66,3.51l0 2.21c-0.8,-1.4 -1.8,-2.76 -3.01,-3.96 -0.65,-0.66 -1.35,-1.26 -2.06,-1.76 -2.66,-1.96 -5.72,-3.06 -9.08,-3.16 -0.3,-0.05 -0.66,-0.05 -0.91,0 -4.71,0 -8.73,1.6 -11.99,4.92 -3.37,3.26 -5.02,7.28 -5.02,11.94 0,4.72 1.65,8.74 5.02,12 3.26,3.31 7.28,4.92 11.99,4.97 4.67,-0.05 8.69,-1.66 12.05,-4.97 1.21,-1.25 2.21,-2.66 3.01,-4.27l0 29.67 -57.47 0.05 0 1.86 128.25 0.05 0 -1.96 -57.68 0 0 -29.62c0.81,1.51 1.86,2.92 3.17,4.22 3.31,3.31 7.32,4.92 12.04,4.97 4.67,-0.05 8.69,-1.66 12.05,-4.97 3.26,-3.26 4.92,-7.28 4.92,-12 0,-4.66 -1.66,-8.68 -4.92,-11.94 -3.36,-3.32 -7.38,-4.92 -12.05,-4.92 -1.05,0 -2.05,0.05 -3.01,0.25 -2.56,0.35 -4.92,1.35 -6.98,2.91 -0.75,0.5 -1.4,1.1 -2.05,1.76 -1.31,1.3 -2.36,2.71 -3.17,4.21l0 -2.46c0.41,-1 1.46,-2.15 3.17,-3.51 0.45,-0.4 0.95,-0.75 1.55,-1.15 0.35,-0.36 0.76,-0.71 1.11,-1.01 3.31,-3.31 4.97,-7.28 4.97,-12 0,-4.66 -1.66,-8.63 -4.97,-11.94 -3.32,-3.31 -7.33,-4.97 -12.05,-4.97zm-10.74 6.27l0 0c2.96,-2.96 6.57,-4.46 10.74,-4.46 4.22,0 7.78,1.5 10.74,4.46 2.96,2.91 4.42,6.48 4.47,10.64 -0.05,4.22 -1.51,7.79 -4.47,10.75 -0.9,0.85 -1.86,1.6 -2.86,2.26 -0.6,0.35 -1.1,0.75 -1.56,1.15 -1.15,1.06 -1.8,2.21 -1.9,3.51l0 5.37c0,0.31 0.15,0.56 0.4,0.76 0,0.05 0.05,0.05 0.1,0.1 0.2,0.15 0.45,0.25 0.8,0.25 0.2,0 0.4,0 0.55,-0.1 0,0 0.05,0 0.1,-0.05 0.1,-0.05 0.16,-0.1 0.21,-0.2 0.1,-0.05 0.2,-0.2 0.25,-0.25 0.05,-0.2 0.1,-0.3 0.1,-0.45 0.75,-2.21 2,-4.12 3.76,-5.93 1.31,-1.3 2.71,-2.31 4.27,-3.01 1.1,-0.55 2.21,-0.9 3.46,-1.1 0.96,-0.2 1.96,-0.31 3.01,-0.31 4.17,0 7.78,1.51 10.69,4.42 2.97,2.96 4.42,6.53 4.47,10.69 -0.05,4.22 -1.5,7.78 -4.47,10.7 -2.91,2.96 -6.52,4.41 -10.69,4.41 -4.21,0 -7.78,-1.45 -10.74,-4.41 -1.86,-1.81 -3.11,-3.92 -3.81,-6.23 -0.05,-0.1 -0.1,-0.25 -0.15,-0.35 -0.05,-0.15 -0.1,-0.25 -0.2,-0.3 -0.1,-0.1 -0.16,-0.2 -0.26,-0.2 -0.2,-0.15 -0.4,-0.15 -0.65,-0.15 -0.3,0 -0.6,0.1 -0.8,0.3l-0.05 0.05c-0.2,0.2 -0.35,0.45 -0.35,0.8l0 32.78 -9.49 0 0 -33.13c-0.1,-0.15 -0.15,-0.3 -0.3,-0.45 0,0 0,0 0,0 -0.25,-0.25 -0.5,-0.35 -0.85,-0.35 -0.26,0 -0.51,0.05 -0.66,0.25 -0.1,0 -0.15,0 -0.15,0.1 -0.15,0.05 -0.25,0.2 -0.3,0.35 -0.05,0.1 -0.05,0.15 -0.05,0.25 -0.7,2.31 -2.01,4.42 -3.81,6.28 -2.97,2.96 -6.58,4.41 -10.75,4.41 -4.21,0 -7.78,-1.45 -10.74,-4.41 -2.96,-2.92 -4.47,-6.48 -4.47,-10.7 0,-4.16 1.51,-7.73 4.47,-10.69 2.96,-2.91 6.53,-4.42 10.74,-4.42 0.25,0 0.61,0 0.91,0.06 1.95,0.1 3.81,0.55 5.52,1.35 1.55,0.7 3.01,1.71 4.32,3.01 1.7,1.76 2.96,3.72 3.66,5.93 0.05,0.15 0.1,0.3 0.15,0.45 0.05,0.1 0.15,0.2 0.25,0.25 0,0.05 0.1,0.1 0.15,0.15 0.2,0.15 0.45,0.2 0.71,0.2 0.35,0 0.6,-0.1 0.85,-0.3l0 -0.05c0.2,-0.15 0.25,-0.25 0.35,-0.45l0 -5.68c0,-1.05 -0.55,-2.15 -1.71,-3.51 -0.35,-0.4 -0.7,-0.8 -1.1,-1.15 -1,-0.66 -1.96,-1.41 -2.86,-2.26 -2.91,-2.96 -4.42,-6.53 -4.42,-10.75 0,-4.16 1.51,-7.73 4.42,-10.64z"/>
  <path class="fil0" d="M438.09 82.07c-4.66,0 -8.68,1.66 -11.99,4.97 -3.32,3.32 -5.02,7.28 -5.02,11.95 0,4.72 1.7,8.69 5.02,12 0.35,0.3 0.7,0.65 1.05,1 0.5,0.35 0.95,0.75 1.41,1.16 1.65,1.45 2.56,2.61 2.66,3.51l0 2.21c-0.81,-1.41 -1.81,-2.76 -3.02,-3.97 -0.65,-0.65 -1.35,-1.25 -2.05,-1.75 -2.66,-1.96 -5.73,-3.07 -9.09,-3.17 -0.3,-0.05 -0.65,-0.05 -0.9,0 -4.72,0 -8.74,1.61 -12,4.92 -3.36,3.27 -5.02,7.28 -5.02,11.95 0,4.72 1.66,8.73 5.02,12 3.26,3.31 7.28,4.92 12,4.97 4.67,-0.05 8.68,-1.66 12.04,-4.97 1.21,-1.26 2.21,-2.66 3.02,-4.27l0 29.67 -57.48 0.05 0 1.85 128.25 0.05 0 -1.95 -57.67 0 0 -29.62c0.8,1.51 1.85,2.91 3.16,4.22 3.31,3.31 7.33,4.92 12.05,4.97 4.66,-0.05 8.68,-1.66 12.04,-4.97 3.27,-3.27 4.92,-7.28 4.92,-12 0,-4.67 -1.65,-8.68 -4.92,-11.95 -3.36,-3.31 -7.38,-4.92 -12.04,-4.92 -1.06,0 -2.06,0.05 -3.02,0.25 -2.55,0.36 -4.91,1.36 -6.97,2.92 -0.76,0.5 -1.41,1.1 -2.06,1.75 -1.31,1.31 -2.36,2.71 -3.16,4.22l0 -2.46c0.4,-1 1.45,-2.16 3.16,-3.51 0.45,-0.41 0.95,-0.76 1.56,-1.16 0.35,-0.35 0.75,-0.7 1.1,-1 3.31,-3.31 4.97,-7.28 4.97,-12 0,-4.67 -1.66,-8.63 -4.97,-11.95 -3.31,-3.31 -7.33,-4.97 -12.05,-4.97zm-10.74 6.28l0 0c2.96,-2.96 6.58,-4.47 10.74,-4.47 4.22,0 7.78,1.51 10.75,4.47 2.96,2.91 4.41,6.47 4.46,10.64 -0.05,4.22 -1.5,7.78 -4.46,10.74 -0.91,0.86 -1.86,1.61 -2.87,2.26 -0.6,0.35 -1.1,0.75 -1.55,1.16 -1.16,1.05 -1.81,2.2 -1.91,3.51l0 5.37c0,0.3 0.15,0.55 0.4,0.75 0,0.05 0.05,0.05 0.1,0.1 0.2,0.15 0.45,0.25 0.81,0.25 0.2,0 0.4,0 0.55,-0.1 0,0 0.05,0 0.1,-0.05 0.1,-0.05 0.15,-0.1 0.2,-0.2 0.1,-0.05 0.2,-0.2 0.25,-0.25 0.05,-0.2 0.1,-0.3 0.1,-0.45 0.75,-2.21 2.01,-4.12 3.76,-5.92 1.31,-1.31 2.71,-2.31 4.27,-3.01 1.11,-0.56 2.21,-0.91 3.46,-1.11 0.96,-0.2 1.96,-0.3 3.02,-0.3 4.16,0 7.78,1.51 10.69,4.42 2.96,2.96 4.42,6.52 4.47,10.69 -0.05,4.22 -1.51,7.78 -4.47,10.69 -2.91,2.96 -6.53,4.42 -10.69,4.42 -4.22,0 -7.78,-1.46 -10.75,-4.42 -1.85,-1.81 -3.11,-3.91 -3.81,-6.22 -0.05,-0.1 -0.1,-0.25 -0.15,-0.35 -0.05,-0.15 -0.1,-0.25 -0.2,-0.31 -0.1,-0.1 -0.15,-0.2 -0.25,-0.2 -0.2,-0.15 -0.4,-0.15 -0.66,-0.15 -0.3,0 -0.6,0.1 -0.8,0.3l-0.05 0.05c-0.2,0.21 -0.35,0.46 -0.35,0.81l0 32.78 -9.49 0 0 -33.13c-0.1,-0.15 -0.15,-0.3 -0.3,-0.46 0,0 0,0 0,0 -0.25,-0.25 -0.5,-0.35 -0.85,-0.35 -0.25,0 -0.5,0.05 -0.65,0.25 -0.1,0 -0.15,0 -0.15,0.1 -0.15,0.06 -0.26,0.21 -0.31,0.36 -0.05,0.1 -0.05,0.15 -0.05,0.25 -0.7,2.31 -2,4.41 -3.81,6.27 -2.96,2.96 -6.58,4.42 -10.74,4.42 -4.22,0 -7.78,-1.46 -10.74,-4.42 -2.97,-2.91 -4.47,-6.47 -4.47,-10.69 0,-4.17 1.5,-7.73 4.47,-10.69 2.96,-2.91 6.52,-4.42 10.74,-4.42 0.25,0 0.6,0 0.9,0.05 1.96,0.1 3.82,0.55 5.52,1.36 1.56,0.7 3.01,1.7 4.32,3.01 1.71,1.76 2.96,3.71 3.66,5.92 0.05,0.15 0.1,0.3 0.15,0.45 0.05,0.1 0.15,0.2 0.25,0.25 0,0.05 0.11,0.1 0.16,0.15 0.2,0.16 0.45,0.2 0.7,0.2 0.35,0 0.6,-0.1 0.85,-0.3l0 -0.05c0.2,-0.15 0.25,-0.25 0.35,-0.45l0 -5.67c0,-1.05 -0.55,-2.16 -1.7,-3.51 -0.36,-0.41 -0.71,-0.81 -1.11,-1.16 -1,-0.65 -1.96,-1.4 -2.86,-2.26 -2.91,-2.96 -4.42,-6.52 -4.42,-10.74 0,-4.17 1.51,-7.73 4.42,-10.64z"/>
  <path class="fil0" d="M20.23 -149.24c-0.55,-0.55 -1.15,-1 -1.9,-1.26 0.1,-0.75 -0.05,-1.5 -0.35,-2.2 -1.36,1.05 -1.66,2.51 -0.96,4.41l-0.6 0.76 -2.21 0 -3.82 2.3 0 2.11 1.36 1.26 4.07 0 3.06 -1.26c0.5,0.81 0.7,1.66 0.75,2.66 0.1,0.71 0.35,1.36 0.75,1.96 0.15,0.4 0,0.8 -0.4,1.31l0 4.01 2.86 1.21 3.37 0 1.1 -0.71c1,-0.2 1.46,-0.7 1.41,-1.55l0.9 -2.46 -0.35 -1.46c0.35,-0.95 1,-1.55 2.01,-1.8l0 -1.56 4.62 0c1.3,0 2.1,-0.45 2.45,-1.36 -1,-2 -2.3,-3.41 -4.01,-4.26 -0.3,0.4 -0.6,0.7 -0.95,0.85 -0.16,-0.5 -0.51,-1.05 -1.01,-1.6 0.35,-0.26 0.75,-0.36 1.21,-0.31 -0.05,-2.05 -0.81,-3.51 -2.21,-4.26 0.1,1.05 -0.1,2.16 -0.4,3.21 -1.41,-0.55 -2.97,-0.75 -4.67,-0.65l-2.21 0c-1.56,-0.4 -2.81,-0.15 -3.87,0.65zm-1.7 0.05l0 0 0.65 0 0.8 0.65 0 0.4 -0.65 0 -0.8 -1.05zm4.36 -0.45l0 0 0 0.45 -1 0.9 -1.05 0 0 -0.75 1.25 -0.6 0.8 0zm7.89 2.31l0 0 0 -1.11 1.25 -1.5 0.15 1.7 -0.65 0.91 -0.75 0zm-0.11 3.31l0 0 0.86 0 1.15 0.4 0.5 0.6 0.25 -0.65 1.71 0.2 0.25 1.36 -3.56 0 -1.61 -0.91 0 -0.5 0.45 -0.5zm0.71 -1.51l0 0 1.5 -0.3 -1.15 0.96 -0.35 -0.66zm-3.42 -2.2l0 0 0 0.55 -0.85 0.7 0 0.3 1.31 0 -0.46 0.75 -1.55 2.97 -0.2 0.75 0.75 0.3 1.31 -1.25 0.8 0 -0.8 1.95 0 1.86 0.6 1 0.15 1.41 -1.11 2.31 -2 0 0 -0.55 2.2 -1.36c0,-0.4 -0.35,-0.7 -1,-0.85 -0.65,0.6 -1.56,0.95 -2.76,1.05 -0.65,-0.1 -1.31,-0.4 -1.91,-0.9 -0.55,0.1 -0.85,0.45 -0.85,0.9l1.6 1.11 0 0.6 -1.6 0c-0.6,-0.1 -0.95,-0.3 -1.16,-0.6l0 -2.36 1.81 -2.56 0.3 -2.11 -0.95 -1.26 -0.2 -0.8 -0.91 0 0 -0.7 1.41 -0.96 1.86 0 0 -1.25 -0.71 -0.65 -1.7 0.15 2.46 -1.31 0.55 0 0.8 0.25 0.81 -0.3 0.75 0 1.25 0.86zm-6.82 1.8l0 0 -0.4 0.66 -2.76 -1.16 2.61 0 0.55 0.5zm-3.92 0.91l0 0 1.31 0 0.35 0.35 0 0.75 -3.06 1.51 -3.12 0 -0.95 -1.31 1.15 -0.35 3.52 0 0.8 -0.95z"/>
  <path class="fil0" d="M-2.76 -120.83l-4.61 -2.76 0.65 6.68 0.6 1.1 1.41 1.51 0.2 2.66 1.75 1.4 1.06 0.66 1.6 2 1.51 0.61 2.16 0 0.35 -0.21 1.05 0 0.41 0.15 2.76 0 4.97 -3.81 -0.15 -2.41 -1.56 -2.36 -1.41 0 -0.85 -0.55 -1 -1.46 0 -1.4 1.05 -2.61 -1 -2.21 -2.71 1.76 -1.06 -0.2 -4.52 0 -1.7 1.15 -0.96 0.3zm-1.45 -0.35l0 0 1.35 1.46 0.86 1.6 0.55 -0.3 0 -2.11 1.76 0 0.9 -1.3 1.4 0 0.36 0.25 0.5 -0.3 1.05 0.2 1.61 1.55 1.15 1.56 0.35 1.51 1.81 2.2 -0.3 0.81 -1.36 0.7 -1.2 0 -0.55 0.3 0 1.41 -1.51 1.15 0.6 0.65 1.71 1.21 0 0.45 -1.76 -0.15 -0.9 -0.7 -0.85 0 -1.11 -1.81 0.3 1.71 -0.75 0 -0.75 -0.71 -0.4 0.46 -0.71 0 -1.05 -1.41 0 -0.75 -1.41 -1.16 0 -1.05 0.46 -0.35 -0.41 -0.3 0 -2.31 -1.45 -1.61 -0.7 -2.21 -0.36 -0.65 0.81 0zm-2.06 1.81l0 0 0.65 0.3 0 1.45 0.5 0.81 1.01 0 0.15 1.65 -0.7 0 -1.61 -2.11 0 -2.1zm4.27 7.98l0 0 0 0.6 -0.71 0 -1 -0.95 0 -0.86 0.5 0.1 1.21 1.11zm8.08 -10.04l0 0 0 -0.6 0.9 -0.61 0.76 -0.15 -0.16 1.21 -0.95 0.75 -0.55 -0.6zm4.82 6.87l0 0 0.35 0 0.6 0.66 0 0.65 -0.55 0.65 0 1.11 1.2 0.35 0 0.35 -1.1 1 -2.01 0 -0.65 -0.8 0 -1.81 0.25 -0.65 1.91 -1.51z"/>
  <polygon class="fil0" points="0.56,-116.16 2.66,-115.91 3.42,-116.51 2.66,-117.27 1.36,-117.42 0.56,-116.81 "/>
  <polygon class="fil0" points="9.34,-112.09 9.34,-111.14 9.94,-110.89 10.55,-111.29 10.55,-112.09 9.74,-112.7 "/>
  <path class="fil0" d="M38.25 -120.58l0 0.81 1.41 1.15 0.3 3.76 -0.9 1.31 -1.21 1.15 -0.25 1.01 0 1.81 0.3 0.8 2.46 1.81 0.81 0.35 0.45 -0.2 0.75 0 0.9 0.6 1.46 -0.55 1.56 0 0.5 0.25 1.85 0 1.46 0.9 1 0.35 0.81 0.75 1.15 -0.25 1.06 -0.9 0 -0.7 -0.56 -0.2 -1.15 0.35 0.2 -1.11 -1.05 -0.15 -0.61 0.35 -1 0 -0.45 -0.25 -1.66 -0.25 0.25 -0.7 1.76 -1.31 1.35 -0.5 1.46 -1.2 0.25 -2.06 -0.65 0.65 -0.95 1.46 -1.26 0.2 -2.71 2.06 -0.5 0.8 -0.76 0 -0.55 -0.9 0 -1.16 0.81 -1.15 -0.56 0 -0.55 0.7 -1 -0.8 -1.06 0.75 -1.25 0 -1.06 0.8 -0.9 -0.15 -0.95 -0.95 -0.5 -0.96 1.05 -0.95 0.8 0.65 1.76 0 2.36 -1.85 0.35 -2.91 3.01 -3.42 0.15 -0.8 -0.65 -0.75 0.95 -1.01 2.01 0 0.8 0.55 0 0.86 -0.8 0.65 0.4 0.6 0.81 -0.6 0.85 0 -0.3 0.75 -1.31 0.91 0.45 0.75 2.26 -0.45 2.66 0 0.61 0.9 -0.76 0.8 -2.86 0.31 -1.05 -0.56 -0.4 0 1.35 1.11 3.42 -0.4 1.1 -1.21 0.75 0.25 -0.85 -1.9 -1.31 -1.06 -3.91 -1.56 -1.41 -1.45 -2.56 -0.1 -4.82 0.25 -0.65 0.65 -1.25 0 -0.91 1.01 -0.95 0 -0.65 -0.25 -1.46 0.4 0.7 1.3zm0.71 -0.35l0 0 0.05 -0.65 1.05 0 0.45 0.65 -0.45 0.4 -1.1 -0.4zm5.67 -1.96l0 0 -1 0.66 0 -0.76 1 0.1zm-1.56 1.86l0 0 1.41 0.35 1.81 -0.9 0.9 0.25 0 0.85 -2.26 2.16 -0.7 1.15 -0.25 2.57 -2.11 1.8 -0.96 0 -0.8 -0.45 -0.15 -0.7 0.75 -1.21 0.61 -2.05 0.15 -3.32 1.6 -0.5z"/>
  <polygon class="fil0" points="46.79,-118.17 46.04,-117.52 46.29,-115.56 47.84,-116.41 48.9,-117.47 47.94,-118.07 "/>
  <g id="_2331663698528">
   <path class="fil0" d="M32.39 0.86c-3.56,0 -6.63,1.26 -9.17,3.8 -2.53,2.53 -3.83,5.56 -3.83,9.13 0,3.61 1.3,6.64 3.83,9.17 0.27,0.23 0.54,0.5 0.81,0.77 0.38,0.27 0.73,0.57 1.07,0.88 1.27,1.11 1.96,2 2.04,2.69l0 1.69c-0.62,-1.08 -1.38,-2.11 -2.3,-3.04 -0.5,-0.49 -1.04,-0.96 -1.58,-1.34 -2.03,-1.5 -4.37,-2.34 -6.94,-2.42 -0.23,-0.03 -0.5,-0.03 -0.69,0 -3.61,0 -6.68,1.23 -9.18,3.76 -2.57,2.5 -3.83,5.57 -3.83,9.14 0,3.6 1.26,6.67 3.83,9.17 2.5,2.53 5.57,3.76 9.18,3.8 3.56,-0.04 6.63,-1.27 9.21,-3.8 0.92,-0.96 1.68,-2.04 2.3,-3.26l0 22.68 -25.14 0.04 0 1.42 235.93 -0.04 0 -1.49 -200.78 0.07 0 -22.65c0.62,1.16 1.42,2.23 2.42,3.23 2.53,2.53 5.6,3.76 9.21,3.8 3.57,-0.04 6.64,-1.27 9.21,-3.8 2.49,-2.5 3.76,-5.57 3.76,-9.17 0,-3.57 -1.27,-6.64 -3.76,-9.14 -2.57,-2.53 -5.64,-3.76 -9.21,-3.76 -0.81,0 -1.57,0.04 -2.3,0.2 -1.96,0.26 -3.76,1.03 -5.34,2.22 -0.57,0.38 -1.07,0.85 -1.57,1.34 -1,1 -1.8,2.08 -2.42,3.23l0 -1.88c0.31,-0.77 1.12,-1.65 2.42,-2.69 0.35,-0.31 0.73,-0.57 1.19,-0.88 0.27,-0.27 0.58,-0.54 0.84,-0.77 2.54,-2.53 3.8,-5.56 3.8,-9.17 0,-3.57 -1.26,-6.6 -3.8,-9.13 -2.53,-2.54 -5.6,-3.8 -9.21,-3.8zm-8.21 4.79l0 0c2.27,-2.26 5.03,-3.41 8.21,-3.41 3.23,0 5.95,1.15 8.22,3.41 2.26,2.23 3.37,4.96 3.41,8.14 -0.04,3.22 -1.15,5.95 -3.41,8.21 -0.69,0.65 -1.42,1.23 -2.19,1.73 -0.46,0.27 -0.85,0.57 -1.19,0.88 -0.88,0.81 -1.38,1.69 -1.46,2.69l0 4.1c0,0.23 0.12,0.43 0.31,0.58 0,0.04 0.04,0.04 0.08,0.08 0.15,0.11 0.34,0.19 0.61,0.19 0.15,0 0.31,0 0.42,-0.08 0,0 0.04,0 0.08,-0.04 0.07,-0.04 0.11,-0.07 0.15,-0.15 0.08,-0.04 0.15,-0.15 0.19,-0.19 0.04,-0.16 0.08,-0.23 0.08,-0.35 0.58,-1.69 1.53,-3.15 2.88,-4.53 1,-0.99 2.07,-1.76 3.26,-2.3 0.84,-0.42 1.69,-0.69 2.65,-0.84 0.73,-0.16 1.49,-0.23 2.3,-0.23 3.18,0 5.95,1.15 8.17,3.37 2.27,2.27 3.38,4.99 3.42,8.18 -0.04,3.22 -1.15,5.94 -3.42,8.17 -2.22,2.26 -4.99,3.38 -8.17,3.38 -3.22,0 -5.95,-1.12 -8.21,-3.38 -1.42,-1.38 -2.38,-2.99 -2.92,-4.76 -0.04,-0.07 -0.08,-0.19 -0.11,-0.27 -0.04,-0.11 -0.08,-0.19 -0.16,-0.23 -0.07,-0.07 -0.11,-0.15 -0.19,-0.15 -0.15,-0.12 -0.31,-0.12 -0.5,-0.12 -0.23,0 -0.46,0.08 -0.61,0.23l-0.04 0.04c-0.15,0.16 -0.27,0.35 -0.27,0.62l0 25.06 -7.25 0 0 -25.33c-0.08,-0.12 -0.12,-0.23 -0.23,-0.35 0,0 0,0 0,0 -0.19,-0.19 -0.39,-0.27 -0.65,-0.27 -0.2,0 -0.39,0.04 -0.5,0.2 -0.08,0 -0.12,0 -0.12,0.07 -0.11,0.04 -0.19,0.16 -0.23,0.27 -0.04,0.08 -0.04,0.12 -0.04,0.19 -0.53,1.77 -1.53,3.38 -2.91,4.8 -2.27,2.26 -5.03,3.38 -8.21,3.38 -3.23,0 -5.95,-1.12 -8.22,-3.38 -2.26,-2.23 -3.41,-4.95 -3.41,-8.17 0,-3.19 1.15,-5.91 3.41,-8.18 2.27,-2.22 4.99,-3.37 8.22,-3.37 0.19,0 0.46,0 0.69,0.04 1.49,0.07 2.91,0.42 4.22,1.03 1.19,0.54 2.3,1.31 3.3,2.3 1.3,1.35 2.26,2.84 2.8,4.53 0.04,0.12 0.08,0.23 0.11,0.35 0.04,0.07 0.12,0.15 0.2,0.19 0,0.04 0.07,0.08 0.11,0.11 0.15,0.12 0.35,0.16 0.54,0.16 0.27,0 0.46,-0.08 0.65,-0.23l0 -0.04c0.15,-0.12 0.19,-0.19 0.27,-0.35l0 -4.33c0,-0.81 -0.42,-1.65 -1.31,-2.69 -0.26,-0.31 -0.53,-0.61 -0.84,-0.88 -0.77,-0.5 -1.5,-1.08 -2.19,-1.73 -2.22,-2.26 -3.37,-4.99 -3.37,-8.21 0,-3.18 1.15,-5.91 3.37,-8.14z"/>
   <path class="fil0" d="M29.18 8.8c-0.42,-0.42 -0.88,-0.77 -1.46,-0.96 0.08,-0.57 -0.03,-1.15 -0.27,-1.69 -1.03,0.81 -1.26,1.92 -0.72,3.38l-0.46 0.58 -1.69 0 -2.92 1.76 0 1.61 1.04 0.96 3.1 0 2.35 -0.96c0.38,0.62 0.53,1.27 0.57,2.04 0.08,0.53 0.27,1.03 0.58,1.49 0.11,0.31 0,0.62 -0.31,1l0 3.07 2.19 0.92 2.57 0 0.84 -0.54c0.77,-0.15 1.12,-0.53 1.08,-1.18l0.69 -1.89 -0.27 -1.11c0.27,-0.73 0.77,-1.19 1.53,-1.38l0 -1.19 3.53 0c1,0 1.62,-0.34 1.88,-1.04 -0.76,-1.53 -1.76,-2.61 -3.07,-3.26 -0.23,0.31 -0.46,0.54 -0.72,0.65 -0.12,-0.38 -0.39,-0.8 -0.77,-1.22 0.27,-0.2 0.57,-0.27 0.92,-0.23 -0.04,-1.58 -0.62,-2.69 -1.69,-3.27 0.08,0.81 -0.08,1.65 -0.31,2.46 -1.07,-0.42 -2.26,-0.57 -3.57,-0.5l-1.68 0c-1.19,-0.31 -2.15,-0.11 -2.96,0.5zm-1.3 0.04l0 0 0.5 0 0.61 0.5 0 0.3 -0.5 0 -0.61 -0.8zm3.34 -0.35l0 0 0 0.35 -0.77 0.69 -0.81 0 0 -0.57 0.96 -0.47 0.62 0zm6.02 1.77l0 0 0 -0.85 0.96 -1.15 0.11 1.31 -0.49 0.69 -0.58 0zm-0.08 2.53l0 0 0.66 0 0.88 0.31 0.38 0.46 0.19 -0.5 1.31 0.15 0.19 1.04 -2.72 0 -1.23 -0.69 0 -0.38 0.34 -0.39zm0.54 -1.15l0 0 1.15 -0.23 -0.88 0.73 -0.27 -0.5zm-2.61 -1.69l0 0 0 0.42 -0.65 0.54 0 0.23 1 0 -0.35 0.58 -1.19 2.26 -0.15 0.58 0.57 0.23 1 -0.96 0.62 0 -0.62 1.49 0 1.42 0.46 0.77 0.12 1.08 -0.85 1.76 -1.53 0 0 -0.42 1.69 -1.04c0,-0.3 -0.27,-0.53 -0.77,-0.65 -0.5,0.46 -1.19,0.73 -2.11,0.81 -0.5,-0.08 -1,-0.31 -1.46,-0.69 -0.42,0.07 -0.65,0.34 -0.65,0.69l1.23 0.84 0 0.46 -1.23 0c-0.46,-0.07 -0.73,-0.23 -0.88,-0.46l0 -1.8 1.38 -1.96 0.23 -1.61 -0.73 -0.96 -0.16 -0.61 -0.69 0 0 -0.54 1.08 -0.73 1.42 0 0 -0.96 -0.54 -0.5 -1.3 0.12 1.88 -1 0.42 0 0.61 0.19 0.62 -0.23 0.57 0 0.96 0.65zm-5.22 1.38l0 0 -0.3 0.5 -2.12 -0.88 2 0 0.42 0.38zm-2.99 0.69l0 0 1 0 0.27 0.27 0 0.58 -2.35 1.15 -2.37 0 -0.73 -1 0.88 -0.27 2.69 0 0.61 -0.73z"/>
   <path class="fil0" d="M11.61 30.52l-3.53 -2.11 0.49 5.1 0.47 0.85 1.07 1.15 0.15 2.03 1.35 1.08 0.8 0.5 1.23 1.53 1.15 0.46 1.65 0 0.27 -0.15 0.81 0 0.3 0.11 2.11 0 3.8 -2.91 -0.11 -1.85 -1.19 -1.8 -1.08 0 -0.65 -0.42 -0.77 -1.11 0 -1.08 0.81 -1.99 -0.77 -1.69 -2.07 1.34 -0.81 -0.15 -3.45 0 -1.3 0.88 -0.73 0.23zm-1.12 -0.27l0 0 1.04 1.11 0.65 1.23 0.42 -0.23 0 -1.61 1.35 0 0.69 -1 1.07 0 0.27 0.19 0.39 -0.23 0.8 0.16 1.23 1.19 0.88 1.19 0.27 1.15 1.38 1.69 -0.23 0.61 -1.03 0.54 -0.93 0 -0.42 0.23 0 1.07 -1.15 0.89 0.46 0.49 1.31 0.92 0 0.35 -1.35 -0.11 -0.69 -0.54 -0.65 0 -0.84 -1.38 0.23 1.3 -0.58 0 -0.57 -0.54 -0.31 0.35 -0.54 0 -0.8 -1.08 0 -0.57 -1.08 -0.88 0 -0.81 0.35 -0.27 -0.31 -0.23 0 -1.76 -1.11 -1.23 -0.54 -1.69 -0.27 -0.5 0.61 0zm-1.57 1.38l0 0 0.5 0.23 0 1.12 0.38 0.61 0.77 0 0.12 1.27 -0.54 0 -1.23 -1.62 0 -1.61zm3.26 6.1l0 0 0 0.46 -0.54 0 -0.76 -0.72 0 -0.66 0.38 0.08 0.92 0.84zm6.18 -7.67l0 0 0 -0.46 0.69 -0.46 0.58 -0.12 -0.12 0.92 -0.73 0.58 -0.42 -0.46zm3.68 5.26l0 0 0.27 0 0.46 0.5 0 0.49 -0.42 0.5 0 0.85 0.92 0.27 0 0.26 -0.84 0.77 -1.54 0 -0.5 -0.61 0 -1.38 0.2 -0.5 1.45 -1.15z"/>
   <polygon class="fil0" points="14.14,34.09 15.75,34.28 16.33,33.82 15.75,33.24 14.75,33.13 14.14,33.59 "/>
   <polygon class="fil0" points="20.85,37.2 20.85,37.93 21.32,38.12 21.78,37.81 21.78,37.2 21.16,36.74 "/>
   <path class="fil0" d="M42.96 30.71l0 0.62 1.07 0.88 0.23 2.88 -0.69 0.99 -0.92 0.89 -0.19 0.76 0 1.39 0.23 0.61 1.88 1.38 0.61 0.27 0.35 -0.15 0.57 0 0.69 0.46 1.12 -0.43 1.19 0 0.38 0.2 1.42 0 1.11 0.69 0.77 0.27 0.61 0.57 0.89 -0.19 0.8 -0.69 0 -0.54 -0.42 -0.15 -0.88 0.27 0.15 -0.85 -0.8 -0.11 -0.46 0.27 -0.77 0 -0.35 -0.2 -1.26 -0.19 0.19 -0.53 1.34 -1 1.04 -0.39 1.11 -0.92 0.19 -1.57 -0.5 0.5 -0.73 1.11 -0.96 0.15 -2.07 1.58 -0.38 0.61 -0.58 0 -0.42 -0.69 0 -0.88 0.62 -0.88 -0.43 0 -0.42 0.53 -0.77 -0.61 -0.8 0.57 -0.96 0 -0.81 0.62 -0.69 -0.12 -0.73 -0.73 -0.38 -0.72 0.81 -0.73 0.61 0.5 1.34 0 1.81 -1.42 0.26 -2.23 2.31 -2.61 0.11 -0.61 -0.5 -0.58 0.73 -0.77 1.54 0 0.61 0.43 0 0.65 -0.61 0.5 0.3 0.46 0.62 -0.46 0.65 0 -0.23 0.57 -1 0.69 0.35 0.58 1.72 -0.35 2.04 0 0.46 0.69 -0.58 0.62 -2.18 0.23 -0.81 -0.42 -0.31 0 1.04 0.84 2.61 -0.31 0.84 -0.92 0.58 0.19 -0.65 -1.45 -1 -0.81 -3 -1.19 -1.07 -1.11 -1.96 -0.08 -3.68 0.19 -0.5 0.5 -0.96 0 -0.69 0.77 -0.73 0 -0.5 -0.19 -1.11 0.3 0.54 1zm0.53 -0.27l0 0 0.04 -0.5 0.81 0 0.34 0.5 -0.34 0.31 -0.85 -0.31zm4.34 -1.49l0 0 -0.77 0.5 0 -0.58 0.77 0.08zm-1.19 1.42l0 0 1.08 0.27 1.38 -0.7 0.69 0.2 0 0.65 -1.73 1.65 -0.54 0.88 -0.19 1.96 -1.61 1.38 -0.73 0 -0.61 -0.35 -0.12 -0.53 0.58 -0.92 0.46 -1.58 0.11 -2.53 1.23 -0.38z"/>
   <polygon class="fil0" points="49.48,32.55 48.91,33.05 49.1,34.55 50.29,33.9 51.09,33.09 50.36,32.63 "/>
   <g>
    <polygon class="fil2" points="237.35,61.19 237.61,60.29 236.77,60.29 236.45,61.19 "/>
    <polygon class="fil2" points="236.58,54.13 236,54.13 233.56,61.19 234.14,61.19 "/>
    <path class="fil2" d="M230.61 55.99l-0.13 0c-0.32,-0.07 -0.64,0 -0.96,0.25 -0.32,0.13 -0.58,0.39 -0.84,0.71l0.33 -0.9 -0.58 0 -1.8 5.14 0.58 0 0.96 -2.83c0.26,-0.58 0.51,-1.03 0.9,-1.35 0.32,-0.25 0.71,-0.45 1.22,-0.45l0.13 0 0.19 -0.57z"/>
    <polygon class="fil2" points="230.74,60.29 230.42,61.19 231.32,61.19 231.64,60.29 "/>
    <path class="fil2" d="M222.52 56.37c-0.25,-0.26 -0.7,-0.45 -1.28,-0.38 -0.51,-0.07 -0.96,0.12 -1.41,0.38 -0.45,0.26 -0.71,0.64 -0.84,1.09 -0.19,0.39 -0.13,0.71 0.13,0.9 0.19,0.19 0.58,0.32 1.22,0.58 0.51,0.06 0.77,0.19 0.9,0.26 0.19,0.12 0.26,0.38 0.19,0.64 -0.13,0.32 -0.32,0.51 -0.64,0.7 -0.32,0.2 -0.64,0.26 -1.09,0.33 -0.39,-0.07 -0.71,-0.2 -0.84,-0.39 -0.19,-0.19 -0.25,-0.51 -0.12,-0.83l-0.58 0c-0.19,0.51 -0.19,0.89 0.13,1.22 0.19,0.32 0.64,0.51 1.22,0.51 0.64,0 1.15,-0.19 1.6,-0.45 0.45,-0.26 0.77,-0.58 0.9,-1.03 0.13,-0.45 0.13,-0.77 -0.06,-0.96 -0.2,-0.19 -0.52,-0.39 -1.03,-0.51l-0.19 -0.07c-0.52,-0.13 -0.84,-0.26 -0.97,-0.32 -0.19,-0.19 -0.25,-0.38 -0.13,-0.71 0.07,-0.25 0.26,-0.45 0.52,-0.57 0.25,-0.26 0.51,-0.32 0.9,-0.32 0.38,0 0.64,0.06 0.9,0.32 0.12,0.19 0.19,0.51 0.06,0.83l0.64 0c0.13,-0.51 0.07,-0.96 -0.13,-1.22z"/>
    <polygon class="fil2" points="224.77,60.29 223.81,60.29 223.49,61.19 224.45,61.19 "/>
    <g>
     <polygon class="fil0" points="192.1,18.99 190.95,18.99 190.95,26.43 184.34,18.99 183.05,18.99 183.05,27.85 184.21,27.85 184.21,20.34 190.82,27.85 192.1,27.85 "/>
     <polygon class="fil0" points="194.22,19.7 198.14,19.7 198.14,27.85 199.29,27.85 199.29,19.7 203.27,19.7 203.27,18.99 194.22,18.99 "/>
     <polygon class="fil0" points="168.68,18.99 167.01,18.99 163.16,26.56 159.3,18.99 157.64,18.99 157.64,27.85 158.79,27.85 158.79,20.21 162.64,27.85 163.6,27.85 167.52,20.21 167.52,27.85 168.68,27.85 "/>
     <polygon class="fil0" points="173.1,19.7 180.29,19.7 180.29,18.99 171.89,18.99 171.89,27.85 180.49,27.85 180.49,27.08 173.1,27.08 173.1,23.61 179.65,23.61 179.65,22.9 173.1,22.9 "/>
     <polygon class="fil0" points="154.42,18.99 153.21,18.99 153.21,27.85 154.42,27.85 "/>
     <path class="fil0" d="M136.45 18.99l-1.41 0 -4.88 8.86 1.22 0 1.48 -2.7 5.77 0 1.42 2.7 1.22 0 -4.82 -8.86zm-0.77 0.9l0 0 2.51 4.49 -4.88 0 2.37 -4.49z"/>
     <polygon class="fil0" points="144.67,18.99 143.51,18.99 143.51,27.85 151.22,27.85 151.22,27.08 144.67,27.08 "/>
     <path class="fil0" d="M109.81 21.36c0,-0.45 -0.13,-0.83 -0.45,-1.22 -0.25,-0.32 -0.64,-0.57 -1.15,-0.77 -0.45,-0.19 -0.84,-0.32 -1.48,-0.32 -0.38,-0.06 -0.96,-0.06 -1.8,-0.06l-4.23 0 0 8.86 1.15 0 0 -3.98 3.73 0c1.02,0 1.73,0.13 2.05,0.38 0.26,0.19 0.45,0.71 0.58,1.48l0.13 1.22c0.06,0.19 0.06,0.38 0.06,0.51 0.07,0.13 0.13,0.26 0.19,0.39l1.35 0 0 -0.13c-0.13,-0.07 -0.26,-0.19 -0.32,-0.32 -0.06,-0.13 -0.06,-0.26 -0.13,-0.45l-0.13 -1.35c-0.12,-0.71 -0.25,-1.16 -0.38,-1.35 -0.26,-0.38 -0.64,-0.64 -1.22,-0.7 0.64,-0.2 1.15,-0.45 1.48,-0.84 0.38,-0.32 0.57,-0.83 0.57,-1.35zm-2.18 -1.34l0 0c0.32,0.12 0.58,0.32 0.71,0.57 0.13,0.26 0.25,0.52 0.25,0.77 0,0.65 -0.32,1.16 -0.83,1.42 -0.51,0.25 -1.35,0.38 -2.57,0.38l-3.34 0 0 -3.46 3.34 0c0.58,0 1.09,0 1.35,0.06 0.45,0.06 0.83,0.13 1.09,0.26z"/>
     <path class="fil0" d="M117.39 18.8c-1.61,-0.07 -2.96,0.38 -3.92,1.22 -1.03,0.83 -1.54,1.99 -1.54,3.4 0,1.41 0.51,2.56 1.54,3.4 0.96,0.83 2.31,1.28 3.92,1.28 1.73,0 3.08,-0.45 4.11,-1.28 1.02,-0.84 1.54,-1.93 1.54,-3.4 0,-1.41 -0.52,-2.57 -1.54,-3.4 -1.03,-0.84 -2.38,-1.29 -4.11,-1.22zm-3.08 1.73l0 0c0.77,-0.71 1.79,-1.03 3.08,-1.03 1.35,0 2.44,0.32 3.21,1.03 0.9,0.71 1.28,1.67 1.28,2.89 0,1.22 -0.38,2.18 -1.28,2.89 -0.77,0.64 -1.86,1.02 -3.21,1.02 -1.29,0 -2.31,-0.38 -3.08,-1.02 -0.84,-0.71 -1.22,-1.67 -1.22,-2.89 0,-1.22 0.38,-2.18 1.22,-2.89z"/>
     <path class="fil0" d="M92.35 19.5c0.97,0 1.8,0.2 2.44,0.52 0.71,0.38 1.09,0.89 1.35,1.54l1.16 0c-0.2,-0.9 -0.71,-1.54 -1.61,-2.06 -0.9,-0.51 -2.05,-0.7 -3.34,-0.7 -1.67,-0.07 -2.95,0.32 -3.98,1.15 -1.02,0.84 -1.54,1.99 -1.54,3.47 0,1.41 0.52,2.56 1.54,3.4 1.03,0.83 2.31,1.28 3.85,1.28 0.9,0 1.74,-0.19 2.44,-0.51 0.77,-0.32 1.35,-0.71 1.8,-1.22l0.07 1.48 0.96 0 0 -4.56 -5.07 0 0 0.77 3.91 0c0,1.03 -0.38,1.86 -1.15,2.44 -0.71,0.58 -1.73,0.83 -3.02,0.83 -1.22,0 -2.18,-0.32 -3.02,-1.02 -0.7,-0.77 -1.02,-1.74 -1.02,-2.89 0,-1.29 0.32,-2.25 1.02,-2.95 0.84,-0.65 1.86,-0.97 3.21,-0.97z"/>
     <path class="fil0" d="M80.35 18.99l-1.35 0 -4.81 8.86 1.15 0 1.48 -2.7 5.71 0 1.41 2.7 1.29 0 -4.88 -8.86zm1.8 5.39l0 0 -4.95 0 2.44 -4.49 2.51 4.49z"/>
     <polygon class="fil0" points="237.74,19.7 237.74,18.99 229.4,18.99 229.4,27.85 237.94,27.85 237.94,27.08 230.55,27.08 230.55,23.61 237.1,23.61 237.1,22.9 230.55,22.9 230.55,19.7 "/>
     <path class="fil0" d="M221.83 18.99l-4.31 0 0 8.86 1.16 0 0 -3.98 3.72 0c1.03,0 1.67,0.13 2.06,0.38 0.25,0.19 0.51,0.71 0.57,1.48l0.13 1.22c0.07,0.19 0.07,0.38 0.07,0.51 0.06,0.13 0.13,0.26 0.25,0.39l1.22 0 0 -0.13c-0.06,-0.07 -0.19,-0.19 -0.25,-0.32 -0.07,-0.13 -0.07,-0.26 -0.13,-0.45l-0.13 -1.35c-0.13,-0.71 -0.19,-1.16 -0.39,-1.35 -0.25,-0.38 -0.64,-0.64 -1.21,-0.7 0.64,-0.2 1.15,-0.45 1.47,-0.84 0.39,-0.32 0.58,-0.83 0.58,-1.35 0,-0.45 -0.13,-0.83 -0.45,-1.22 -0.26,-0.32 -0.64,-0.57 -1.16,-0.77 -0.38,-0.19 -0.83,-0.32 -1.47,-0.32 -0.39,-0.06 -0.96,-0.06 -1.73,-0.06zm-3.15 0.71l0 0 3.34 0c0.64,0 1.09,0 1.35,0.06 0.45,0.06 0.83,0.13 1.09,0.26 0.32,0.12 0.57,0.32 0.7,0.57 0.2,0.26 0.26,0.52 0.26,0.77 0,0.65 -0.26,1.16 -0.77,1.42 -0.58,0.25 -1.41,0.38 -2.57,0.38l-3.4 0 0 -3.46z"/>
     <path class="fil0" d="M210.53 18.99l-1.41 0 -4.88 8.86 1.22 0 1.47 -2.7 5.78 0 1.41 2.7 1.22 0 -4.81 -8.86zm1.73 5.39l0 0 -4.88 0 2.38 -4.49 2.5 4.49z"/>
    </g>
    <g>
     <polygon class="fil0" points="127.79,33.05 122.72,33.05 122.72,40.81 116.23,33.05 111.29,33.05 111.29,46.98 116.23,46.98 116.23,39.34 122.72,46.98 127.79,46.98 "/>
     <path class="fil0" d="M103.91 46.98l5.58 0 -6.42 -13.93 -5.9 0 -6.42 13.93 5.39 0 0.9 -2.25 6.03 0 0.84 2.25zm-3.85 -10.28l0 0 1.86 4.95 -3.73 0 1.87 -4.95z"/>
     <path class="fil0" d="M77.85 33.37c-1.1,0.32 -1.87,0.83 -2.31,1.54 -0.52,0.64 -0.84,1.28 -0.77,1.99 -0.07,1.09 0.44,1.99 1.47,2.69 0.96,0.71 2.63,1.29 5.07,1.74 1.42,0.19 2.38,0.51 2.7,0.77 0.38,0.25 0.58,0.57 0.64,0.96 -0.06,0.38 -0.32,0.71 -0.71,1.03 -0.38,0.25 -1.02,0.45 -1.73,0.45 -1.09,0 -1.86,-0.32 -2.37,-0.9 -0.33,-0.39 -0.58,-0.77 -0.65,-1.48l-5.07 0.26c0.13,1.35 0.84,2.57 1.86,3.46 1.16,0.9 3.21,1.35 6.1,1.42 1.74,0 3.15,-0.2 4.18,-0.58 1.15,-0.45 1.92,-1.03 2.56,-1.73 0.64,-0.84 0.97,-1.61 0.97,-2.51 0,-0.83 -0.26,-1.47 -0.71,-2.05 -0.51,-0.64 -1.22,-1.16 -2.18,-1.54 -1.03,-0.45 -2.7,-0.9 -5.07,-1.22 -0.97,-0.26 -1.54,-0.39 -1.74,-0.58 -0.25,-0.26 -0.38,-0.39 -0.38,-0.58 0,-0.32 0.13,-0.51 0.45,-0.77 0.32,-0.19 0.7,-0.38 1.41,-0.38 0.71,0 1.28,0.19 1.8,0.45 0.32,0.32 0.64,0.77 0.83,1.41l4.94 -0.19c-0.19,-1.48 -0.83,-2.51 -1.99,-3.15 -1.22,-0.71 -2.88,-1.03 -5.07,-1.03 -1.86,0 -3.27,0.13 -4.23,0.52z"/>
     <path class="fil0" d="M184.4 33.05l-8.86 0 0 13.93 5.4 0 0 -5.59 0.38 0c0.51,0 0.96,0.06 1.35,0.26 0.19,0.25 0.58,0.57 0.96,1.09l2.83 4.24 6.03 0 -2.57 -3.99c-0.13,-0.25 -0.38,-0.51 -0.7,-0.89 -0.39,-0.32 -0.71,-0.65 -0.9,-0.71 -0.32,-0.26 -0.71,-0.38 -1.41,-0.51 0.83,-0.13 1.41,-0.39 1.92,-0.58 0.64,-0.39 1.22,-0.84 1.67,-1.35 0.39,-0.58 0.58,-1.22 0.58,-2.05 0,-0.84 -0.26,-1.61 -0.77,-2.25 -0.52,-0.64 -1.29,-1.03 -2.12,-1.22 -0.9,-0.26 -2.12,-0.38 -3.79,-0.38zm-1.15 2.82l0 0c0.96,-0.06 1.6,0.13 1.99,0.32 0.38,0.19 0.51,0.58 0.51,1.09 0,0.32 -0.13,0.58 -0.38,0.84 -0.2,0.19 -0.45,0.32 -0.77,0.38 -0.78,0.19 -1.29,0.26 -1.48,0.26l-2.18 0 0 -2.89 2.31 0z"/>
     <path class="fil0" d="M159.24 44.73l0.9 2.25 5.58 0 -6.48 -13.93 -5.78 0 -6.54 13.93 5.45 0 0.9 -2.25 5.97 0zm-1.09 -3.08l0 0 -3.79 0 1.86 -4.95 1.93 4.95z"/>
     <polygon class="fil0" points="146.27,36.51 146.27,33.05 130.03,33.05 130.03,36.51 135.49,36.51 135.49,46.98 140.82,46.98 140.82,36.51 "/>
     <path class="fil0" d="M231.52 33.05l-5.78 0 -6.48 13.93 5.45 0 0.84 -2.25 5.97 0 0.9 2.25 5.58 0 -6.48 -13.93zm-1.03 8.6l0 0 -3.79 0 1.93 -4.95 1.86 4.95z"/>
     <polygon class="fil0" points="218.55,36.51 218.55,33.05 202.44,33.05 202.44,36.51 207.83,36.51 207.83,46.98 213.1,46.98 213.1,36.51 "/>
     <polygon class="fil0" points="199.74,33.05 194.42,33.05 194.42,46.98 199.74,46.98 "/>
    </g>
   </g>
  </g>
  <g id="_2331663699296">
   <path class="fil0" d="M247.22 -201.9c-5.22,0 -9.7,1.85 -13.4,5.55 -3.71,3.7 -5.61,8.13 -5.61,13.35 0,5.27 1.9,9.7 5.61,13.4 0.39,0.34 0.78,0.73 1.17,1.12 0.56,0.4 1.07,0.85 1.57,1.29 1.85,1.63 2.86,2.92 2.98,3.93l0 2.47c-0.9,-1.57 -2.02,-3.09 -3.37,-4.43 -0.73,-0.73 -1.51,-1.41 -2.3,-1.97 -2.97,-2.18 -6.39,-3.42 -10.15,-3.53 -0.34,-0.05 -0.73,-0.05 -1.01,0 -5.27,0 -9.76,1.8 -13.4,5.5 -3.76,3.64 -5.61,8.13 -5.61,13.34 0,5.28 1.85,9.76 5.61,13.41 3.64,3.7 8.13,5.49 13.4,5.55 5.22,-0.06 9.7,-1.85 13.46,-5.55 1.35,-1.4 2.47,-2.98 3.37,-4.77l0 33.14 -36.74 0.07 0 2.08 344.8 -0.06 0 -2.18 -293.43 0.09 0 -33.08c0.9,1.68 2.08,3.25 3.53,4.71 3.71,3.7 8.19,5.49 13.46,5.55 5.22,-0.06 9.71,-1.85 13.46,-5.55 3.65,-3.65 5.5,-8.13 5.5,-13.41 0,-5.21 -1.85,-9.7 -5.5,-13.34 -3.75,-3.7 -8.24,-5.5 -13.46,-5.5 -1.17,0 -2.29,0.06 -3.36,0.28 -2.86,0.4 -5.5,1.52 -7.8,3.25 -0.84,0.56 -1.57,1.24 -2.3,1.97 -1.45,1.46 -2.63,3.03 -3.53,4.71l0 -2.75c0.45,-1.12 1.63,-2.41 3.53,-3.93 0.51,-0.44 1.07,-0.84 1.74,-1.29 0.4,-0.39 0.84,-0.78 1.24,-1.12 3.7,-3.7 5.55,-8.13 5.55,-13.4 0,-5.22 -1.85,-9.65 -5.55,-13.35 -3.7,-3.7 -8.19,-5.55 -13.46,-5.55zm-12 7.01l0 0c3.31,-3.31 7.34,-4.99 12,-4.99 4.71,0 8.69,1.68 12,4.99 3.31,3.25 4.93,7.23 4.99,11.89 -0.06,4.71 -1.68,8.69 -4.99,12 -1.01,0.96 -2.08,1.79 -3.2,2.52 -0.67,0.4 -1.23,0.85 -1.74,1.29 -1.29,1.18 -2.01,2.47 -2.13,3.93l0 6c0,0.34 0.17,0.62 0.45,0.84 0,0.06 0.06,0.06 0.11,0.11 0.23,0.17 0.51,0.28 0.9,0.28 0.23,0 0.45,0 0.62,-0.11 0,0 0.05,0 0.11,-0.05 0.11,-0.06 0.17,-0.12 0.22,-0.23 0.12,-0.06 0.23,-0.22 0.29,-0.28 0.05,-0.22 0.11,-0.34 0.11,-0.5 0.84,-2.47 2.24,-4.6 4.2,-6.62 1.46,-1.46 3.03,-2.58 4.77,-3.37 1.23,-0.61 2.47,-1.01 3.87,-1.23 1.07,-0.22 2.19,-0.34 3.36,-0.34 4.66,0 8.7,1.69 11.95,4.94 3.31,3.31 4.93,7.29 4.99,11.94 -0.06,4.71 -1.68,8.7 -4.99,11.95 -3.25,3.31 -7.29,4.93 -11.95,4.93 -4.71,0 -8.69,-1.62 -12,-4.93 -2.07,-2.02 -3.47,-4.37 -4.26,-6.95 -0.05,-0.12 -0.11,-0.29 -0.17,-0.4 -0.05,-0.17 -0.11,-0.28 -0.22,-0.33 -0.11,-0.12 -0.17,-0.23 -0.28,-0.23 -0.23,-0.17 -0.45,-0.17 -0.73,-0.17 -0.34,0 -0.67,0.12 -0.9,0.34l-0.06 0.06c-0.22,0.22 -0.39,0.5 -0.39,0.89l0 36.62 -10.6 0 0 -37.01c-0.11,-0.17 -0.16,-0.34 -0.33,-0.5 0,0 0,0 0,0 -0.28,-0.28 -0.56,-0.4 -0.96,-0.4 -0.28,0 -0.56,0.06 -0.72,0.28 -0.12,0 -0.17,0 -0.17,0.12 -0.17,0.05 -0.28,0.22 -0.34,0.39 -0.06,0.11 -0.06,0.17 -0.06,0.28 -0.78,2.58 -2.24,4.93 -4.26,7.01 -3.31,3.31 -7.34,4.93 -12,4.93 -4.71,0 -8.69,-1.62 -12,-4.93 -3.31,-3.25 -4.99,-7.24 -4.99,-11.95 0,-4.65 1.68,-8.63 4.99,-11.94 3.31,-3.25 7.29,-4.94 12,-4.94 0.28,0 0.67,0 1.01,0.06 2.19,0.11 4.26,0.62 6.17,1.51 1.74,0.79 3.36,1.91 4.82,3.37 1.91,1.96 3.31,4.15 4.1,6.62 0.05,0.16 0.11,0.33 0.16,0.5 0.06,0.11 0.17,0.22 0.28,0.28 0,0.06 0.12,0.11 0.17,0.17 0.23,0.17 0.51,0.22 0.79,0.22 0.39,0 0.67,-0.11 0.95,-0.33l0 -0.06c0.23,-0.17 0.28,-0.28 0.39,-0.5l0 -6.34c0,-1.18 -0.61,-2.41 -1.9,-3.93 -0.4,-0.44 -0.79,-0.89 -1.24,-1.29 -1.12,-0.73 -2.18,-1.56 -3.19,-2.52 -3.26,-3.31 -4.94,-7.29 -4.94,-12 0,-4.66 1.68,-8.64 4.94,-11.89z"/>
   <path class="fil0" d="M242.52 -190.29c-0.61,-0.62 -1.29,-1.12 -2.13,-1.4 0.11,-0.84 -0.05,-1.69 -0.39,-2.47 -1.52,1.18 -1.85,2.8 -1.07,4.93l-0.67 0.85 -2.47 0 -4.26 2.58 0 2.35 1.51 1.4 4.55 0 3.42 -1.4c0.56,0.9 0.78,1.85 0.84,2.97 0.11,0.79 0.39,1.52 0.84,2.19 0.17,0.45 0,0.9 -0.45,1.46l0 4.49 3.2 1.34 3.76 0 1.23 -0.78c1.12,-0.23 1.63,-0.79 1.57,-1.74l1.01 -2.75 -0.39 -1.63c0.39,-1.06 1.12,-1.74 2.24,-2.02l0 -1.73 5.16 0c1.46,0 2.36,-0.51 2.75,-1.52 -1.12,-2.24 -2.58,-3.81 -4.49,-4.77 -0.34,0.45 -0.67,0.79 -1.06,0.96 -0.17,-0.56 -0.57,-1.18 -1.13,-1.8 0.4,-0.28 0.84,-0.39 1.35,-0.33 -0.06,-2.3 -0.9,-3.93 -2.47,-4.77 0.11,1.18 -0.11,2.41 -0.45,3.59 -1.57,-0.62 -3.31,-0.84 -5.21,-0.73l-2.47 0c-1.74,-0.45 -3.14,-0.17 -4.32,0.73zm-1.9 0.06l0 0 0.73 0 0.89 0.72 0 0.45 -0.73 0 -0.89 -1.17zm4.87 -0.51l0 0 0 0.51 -1.12 1 -1.18 0 0 -0.84 1.41 -0.67 0.89 0zm8.81 2.58l0 0 0 -1.23 1.4 -1.69 0.17 1.91 -0.73 1.01 -0.84 0zm-0.11 3.7l0 0 0.95 0 1.29 0.45 0.56 0.67 0.28 -0.73 1.91 0.23 0.28 1.51 -3.98 0 -1.8 -1.01 0 -0.56 0.51 -0.56zm0.78 -1.68l0 0 1.68 -0.34 -1.28 1.07 -0.4 -0.73zm-3.81 -2.47l0 0 0 0.62 -0.95 0.78 0 0.34 1.45 0 -0.5 0.84 -1.74 3.31 -0.22 0.84 0.84 0.34 1.46 -1.4 0.89 0 -0.89 2.18 0 2.08 0.67 1.12 0.17 1.57 -1.24 2.58 -2.24 0 0 -0.62 2.47 -1.51c0,-0.45 -0.4,-0.79 -1.12,-0.96 -0.73,0.68 -1.74,1.07 -3.09,1.18 -0.73,-0.11 -1.46,-0.45 -2.13,-1.01 -0.62,0.11 -0.95,0.51 -0.95,1.01l1.79 1.24 0 0.67 -1.79 0c-0.68,-0.11 -1.07,-0.34 -1.29,-0.67l0 -2.64 2.02 -2.86 0.33 -2.36 -1.06 -1.4 -0.23 -0.89 -1.01 0 0 -0.79 1.57 -1.06 2.08 0 0 -1.41 -0.79 -0.73 -1.9 0.17 2.74 -1.46 0.62 0 0.9 0.28 0.9 -0.33 0.84 0 1.4 0.95zm-7.63 2.02l0 0 -0.45 0.73 -3.08 -1.29 2.91 0 0.62 0.56zm-4.37 1.01l0 0 1.46 0 0.39 0.39 0 0.84 -3.42 1.69 -3.48 0 -1.07 -1.46 1.29 -0.39 3.93 0 0.9 -1.07z"/>
   <path class="fil0" d="M216.84 -158.55l-5.16 -3.08 0.73 7.45 0.67 1.24 1.57 1.68 0.23 2.97 1.96 1.57 1.18 0.73 1.79 2.25 1.68 0.67 2.41 0 0.4 -0.23 1.17 0 0.45 0.17 3.09 0 5.55 -4.26 -0.17 -2.69 -1.74 -2.64 -1.57 0 -0.95 -0.61 -1.12 -1.63 0 -1.57 1.17 -2.92 -1.12 -2.46 -3.03 1.96 -1.17 -0.23 -5.05 0 -1.91 1.29 -1.06 0.34zm-1.63 -0.39l0 0 1.51 1.62 0.96 1.8 0.62 -0.34 0 -2.35 1.96 0 1.01 -1.46 1.57 0 0.39 0.28 0.56 -0.34 1.18 0.23 1.79 1.74 1.29 1.73 0.4 1.69 2.01 2.46 -0.33 0.9 -1.52 0.79 -1.34 0 -0.62 0.33 0 1.57 -1.68 1.29 0.67 0.73 1.91 1.35 0 0.5 -1.96 -0.16 -1.01 -0.79 -0.96 0 -1.23 -2.02 0.34 1.91 -0.84 0 -0.85 -0.79 -0.44 0.51 -0.79 0 -1.18 -1.57 0 -0.84 -1.57 -1.29 0 -1.18 0.51 -0.39 -0.45 -0.34 0 -2.58 -1.63 -1.8 -0.78 -2.46 -0.4 -0.73 0.9 0zm-2.3 2.02l0 0 0.73 0.33 0 1.63 0.56 0.9 1.12 0 0.17 1.85 -0.78 0 -1.8 -2.36 0 -2.35zm4.77 8.91l0 0 0 0.68 -0.79 0 -1.12 -1.07 0 -0.95 0.56 0.11 1.35 1.23zm9.03 -11.21l0 0 0 -0.68 1.01 -0.67 0.84 -0.17 -0.17 1.35 -1.07 0.84 -0.61 -0.67zm5.38 7.68l0 0 0.39 0 0.68 0.73 0 0.73 -0.62 0.73 0 1.23 1.35 0.39 0 0.4 -1.24 1.12 -2.24 0 -0.73 -0.9 0 -2.02 0.28 -0.73 2.13 -1.68z"/>
   <polygon class="fil0" points="220.54,-153.33 222.89,-153.05 223.74,-153.73 222.89,-154.57 221.44,-154.74 220.54,-154.06 "/>
   <polygon class="fil0" points="230.35,-148.79 230.35,-147.73 231.03,-147.45 231.7,-147.89 231.7,-148.79 230.8,-149.46 "/>
   <path class="fil0" d="M262.65 -158.27l0 0.9 1.58 1.29 0.33 4.2 -1.01 1.46 -1.34 1.29 -0.28 1.12 0 2.02 0.33 0.9 2.75 2.02 0.9 0.39 0.5 -0.22 0.84 0 1.01 0.67 1.63 -0.62 1.74 0 0.56 0.28 2.07 0 1.63 1.01 1.12 0.4 0.9 0.84 1.29 -0.28 1.18 -1.01 0 -0.79 -0.62 -0.22 -1.29 0.39 0.22 -1.23 -1.17 -0.17 -0.68 0.39 -1.12 0 -0.5 -0.28 -1.85 -0.28 0.28 -0.78 1.96 -1.46 1.51 -0.56 1.63 -1.35 0.28 -2.3 -0.73 0.73 -1.06 1.63 -1.41 0.22 -3.02 2.3 -0.56 0.9 -0.85 0 -0.61 -1.01 0 -1.29 0.89 -1.29 -0.61 0 -0.62 0.78 -1.12 -0.89 -1.18 0.84 -1.4 0 -1.18 0.89 -1.01 -0.16 -1.06 -1.07 -0.56 -1.07 1.17 -1.06 0.9 0.73 1.96 0 2.64 -2.08 0.39 -3.25 3.37 -3.81 0.17 -0.9 -0.73 -0.84 1.06 -1.12 2.24 0 0.9 0.61 0 0.96 -0.9 0.73 0.45 0.67 0.9 -0.67 0.95 0 -0.33 0.84 -1.46 1.01 0.5 0.84 2.53 -0.51 2.97 0 0.67 1.01 -0.84 0.9 -3.19 0.34 -1.18 -0.62 -0.45 0 1.51 1.23 3.82 -0.45 1.23 -1.34 0.84 0.28 -0.95 -2.13 -1.46 -1.18 -4.37 -1.74 -1.58 -1.62 -2.85 -0.12 -5.39 0.28 -0.73 0.73 -1.4 0 -1.01 1.12 -1.06 0 -0.73 -0.28 -1.63 0.45 0.78 1.46zm0.79 -0.39l0 0 0.06 -0.73 1.17 0 0.51 0.73 -0.51 0.45 -1.23 -0.45zm6.34 -2.19l0 0 -1.12 0.73 0 -0.84 1.12 0.11zm-1.74 2.08l0 0 1.57 0.39 2.02 -1.01 1.01 0.28 0 0.95 -2.53 2.41 -0.78 1.29 -0.28 2.87 -2.36 2.01 -1.06 0 -0.9 -0.5 -0.17 -0.79 0.84 -1.34 0.68 -2.3 0.16 -3.7 1.8 -0.56z"/>
   <polygon class="fil0" points="272.19,-155.58 271.35,-154.85 271.63,-152.66 273.37,-153.61 274.54,-154.79 273.48,-155.47 "/>
   <g>
    <polygon class="fil2" points="546.75,-113.73 547.13,-115.05 545.91,-115.05 545.44,-113.73 "/>
    <polygon class="fil2" points="545.63,-124.05 544.78,-124.05 541.22,-113.73 542.06,-113.73 "/>
    <path class="fil2" d="M536.9 -121.33l-0.19 0c-0.46,-0.1 -0.93,0 -1.4,0.37 -0.47,0.19 -0.85,0.57 -1.22,1.04l0.47 -1.32 -0.85 0 -2.62 7.51 0.84 0 1.41 -4.13c0.37,-0.84 0.75,-1.5 1.31,-1.97 0.47,-0.38 1.03,-0.66 1.78,-0.66l0.19 0 0.28 -0.84z"/>
    <polygon class="fil2" points="537.09,-115.05 536.62,-113.73 537.93,-113.73 538.4,-115.05 "/>
    <path class="fil2" d="M525.08 -120.77c-0.37,-0.37 -1.03,-0.66 -1.87,-0.56 -0.75,-0.1 -1.41,0.19 -2.07,0.56 -0.65,0.38 -1.03,0.94 -1.22,1.6 -0.28,0.56 -0.18,1.03 0.19,1.31 0.28,0.28 0.84,0.47 1.78,0.84 0.75,0.1 1.13,0.28 1.32,0.38 0.28,0.19 0.37,0.56 0.28,0.94 -0.19,0.47 -0.47,0.75 -0.94,1.03 -0.47,0.28 -0.94,0.37 -1.6,0.47 -0.56,-0.1 -1.03,-0.28 -1.21,-0.56 -0.29,-0.29 -0.38,-0.76 -0.19,-1.22l-0.85 0c-0.28,0.75 -0.28,1.31 0.19,1.78 0.28,0.47 0.94,0.75 1.78,0.75 0.94,0 1.69,-0.28 2.35,-0.66 0.65,-0.37 1.12,-0.84 1.31,-1.5 0.19,-0.66 0.19,-1.13 -0.09,-1.41 -0.28,-0.28 -0.75,-0.56 -1.5,-0.75l-0.28 -0.09c-0.75,-0.19 -1.22,-0.38 -1.41,-0.47 -0.28,-0.28 -0.38,-0.56 -0.19,-1.03 0.09,-0.38 0.38,-0.66 0.75,-0.85 0.38,-0.37 0.75,-0.46 1.31,-0.46 0.57,0 0.94,0.09 1.32,0.46 0.19,0.29 0.28,0.75 0.09,1.22l0.94 0c0.19,-0.75 0.09,-1.4 -0.19,-1.78z"/>
    <polygon class="fil2" points="528.37,-115.05 526.96,-115.05 526.49,-113.73 527.9,-113.73 "/>
    <g>
     <polygon class="fil0" points="480.63,-175.4 478.94,-175.4 478.94,-164.52 469.28,-175.4 467.4,-175.4 467.4,-162.46 469.09,-162.46 469.09,-173.43 478.75,-162.46 480.63,-162.46 "/>
     <polygon class="fil0" points="483.72,-174.37 489.45,-174.37 489.45,-162.46 491.13,-162.46 491.13,-174.37 496.95,-174.37 496.95,-175.4 483.72,-175.4 "/>
     <polygon class="fil0" points="446.39,-175.4 443.95,-175.4 438.32,-164.33 432.69,-175.4 430.25,-175.4 430.25,-162.46 431.94,-162.46 431.94,-173.62 437.57,-162.46 438.98,-162.46 444.7,-173.62 444.7,-162.46 446.39,-162.46 "/>
     <polygon class="fil0" points="452.86,-174.37 463.37,-174.37 463.37,-175.4 451.08,-175.4 451.08,-162.46 463.65,-162.46 463.65,-163.58 452.86,-163.58 452.86,-168.65 462.43,-168.65 462.43,-169.68 452.86,-169.68 "/>
     <polygon class="fil0" points="425.56,-175.4 423.78,-175.4 423.78,-162.46 425.56,-162.46 "/>
     <path class="fil0" d="M399.29 -175.4l-2.06 0 -7.13 12.94 1.78 0 2.16 -3.94 8.44 0 2.07 3.94 1.78 0 -7.04 -12.94zm-1.12 1.31l0 0 3.66 6.57 -7.13 0 3.47 -6.57z"/>
     <polygon class="fil0" points="411.3,-175.4 409.61,-175.4 409.61,-162.46 420.87,-162.46 420.87,-163.58 411.3,-163.58 "/>
     <path class="fil0" d="M360.36 -171.93c0,-0.66 -0.19,-1.22 -0.66,-1.78 -0.37,-0.47 -0.93,-0.85 -1.68,-1.13 -0.66,-0.28 -1.22,-0.47 -2.16,-0.47 -0.56,-0.09 -1.41,-0.09 -2.63,-0.09l-6.19 0 0 12.94 1.69 0 0 -5.81 5.44 0c1.5,0 2.53,0.18 3,0.56 0.38,0.28 0.66,1.03 0.85,2.16l0.18 1.78c0.1,0.28 0.1,0.56 0.1,0.75 0.09,0.19 0.19,0.38 0.28,0.56l1.97 0 0 -0.18c-0.19,-0.1 -0.38,-0.29 -0.47,-0.47 -0.09,-0.19 -0.09,-0.38 -0.19,-0.66l-0.19 -1.97c-0.18,-1.03 -0.37,-1.69 -0.56,-1.97 -0.37,-0.56 -0.94,-0.94 -1.78,-1.03 0.94,-0.28 1.69,-0.66 2.16,-1.22 0.56,-0.47 0.84,-1.22 0.84,-1.97zm-3.19 -1.97l0 0c0.47,0.19 0.85,0.47 1.03,0.84 0.19,0.38 0.38,0.75 0.38,1.13 0,0.94 -0.47,1.69 -1.22,2.06 -0.75,0.38 -1.97,0.56 -3.75,0.56l-4.88 0 0 -5.06 4.88 0c0.84,0 1.59,0 1.97,0.09 0.65,0.1 1.22,0.19 1.59,0.38z"/>
     <path class="fil0" d="M371.43 -175.68c-2.34,-0.1 -4.31,0.56 -5.72,1.78 -1.5,1.22 -2.25,2.91 -2.25,4.97 0,2.06 0.75,3.75 2.25,4.97 1.41,1.22 3.38,1.88 5.72,1.88 2.53,0 4.5,-0.66 6.01,-1.88 1.5,-1.22 2.25,-2.81 2.25,-4.97 0,-2.06 -0.75,-3.75 -2.25,-4.97 -1.51,-1.22 -3.48,-1.88 -6.01,-1.78zm-4.5 2.53l0 0c1.12,-1.03 2.63,-1.5 4.5,-1.5 1.97,0 3.57,0.47 4.69,1.5 1.32,1.03 1.88,2.44 1.88,4.22 0,1.78 -0.56,3.19 -1.88,4.22 -1.12,0.94 -2.72,1.5 -4.69,1.5 -1.87,0 -3.38,-0.56 -4.5,-1.5 -1.22,-1.03 -1.78,-2.44 -1.78,-4.22 0,-1.78 0.56,-3.19 1.78,-4.22z"/>
     <path class="fil0" d="M334.84 -174.65c1.41,0 2.63,0.28 3.57,0.75 1.03,0.56 1.59,1.31 1.97,2.25l1.69 0c-0.28,-1.31 -1.03,-2.25 -2.35,-3 -1.31,-0.75 -3,-1.03 -4.88,-1.03 -2.43,-0.1 -4.31,0.47 -5.81,1.68 -1.5,1.22 -2.25,2.91 -2.25,5.07 0,2.06 0.75,3.75 2.25,4.97 1.5,1.22 3.38,1.88 5.63,1.88 1.31,0 2.53,-0.28 3.56,-0.75 1.13,-0.47 1.97,-1.03 2.63,-1.78l0.09 2.15 1.41 0 0 -6.66 -7.41 0 0 1.13 5.72 0c0,1.5 -0.56,2.72 -1.69,3.56 -1.03,0.85 -2.53,1.22 -4.41,1.22 -1.78,0 -3.19,-0.47 -4.41,-1.5 -1.03,-1.12 -1.5,-2.53 -1.5,-4.22 0,-1.88 0.47,-3.28 1.5,-4.31 1.22,-0.94 2.72,-1.41 4.69,-1.41z"/>
     <path class="fil0" d="M317.3 -175.4l-1.97 0 -7.03 12.94 1.68 0 2.16 -3.94 8.35 0 2.07 3.94 1.87 0 -7.13 -12.94zm2.63 7.88l0 0 -7.22 0 3.56 -6.57 3.66 6.57z"/>
     <polygon class="fil0" points="547.33,-174.37 547.33,-175.4 535.13,-175.4 535.13,-162.46 547.61,-162.46 547.61,-163.58 536.82,-163.58 536.82,-168.65 546.39,-168.65 546.39,-169.68 536.82,-169.68 536.82,-174.37 "/>
     <path class="fil0" d="M524.06 -175.4l-6.28 0 0 12.94 1.68 0 0 -5.81 5.45 0c1.5,0 2.43,0.18 3,0.56 0.37,0.28 0.75,1.03 0.84,2.16l0.19 1.78c0.09,0.28 0.09,0.56 0.09,0.75 0.1,0.19 0.19,0.38 0.38,0.56l1.78 0 0 -0.18c-0.09,-0.1 -0.28,-0.29 -0.37,-0.47 -0.1,-0.19 -0.1,-0.38 -0.19,-0.66l-0.19 -1.97c-0.19,-1.03 -0.28,-1.69 -0.56,-1.97 -0.38,-0.56 -0.94,-0.94 -1.78,-1.03 0.93,-0.28 1.68,-0.66 2.15,-1.22 0.57,-0.47 0.85,-1.22 0.85,-1.97 0,-0.66 -0.19,-1.22 -0.66,-1.78 -0.37,-0.47 -0.94,-0.85 -1.69,-1.13 -0.56,-0.28 -1.22,-0.47 -2.16,-0.47 -0.56,-0.09 -1.4,-0.09 -2.53,-0.09zm-4.6 1.03l0 0 4.88 0c0.94,0 1.6,0 1.97,0.09 0.66,0.1 1.22,0.19 1.6,0.38 0.47,0.19 0.84,0.47 1.03,0.84 0.28,0.38 0.38,0.75 0.38,1.13 0,0.94 -0.38,1.69 -1.13,2.06 -0.85,0.38 -2.06,0.56 -3.75,0.56l-4.98 0 0 -5.06z"/>
     <path class="fil0" d="M507.55 -175.4l-2.06 0 -7.13 12.94 1.78 0 2.16 -3.94 8.44 0 2.06 3.94 1.79 0 -7.04 -12.94zm2.53 7.88l0 0 -7.13 0 3.48 -6.57 3.65 6.57z"/>
    </g>
    <g>
     <polygon class="fil0" points="386.63,-154.86 379.22,-154.86 379.22,-143.51 369.74,-154.86 362.52,-154.86 362.52,-134.5 369.74,-134.5 369.74,-145.66 379.22,-134.5 386.63,-134.5 "/>
     <path class="fil0" d="M351.73 -134.5l8.16 0 -9.38 -20.36 -8.63 0 -9.38 20.36 7.88 0 1.31 -3.28 8.82 0 1.22 3.28zm-5.63 -15.01l0 0 2.72 7.22 -5.44 0 2.72 -7.22z"/>
     <path class="fil0" d="M313.64 -154.39c-1.59,0.47 -2.72,1.22 -3.37,2.25 -0.75,0.94 -1.22,1.88 -1.13,2.91 -0.09,1.6 0.66,2.91 2.16,3.94 1.41,1.03 3.84,1.88 7.41,2.53 2.06,0.28 3.47,0.75 3.94,1.13 0.56,0.37 0.84,0.84 0.94,1.41 -0.1,0.56 -0.47,1.03 -1.03,1.5 -0.57,0.37 -1.5,0.65 -2.54,0.65 -1.59,0 -2.72,-0.47 -3.47,-1.31 -0.47,-0.56 -0.84,-1.13 -0.94,-2.16l-7.41 0.38c0.19,1.97 1.22,3.75 2.72,5.06 1.69,1.32 4.69,1.97 8.92,2.07 2.53,0 4.59,-0.28 6.09,-0.85 1.69,-0.65 2.82,-1.5 3.76,-2.53 0.93,-1.22 1.4,-2.34 1.4,-3.66 0,-1.22 -0.37,-2.16 -1.03,-3 -0.75,-0.94 -1.78,-1.69 -3.19,-2.25 -1.5,-0.66 -3.94,-1.31 -7.41,-1.78 -1.41,-0.38 -2.25,-0.57 -2.53,-0.85 -0.38,-0.37 -0.57,-0.56 -0.57,-0.84 0,-0.47 0.19,-0.75 0.66,-1.13 0.47,-0.28 1.03,-0.56 2.07,-0.56 1.03,0 1.87,0.28 2.62,0.66 0.47,0.46 0.94,1.12 1.22,2.06l7.22 -0.28c-0.28,-2.16 -1.22,-3.66 -2.9,-4.6 -1.79,-1.03 -4.22,-1.5 -7.41,-1.5 -2.73,0 -4.79,0.19 -6.2,0.75z"/>
     <path class="fil0" d="M469.37 -154.86l-12.95 0 0 20.36 7.88 0 0 -8.16 0.57 0c0.75,0 1.4,0.09 1.97,0.37 0.28,0.38 0.84,0.85 1.4,1.6l4.13 6.19 8.82 0 -3.75 -5.82c-0.19,-0.37 -0.57,-0.75 -1.03,-1.31 -0.57,-0.47 -1.04,-0.94 -1.32,-1.03 -0.47,-0.38 -1.03,-0.57 -2.06,-0.75 1.22,-0.19 2.06,-0.57 2.81,-0.85 0.94,-0.56 1.78,-1.22 2.44,-1.97 0.56,-0.84 0.85,-1.78 0.85,-3 0,-1.22 -0.38,-2.34 -1.13,-3.28 -0.75,-0.94 -1.88,-1.5 -3.1,-1.78 -1.31,-0.38 -3.09,-0.57 -5.53,-0.57zm-1.69 4.13l0 0c1.41,-0.09 2.35,0.19 2.91,0.47 0.56,0.28 0.75,0.84 0.75,1.59 0,0.47 -0.19,0.85 -0.56,1.22 -0.28,0.28 -0.66,0.47 -1.13,0.57 -1.12,0.28 -1.87,0.37 -2.16,0.37l-3.19 0 0 -4.22 3.38 0z"/>
     <path class="fil0" d="M432.6 -137.78l1.31 3.28 8.16 0 -9.47 -20.36 -8.45 0 -9.57 20.36 7.98 0 1.31 -3.28 8.73 0zm-1.6 -4.51l0 0 -5.53 0 2.72 -7.22 2.81 7.22z"/>
     <polygon class="fil0" points="413.65,-149.79 413.65,-154.86 389.91,-154.86 389.91,-149.79 397.89,-149.79 397.89,-134.5 405.67,-134.5 405.67,-149.79 "/>
     <path class="fil0" d="M538.23 -154.86l-8.45 0 -9.47 20.36 7.97 0 1.22 -3.28 8.73 0 1.31 3.28 8.16 0 -9.47 -20.36zm-1.5 12.57l0 0 -5.54 0 2.82 -7.22 2.72 7.22z"/>
     <polygon class="fil0" points="519.28,-149.79 519.28,-154.86 495.73,-154.86 495.73,-149.79 503.61,-149.79 503.61,-134.5 511.3,-134.5 511.3,-149.79 "/>
     <polygon class="fil0" points="491.79,-154.86 484,-154.86 484,-134.5 491.79,-134.5 "/>
    </g>
   </g>
  </g>
 </g>
</svg>
