<?xml version="1.0" encoding="UTF-8"?>
<!DOCTYPE svg PUBLIC "-//W3C//DTD SVG 1.1//EN" "http://www.w3.org/Graphics/SVG/1.1/DTD/svg11.dtd">
<!-- Creator: CorelDRAW -->
<svg xmlns="http://www.w3.org/2000/svg" xml:space="preserve" width="105.833mm" height="84.6666mm" version="1.1" style="shape-rendering:geometricPrecision; text-rendering:geometricPrecision; image-rendering:optimizeQuality; fill-rule:evenodd; clip-rule:evenodd"
viewBox="0 0 10583.32 8466.66"
 xmlns:xlink="http://www.w3.org/1999/xlink"
 xmlns:xodm="http://www.corel.com/coreldraw/odm/2003">
 <defs>
  <style type="text/css">
   <![CDATA[
    .fil0 {fill:#E31E24;fill-rule:nonzero}
    .fil1 {fill:#B5B5B5;fill-rule:nonzero}
   ]]>
  </style>
 </defs>
 <g id="Livello_x0020_1">
  <metadata id="CorelCorpID_0Corel-Layer"/>
  <g id="_1538237675680">
   <path class="fil0" d="M4704.29 347.49c-328.08,0 -610.3,116.42 -843.14,349.25 -232.83,232.83 -352.77,511.53 -352.77,839.61 0,331.61 119.94,610.31 352.77,843.14 24.7,21.17 49.39,45.86 74.09,70.56 35.27,24.69 67.02,52.91 98.77,81.14 116.42,102.3 179.92,183.44 186.98,246.94l0 155.22c-56.45,-98.78 -127,-194.03 -211.67,-278.69 -45.86,-45.86 -95.25,-88.2 -144.64,-123.47 -186.97,-137.59 -402.17,-215.2 -638.53,-222.25 -21.16,-3.53 -45.86,-3.53 -63.5,0 -331.61,0 -613.83,112.88 -843.14,345.72 -236.36,229.3 -352.77,511.53 -352.77,839.61 0,331.61 116.41,613.83 352.77,843.14 229.31,232.83 511.53,345.72 843.14,349.25 328.09,-3.53 610.31,-116.42 846.67,-349.25 84.67,-88.2 155.22,-186.97 211.67,-299.86l0 2084.91 -4039.31 3.53 0 130.53 9013.46 3.53 0 -137.59 -4053.4 0 0 -2081.39c56.44,105.84 130.52,204.62 222.25,296.34 232.83,232.83 515.05,345.72 846.66,349.25 328.08,-3.53 610.3,-116.42 846.66,-349.25 229.31,-229.31 345.72,-511.53 345.72,-843.14 0,-328.08 -116.41,-610.31 -345.72,-839.61 -236.36,-232.84 -518.58,-345.72 -846.66,-345.72 -74.08,0 -144.64,3.52 -211.66,17.63 -179.92,24.7 -345.73,95.25 -490.37,204.62 -52.91,35.27 -98.77,77.61 -144.63,123.47 -91.73,91.72 -165.81,190.5 -222.25,296.33l0 -172.86c28.22,-70.55 102.3,-151.69 222.25,-246.94 31.75,-28.23 67.02,-52.92 109.36,-81.14 24.69,-24.7 52.91,-49.39 77.61,-70.56 232.83,-232.83 349.25,-511.53 349.25,-843.14 0,-328.08 -116.42,-606.78 -349.25,-839.61 -232.84,-232.83 -515.06,-349.25 -846.67,-349.25zm-754.94 440.97l0 0c208.14,-208.14 462.14,-313.97 754.94,-313.97 296.33,0 546.81,105.83 754.95,313.97 208.13,204.61 310.44,455.09 313.97,747.89 -3.53,296.34 -105.84,546.81 -313.97,754.95 -63.5,59.97 -130.53,112.89 -201.09,158.75 -42.33,24.69 -77.61,52.91 -109.36,81.14 -81.14,74.08 -127,155.22 -134.05,246.94l0 377.47c0,21.17 10.58,38.81 28.22,52.92 0,3.53 3.53,3.53 7.05,7.05 14.12,10.59 31.75,17.64 56.45,17.64 14.11,0 28.22,0 38.8,-7.05 0,0 3.53,0 7.06,-3.53 7.05,-3.53 10.58,-7.06 14.11,-14.11 7.06,-3.53 14.11,-14.11 17.64,-17.64 3.53,-14.11 7.05,-21.17 7.05,-31.75 52.92,-155.22 141.12,-289.28 264.59,-416.28 91.72,-91.72 190.5,-162.28 299.86,-211.66 77.61,-38.81 155.22,-63.5 243.42,-77.62 67.02,-14.11 137.58,-21.16 211.66,-21.16 292.8,0 546.8,105.83 751.41,310.44 208.14,208.14 310.44,458.61 313.97,751.42 -3.53,296.33 -105.83,546.8 -313.97,751.42 -204.61,208.13 -458.61,310.44 -751.41,310.44 -296.33,0 -546.8,-102.31 -754.94,-310.44 -130.53,-127 -218.72,-275.17 -268.11,-437.45 -3.53,-7.05 -7.06,-17.64 -10.59,-24.69 -3.52,-10.59 -7.05,-17.64 -14.11,-21.17 -7.05,-7.06 -10.58,-14.11 -17.64,-14.11 -14.11,-10.58 -28.22,-10.58 -45.86,-10.58 -21.16,0 -42.33,7.05 -56.44,21.16l-3.53 3.53c-14.11,14.11 -24.69,31.75 -24.69,56.45l0 2303.63 -666.75 0 0 -2328.33c-7.06,-10.58 -10.59,-21.17 -21.17,-31.75 0,0 0,0 0,0 -17.64,-17.64 -35.28,-24.69 -59.97,-24.69 -17.64,0 -35.28,3.52 -45.86,17.63 -7.06,0 -10.59,0 -10.59,7.06 -10.58,3.53 -17.64,14.11 -21.16,24.69 -3.53,7.06 -3.53,10.59 -3.53,17.64 -49.39,162.28 -141.11,310.45 -268.11,440.98 -208.14,208.13 -462.14,310.44 -754.95,310.44 -296.33,0 -546.8,-102.31 -754.94,-310.44 -208.14,-204.62 -313.97,-455.09 -313.97,-751.42 0,-292.81 105.83,-543.28 313.97,-751.42 208.14,-204.61 458.61,-310.44 754.94,-310.44 17.64,0 42.34,0 63.5,3.53 137.59,7.05 268.11,38.8 388.06,95.25 109.36,49.38 211.67,119.94 303.39,211.66 119.94,123.48 208.14,261.06 257.52,416.28 3.53,10.58 7.06,21.17 10.59,31.75 3.53,7.06 10.58,14.11 17.64,17.64 0,3.53 7.05,7.05 10.58,10.58 14.11,10.59 31.75,14.11 49.39,14.11 24.69,0 42.33,-7.05 59.97,-21.16l0 -3.53c14.11,-10.58 17.64,-17.64 24.7,-31.75l0 -398.64c0,-74.08 -38.81,-151.69 -119.95,-246.94 -24.69,-28.23 -49.39,-56.45 -77.61,-81.14 -70.56,-45.86 -137.58,-98.78 -201.08,-158.75 -204.61,-208.14 -310.45,-458.61 -310.45,-754.95 0,-292.8 105.84,-543.28 310.45,-747.89z"/>
   <path class="fil0" d="M4415.01 1077.74c-38.8,-38.8 -81.14,-70.55 -134.05,-88.19 7.05,-52.92 -3.53,-105.84 -24.7,-155.23 -95.25,74.09 -116.41,176.39 -67.02,310.45l-42.34 52.92 -155.22 0 -268.11 162.27 0 148.17 95.25 88.2 285.75 0 215.19 -88.2c35.28,56.44 49.39,116.42 52.92,186.97 7.06,49.39 24.69,95.25 52.92,137.59 10.58,28.22 0,56.44 -28.23,91.72l0 282.22 201.09 84.67 236.36 0 77.61 -49.39c70.56,-14.11 102.31,-49.39 98.78,-109.36l63.5 -172.86 -24.7 -102.31c24.7,-67.03 70.56,-109.36 141.11,-127l0 -109.36 324.56 0c91.72,0 148.17,-31.75 172.86,-95.25 -70.55,-141.11 -162.28,-239.89 -282.22,-299.86 -21.17,28.22 -42.33,49.39 -67.03,59.97 -10.58,-35.28 -35.28,-74.08 -70.55,-112.89 24.69,-17.64 52.91,-24.69 84.66,-21.17 -3.53,-144.63 -56.44,-246.94 -155.22,-299.86 7.06,74.09 -7.06,151.7 -28.22,225.78 -98.78,-38.8 -208.14,-52.92 -328.09,-45.86l-155.22 0c-109.36,-28.22 -197.55,-10.58 -271.64,45.86zm-119.94 3.53l0 0 45.86 0 56.44 45.86 0 28.22 -45.86 0 -56.44 -74.08zm306.92 -31.75l0 0 0 31.75 -70.56 63.5 -74.08 0 0 -52.92 88.19 -42.33 56.45 0zm553.86 162.28l0 0 0 -77.61 88.19 -105.84 10.58 119.95 -45.86 63.5 -52.91 0zm-7.06 232.83l0 0 59.97 0 81.14 28.22 35.28 42.34 17.64 -45.87 119.94 14.12 17.64 95.25 -250.47 0 -112.89 -63.5 0 -35.28 31.75 -35.28zm49.39 -105.83l0 0 105.83 -21.17 -81.13 67.03 -24.7 -45.86zm-239.89 -155.23l0 0 0 38.81 -59.97 49.39 0 21.17 91.72 0 -31.75 52.91 -109.36 208.14 -14.11 52.92 52.92 21.16 91.72 -88.19 56.44 0 -56.44 137.58 0 130.53 42.33 70.56 10.58 98.77 -77.61 162.28 -141.11 0 0 -38.8 155.22 -95.25c0,-28.23 -24.69,-49.39 -70.55,-59.98 -45.86,42.34 -109.36,67.03 -194.03,74.09 -45.86,-7.06 -91.72,-28.22 -134.05,-63.5 -38.81,7.05 -59.98,31.75 -59.98,63.5l112.89 77.61 0 42.33 -112.89 0c-42.33,-7.05 -67.02,-21.16 -81.13,-42.33l0 -165.81 126.99 -179.91 21.17 -148.17 -67.03 -88.19 -14.11 -56.45 -63.5 0 0 -49.39 98.78 -67.03 130.53 0 0 -88.19 -49.39 -45.86 -119.95 10.58 172.87 -91.72 38.8 0 56.45 17.64 56.44 -21.17 52.92 0 88.19 59.97zm-479.78 127l0 0 -28.22 45.87 -194.03 -81.14 183.45 0 38.8 35.27zm-275.16 63.5l0 0 91.72 0 24.69 24.7 0 52.92 -215.19 105.83 -218.72 0 -67.03 -91.72 81.14 -24.7 246.94 0 56.45 -67.03z"/>
   <path class="fil0" d="M2799.29 3074.46l-324.55 -194.02 45.86 469.19 42.33 77.61 98.78 105.83 14.11 186.98 123.47 98.78 74.09 45.86 112.88 141.11 105.84 42.33 151.69 0 24.7 -14.11 74.08 0 28.22 10.58 194.03 0 349.25 -268.11 -10.58 -169.33 -109.36 -165.81 -98.78 0 -59.97 -38.8 -70.56 -102.31 0 -98.78 74.08 -183.44 -70.55 -155.22 -190.5 123.47 -74.09 -14.11 -317.5 0 -119.94 81.14 -67.03 21.16zm-102.3 -24.69l0 0 95.25 102.3 59.97 112.89 38.8 -21.16 0 -148.17 123.48 0 63.5 -91.72 98.77 0 24.7 17.64 35.28 -21.17 74.08 14.11 112.89 109.36 81.14 109.36 24.69 105.84 127 155.22 -21.16 56.44 -95.26 49.39 -84.66 0 -38.81 21.17 0 98.78 -105.83 81.14 42.33 45.86 119.95 84.66 0 31.75 -123.47 -10.58 -63.51 -49.39 -59.97 0 -77.61 -127 21.17 119.95 -52.92 0 -52.92 -49.39 -28.22 31.75 -49.39 0 -74.08 -98.78 0 -52.92 -98.78 -81.14 0 -74.08 31.75 -24.69 -28.22 -21.17 0 -162.28 -102.3 -112.89 -49.39 -155.22 -24.7 -45.86 56.45 0zm-144.64 127l0 0 45.86 21.17 0 102.3 35.28 56.45 70.55 0 10.59 116.41 -49.39 0 -112.89 -148.16 0 -148.17zm299.86 560.92l0 0 0 42.33 -49.39 0 -70.56 -67.03 0 -59.97 35.28 7.06 84.67 77.61zm567.97 -705.56l0 0 0 -42.33 63.5 -42.34 52.92 -10.58 -10.59 84.67 -67.02 52.91 -38.81 -42.33zm338.67 483.31l0 0 24.69 0 42.34 45.86 0 45.86 -38.81 45.86 0 77.61 84.67 24.69 0 24.7 -77.61 70.55 -141.12 0 -45.86 -56.44 0 -127 17.64 -45.86 134.06 -105.83z"/>
   <polygon class="fil0" points="3032.13,3402.55 3180.29,3420.19 3233.21,3377.85 3180.29,3324.94 3088.57,3314.35 3032.13,3356.69 "/>
   <polygon class="fil0" points="3649.49,3688.3 3649.49,3755.32 3691.82,3772.96 3734.15,3744.74 3734.15,3688.3 3677.71,3645.96 "/>
   <path class="fil0" d="M5681.49 3092.1l0 56.45 98.77 81.14 21.17 264.58 -63.5 91.72 -84.67 81.14 -17.64 70.56 0 127 21.17 56.44 172.86 127 56.45 24.69 31.75 -14.11 52.91 0 63.5 42.34 102.31 -38.81 109.35 0 35.28 17.64 130.53 0 102.3 63.5 70.56 24.69 56.44 52.92 81.14 -17.64 74.08 -63.5 0 -49.39 -38.8 -14.11 -81.14 24.7 14.11 -77.61 -74.08 -10.59 -42.34 24.7 -70.55 0 -31.75 -17.64 -116.42 -17.64 17.64 -49.39 123.47 -91.72 95.25 -35.28 102.31 -84.67 17.64 -144.64 -45.86 45.87 -67.03 102.3 -88.2 14.11 -190.5 144.64 -35.27 56.45 -52.91 0 -38.81 -63.5 0 -81.14 56.44 -81.14 -38.8 0 -38.8 49.39 -70.56 -56.45 -74.08 52.92 -88.2 0 -74.08 56.44 -63.5 -10.58 -67.03 -67.03 -35.27 -67.03 74.08 -67.02 56.44 45.86 123.47 0 165.81 -130.53 24.69 -204.61 211.66 -239.89 10.59 -56.44 -45.87 -52.92 67.03 -70.56 141.11 0 56.45 38.81 0 59.97 -56.45 45.86 28.23 42.34 56.44 -42.34 59.97 0 -21.16 52.92 -91.73 63.5 31.75 52.92 158.75 -31.75 186.98 0 42.33 63.5 -52.92 56.44 -201.08 21.17 -74.08 -38.81 -28.23 0 95.25 77.61 239.89 -28.22 77.61 -84.67 52.92 17.64 -59.97 -134.05 -91.72 -74.09 -275.17 -109.36 -98.78 -102.3 -179.92 -7.06 -338.65 17.64 -45.86 45.86 -88.2 0 -63.5 70.56 -67.03 0 -45.86 -17.64 -102.3 28.22 49.39 91.72zm49.38 -24.69l0 0 3.53 -45.86 74.09 0 31.75 45.86 -31.75 28.22 -77.62 -28.22zm398.64 -137.59l0 0 -70.55 45.87 0 -52.92 70.55 7.05zm-109.36 130.53l0 0 98.78 24.7 126.99 -63.5 63.5 17.64 0 59.97 -158.74 151.69 -49.39 81.14 -17.64 179.92 -148.16 127 -67.03 0 -56.45 -31.75 -10.58 -49.39 52.92 -84.67 42.33 -144.64 10.58 -232.83 112.89 -35.28z"/>
   <polygon class="fil0" points="6281.2,3261.44 6228.29,3307.3 6245.92,3444.88 6355.28,3384.91 6429.37,3310.82 6362.34,3268.49 "/>
   <polygon class="fil1" points="10387.53,8094.47 10401.64,8045.08 10355.78,8045.08 10338.14,8094.47 "/>
   <polygon class="fil1" points="10345.2,7706.43 10313.45,7706.43 10179.39,8094.47 10211.14,8094.47 "/>
   <path class="fil1" d="M10017.12 7808.73l-7.06 0c-17.64,-3.53 -35.28,0 -52.92,14.11 -17.64,7.06 -31.75,21.17 -45.86,38.81l17.64 -49.39 -31.75 0 -98.78 282.21 31.75 0 52.92 -155.21c14.11,-31.75 28.22,-56.45 49.39,-74.08 17.64,-14.11 38.8,-24.7 67.03,-24.7l7.05 0 10.59 -31.75z"/>
   <polygon class="fil1" points="10024.17,8045.08 10006.53,8094.47 10055.92,8094.47 10073.56,8045.08 "/>
   <path class="fil1" d="M9572.62 7829.9c-14.12,-14.11 -38.81,-24.7 -70.56,-21.17 -28.22,-3.53 -52.92,7.06 -77.61,21.17 -24.7,14.11 -38.81,35.28 -45.86,59.97 -10.59,21.17 -7.06,38.81 7.05,49.39 10.59,10.58 31.75,17.64 67.03,31.75 28.22,3.53 42.33,10.58 49.39,14.11 10.58,7.06 14.11,21.17 10.58,35.28 -7.05,17.63 -17.64,28.21 -35.27,38.79 -17.64,10.59 -35.28,14.12 -59.98,17.64 -21.16,-3.52 -38.8,-10.58 -45.86,-21.16 -10.58,-10.59 -14.11,-28.23 -7.05,-45.85l-31.75 0c-10.59,28.21 -10.59,49.37 7.05,67.01 10.59,17.64 35.28,28.23 67.03,28.23 35.28,0 63.5,-10.59 88.19,-24.7 24.7,-14.11 42.34,-31.75 49.39,-56.43 7.06,-24.7 7.06,-42.34 -3.52,-52.92 -10.59,-10.58 -28.23,-21.17 -56.45,-28.22l-10.58 -3.53c-28.22,-7.06 -45.86,-14.11 -52.92,-17.64 -10.58,-10.58 -14.11,-21.17 -7.05,-38.81 3.52,-14.11 14.11,-24.69 28.22,-31.74 14.11,-14.12 28.22,-17.64 49.39,-17.64 21.16,0 35.27,3.52 49.39,17.64 7.05,10.58 10.58,28.22 3.52,45.86l35.28 0c7.06,-28.23 3.53,-52.92 -7.05,-67.03z"/>
   <polygon class="fil1" points="9696.09,8045.08 9643.17,8045.08 9625.53,8094.47 9678.45,8094.47 "/>
   <g>
    <polygon class="fil0" points="6679.84,6563.44 6616.34,6563.44 6616.34,6972.65 6252.98,6563.44 6182.43,6563.44 6182.43,7050.26 6245.92,7050.26 6245.92,6637.52 6609.28,7050.26 6679.84,7050.26 "/>
    <polygon class="fil0" points="6796.25,6602.24 7011.45,6602.24 7011.45,7050.26 7074.95,7050.26 7074.95,6602.24 7293.67,6602.24 7293.67,6563.44 6796.25,6563.44 "/>
    <polygon class="fil0" points="5392.21,6563.44 5300.49,6563.44 5088.82,6979.7 4877.15,6563.44 4785.43,6563.44 4785.43,7050.26 4848.93,7050.26 4848.93,6630.46 5060.6,7050.26 5113.51,7050.26 5328.71,6630.46 5328.71,7050.26 5392.21,7050.26 "/>
    <polygon class="fil0" points="5635.62,6602.24 6030.74,6602.24 6030.74,6563.44 5568.6,6563.44 5568.6,7050.26 6041.32,7050.26 6041.32,7007.93 5635.62,7007.93 5635.62,6817.43 5995.46,6817.43 5995.46,6778.62 5635.62,6778.62 "/>
    <polygon class="fil0" points="4609.04,6563.44 4542.01,6563.44 4542.01,7050.26 4609.04,7050.26 "/>
    <path class="fil0" d="M3621.26 6563.44l-77.61 0 -268.11 486.82 67.03 0 81.14 -148.17 317.5 0 77.61 148.17 67.03 0 -264.59 -486.82zm-42.33 49.38l0 0 137.58 246.94 -268.11 0 130.53 -246.94z"/>
    <polygon class="fil0" points="4072.82,6563.44 4009.32,6563.44 4009.32,7050.26 4432.65,7050.26 4432.65,7007.93 4072.82,7007.93 "/>
    <path class="fil0" d="M2157.24 6693.96c0,-24.69 -7.06,-45.86 -24.7,-67.02 -14.11,-17.64 -35.28,-31.75 -63.5,-42.34 -24.69,-10.58 -45.86,-17.64 -81.14,-17.64 -21.16,-3.52 -52.91,-3.52 -98.77,-3.52l-232.84 0 0 486.82 63.5 0 0 -218.72 204.61 0c56.45,0 95.25,7.05 112.89,21.16 14.11,10.59 24.7,38.81 31.75,81.14l7.06 67.03c3.53,10.58 3.53,21.17 3.53,28.22 3.52,7.06 7.05,14.11 10.58,21.17l74.08 0 0 -7.06c-7.05,-3.52 -14.11,-10.58 -17.64,-17.63 -3.53,-7.06 -3.53,-14.12 -7.05,-24.7l-7.06 -74.08c-7.05,-38.81 -14.11,-63.5 -21.16,-74.09 -14.12,-21.16 -35.28,-35.27 -67.03,-38.8 35.28,-10.58 63.5,-24.7 81.14,-45.86 21.16,-17.64 31.75,-45.85 31.75,-74.08zm-119.95 -74.08l0 0c17.64,7.06 31.75,17.64 38.81,31.75 7.05,14.11 14.11,28.22 14.11,42.33 0,35.28 -17.64,63.49 -45.86,77.61 -28.23,14.11 -74.09,21.16 -141.11,21.16l-183.45 0 0 -190.49 183.45 0c31.75,0 59.97,0 74.08,3.53 24.69,3.53 45.86,7.05 59.97,14.11z"/>
    <path class="fil0" d="M2573.51 6552.85c-88.19,-3.53 -162.27,21.17 -215.19,67.03 -56.45,45.86 -84.67,109.36 -84.67,186.96 0,77.61 28.22,141.11 84.67,186.98 52.92,45.86 127,70.55 215.19,70.55 95.25,0 169.34,-24.69 225.78,-70.55 56.45,-45.87 84.67,-105.84 84.67,-186.98 0,-77.6 -28.22,-141.1 -84.67,-186.96 -56.44,-45.86 -130.53,-70.56 -225.78,-67.03zm-169.33 95.25l0 0c42.33,-38.8 98.78,-56.44 169.33,-56.44 74.09,0 134.06,17.64 176.39,56.44 49.39,38.81 70.56,91.72 70.56,158.74 0,67.03 -21.17,119.95 -70.56,158.75 -42.33,35.28 -102.3,56.45 -176.39,56.45 -70.55,0 -127,-21.17 -169.33,-56.45 -45.86,-38.8 -67.03,-91.72 -67.03,-158.75 0,-67.02 21.17,-119.93 67.03,-158.74z"/>
    <path class="fil0" d="M1197.68 6591.66c52.92,0 98.78,10.58 134.06,28.22 38.8,21.17 59.97,49.39 74.08,84.67l63.5 0c-10.58,-49.39 -38.81,-84.67 -88.2,-112.89 -49.38,-28.22 -112.88,-38.81 -183.44,-38.81 -91.72,-3.53 -162.28,17.64 -218.72,63.5 -56.45,45.86 -84.67,109.36 -84.67,190.49 0,77.61 28.22,141.11 84.67,186.98 56.44,45.86 127,70.55 211.66,70.55 49.39,0 95.26,-10.58 134.06,-28.22 42.33,-17.64 74.08,-38.81 98.78,-67.03l3.53 81.14 52.91 0 0 -250.47 -278.69 0 0 42.33 215.19 0c0,56.45 -21.16,102.31 -63.5,134.06 -38.8,31.75 -95.25,45.86 -165.8,45.86 -67.03,0 -119.95,-17.64 -165.81,-56.45 -38.8,-42.33 -56.44,-95.25 -56.44,-158.75 0,-70.54 17.64,-123.46 56.44,-162.27 45.86,-35.27 102.31,-52.91 176.39,-52.91z"/>
    <path class="fil0" d="M537.99 6563.44l-74.09 0 -264.58 486.82 63.5 0 81.14 -148.17 313.97 0 77.61 148.17 70.56 0 -268.11 -486.82zm98.77 296.32l0 0 -271.63 0 134.05 -246.94 137.58 246.94z"/>
    <polygon class="fil0" points="9188.09,6602.24 9188.09,6563.44 8729.48,6563.44 8729.48,7050.26 9198.67,7050.26 9198.67,7007.93 8792.98,7007.93 8792.98,6817.43 9152.81,6817.43 9152.81,6778.62 8792.98,6778.62 8792.98,6602.24 "/>
    <path class="fil0" d="M8313.2 6563.44l-236.36 0 0 486.82 63.5 0 0 -218.72 204.61 0c56.44,0 91.72,7.05 112.89,21.16 14.11,10.59 28.22,38.81 31.75,81.14l7.05 67.03c3.53,10.58 3.53,21.17 3.53,28.22 3.53,7.06 7.06,14.11 14.11,21.17l67.03 0 0 -7.06c-3.53,-3.52 -10.58,-10.58 -14.11,-17.63 -3.53,-7.06 -3.53,-14.12 -7.06,-24.7l-7.05 -74.08c-7.06,-38.81 -10.59,-63.5 -21.17,-74.09 -14.11,-21.16 -35.28,-35.27 -67.03,-38.8 35.28,-10.58 63.5,-24.7 81.14,-45.86 21.17,-17.64 31.75,-45.85 31.75,-74.08 0,-24.69 -7.05,-45.86 -24.69,-67.02 -14.11,-17.64 -35.28,-31.75 -63.5,-42.34 -21.17,-10.58 -45.86,-17.64 -81.14,-17.64 -21.17,-3.52 -52.92,-3.52 -95.25,-3.52zm-172.86 38.8l0 0 183.44 0c35.28,0 59.97,0 74.09,3.53 24.69,3.53 45.86,7.05 59.97,14.11 17.64,7.06 31.75,17.64 38.8,31.75 10.59,14.11 14.11,28.22 14.11,42.33 0,35.28 -14.11,63.49 -42.33,77.61 -31.75,14.11 -77.61,21.16 -141.11,21.16l-186.97 0 0 -190.49z"/>
    <path class="fil0" d="M7692.31 6563.44l-77.61 0 -268.11 486.82 67.03 0 81.13 -148.17 317.5 0 77.62 148.17 67.02 0 -264.58 -486.82zm95.25 296.32l0 0 -268.11 0 130.53 -246.94 137.58 246.94z"/>
   </g>
   <g>
    <polygon class="fil0" points="3145.01,7336.01 2866.32,7336.01 2866.32,7762.87 2510.01,7336.01 2238.38,7336.01 2238.38,8101.53 2510.01,8101.53 2510.01,7681.73 2866.32,8101.53 3145.01,8101.53 "/>
    <path class="fil0" d="M1832.68 8101.53l306.92 0 -352.78 -765.52 -324.56 0 -352.77 765.52 296.33 0 49.39 -123.46 331.61 0 45.86 123.46zm-211.67 -564.44l0 0 102.31 271.64 -204.61 0 102.3 -271.64z"/>
    <path class="fil0" d="M400.4 7353.65c-59.97,17.64 -102.3,45.86 -127,84.67 -28.22,35.27 -45.86,70.55 -42.33,109.36 -3.53,59.97 24.69,109.36 81.14,148.16 52.92,38.81 144.64,70.56 278.69,95.25 77.61,10.59 130.53,28.23 148.17,42.34 21.17,14.11 31.75,31.75 35.28,52.91 -3.53,21.17 -17.64,38.81 -38.81,56.45 -21.17,14.11 -56.44,24.69 -95.25,24.69 -59.97,0 -102.3,-17.64 -130.53,-49.39 -17.63,-21.16 -31.75,-42.33 -35.27,-81.14l-278.7 14.12c7.06,74.08 45.86,141.11 102.31,190.48 63.5,49.39 176.39,74.09 335.14,77.62 95.25,0 172.86,-10.59 229.3,-31.75 63.5,-24.7 105.84,-56.45 141.11,-95.24 35.28,-45.86 52.92,-88.2 52.92,-137.59 0,-45.86 -14.11,-81.14 -38.81,-112.89 -28.22,-35.27 -67.02,-63.5 -119.94,-84.66 -56.44,-24.7 -148.17,-49.39 -278.69,-67.03 -52.92,-14.11 -84.67,-21.17 -95.25,-31.75 -14.12,-14.11 -21.17,-21.17 -21.17,-31.75 0,-17.64 7.05,-28.22 24.69,-42.33 17.64,-10.59 38.81,-21.17 77.61,-21.17 38.81,0 70.56,10.58 98.78,24.69 17.64,17.64 35.28,42.34 45.86,77.61l271.64 -10.58c-10.58,-81.14 -45.86,-137.58 -109.36,-172.86 -67.03,-38.8 -158.75,-56.44 -278.69,-56.44 -102.31,0 -179.92,7.05 -232.84,28.22z"/>
    <path class="fil0" d="M6256.5 7336.01l-486.82 0 0 765.52 296.33 0 0 -306.91 21.17 0c28.22,0 52.92,3.53 74.08,14.11 10.59,14.11 31.75,31.75 52.92,59.97l155.21 232.83 331.61 0 -141.11 -218.72c-7.05,-14.11 -21.16,-28.22 -38.8,-49.38 -21.17,-17.64 -38.81,-35.28 -49.39,-38.81 -17.64,-14.11 -38.81,-21.17 -77.61,-28.22 45.86,-7.06 77.61,-21.17 105.83,-31.75 35.28,-21.17 67.03,-45.86 91.72,-74.08 21.17,-31.75 31.75,-67.03 31.75,-112.89 0,-45.86 -14.11,-88.2 -42.33,-123.48 -28.22,-35.27 -70.56,-56.44 -116.42,-67.02 -49.39,-14.11 -116.41,-21.17 -208.14,-21.17zm-63.49 155.22l0 0c52.91,-3.53 88.19,7.06 109.36,17.64 21.16,10.58 28.22,31.75 28.22,59.97 0,17.64 -7.06,31.75 -21.17,45.86 -10.58,10.59 -24.69,17.64 -42.33,21.17 -42.33,10.58 -70.55,14.11 -81.13,14.11l-119.95 0 0 -158.75 127 0z"/>
    <path class="fil0" d="M4873.62 7978.07l49.39 123.46 306.92 0 -356.31 -765.52 -317.5 0 -359.83 765.52 299.86 0 49.39 -123.46 328.08 0zm-59.97 -169.34l0 0 -208.14 0 102.31 -271.64 105.83 271.64z"/>
    <polygon class="fil0" points="4161.01,7526.51 4161.01,7336.01 3268.49,7336.01 3268.49,7526.51 3568.35,7526.51 3568.35,8101.53 3861.15,8101.53 3861.15,7526.51 "/>
    <path class="fil0" d="M8845.89 7336.01l-317.5 0 -356.3 765.52 299.86 0 45.86 -123.46 328.08 0 49.39 123.46 306.92 0 -356.31 -765.52zm-56.44 472.72l0 0 -208.14 0 105.83 -271.64 102.31 271.64z"/>
    <polygon class="fil0" points="8133.28,7526.51 8133.28,7336.01 7247.81,7336.01 7247.81,7526.51 7544.14,7526.51 7544.14,8101.53 7833.42,8101.53 7833.42,7526.51 "/>
    <polygon class="fil0" points="7099.64,7336.01 6806.84,7336.01 6806.84,8101.53 7099.64,8101.53 "/>
   </g>
  </g>
 </g>
</svg>
